<?xml version="1.0" standalone="no"?>
<!DOCTYPE svg PUBLIC "-//W3C//DTD SVG 1.1//EN" "http://www.w3.org/Graphics/SVG/1.1/DTD/svg11.dtd" >
<svg xmlns="http://www.w3.org/2000/svg" xmlns:xlink="http://www.w3.org/1999/xlink" version="1.1">
<metadata>
Created by FontForge 20150824 at Tue May 31 04:16:33 2016
 By Everything Fonts
Copyright (c) 2010-13 by Vernon Adams
</metadata>
<defs>
<font id="OswaldMedium" horiz-adv-x="873" >
  <font-face 
    font-family="OswaldMedium"
    font-weight="500"
    font-stretch="normal"
    units-per-em="2048"
    panose-1="2 0 6 3 0 0 0 0 0 0"
    ascent="1638"
    descent="-410"
    x-height="1184"
    cap-height="1658"
    bbox="-189 -669 3982 2264"
    underline-thickness="40"
    underline-position="-157"
    unicode-range="U+0020-FB04"
  />
<missing-glyph horiz-adv-x="748" 
d="M68 0v1365h544v-1365h-544zM136 68h408v1229h-408v-1229z" />
    <glyph glyph-name=".notdef" horiz-adv-x="748" 
d="M68 0v1365h544v-1365h-544zM136 68h408v1229h-408v-1229z" />
    <glyph glyph-name=".null" horiz-adv-x="0" 
 />
    <glyph glyph-name="nonmarkingreturn" horiz-adv-x="682" 
 />
    <glyph glyph-name="space" unicode=" " horiz-adv-x="500" 
 />
    <glyph glyph-name="exclam" unicode="!" horiz-adv-x="471" 
d="M182 384l-85 1272h279l-96 -1272h-98zM95 0v270h271v-270h-271z" />
    <glyph glyph-name="quotedbl" unicode="&#x22;" horiz-adv-x="763" 
d="M466 1100v558h244l-105 -558h-139zM124 1100v558h243l-104 -558h-139z" />
    <glyph glyph-name="numbersign" unicode="#" horiz-adv-x="1044" 
d="M425 765h171l26 202h-170zM96 0l74 574h-95l2 191h121l25 202h-145l2 194h174l65 497h230l-66 -497h169l66 497h228l-66 -497h90l-2 -194h-117l-27 -202h143l-2 -191h-168l-75 -574h-229l75 574h-169l-76 -574h-227z" />
    <glyph glyph-name="dollar" unicode="$" horiz-adv-x="1009" 
d="M495 -182v163q-410 14 -432 505l264 55q9 -329 188 -329q69 0 102 42t33 113q0 53 -12 96t-38.5 81t-53.5 66t-73 68l-217 189q-96 84 -143 174.5t-47 226.5q0 184 105.5 290.5t288.5 117.5v154h87v-154q98 -7 167.5 -44.5t109.5 -101.5t59.5 -136t26.5 -165l-259 -51
q-2 50 -6.5 87t-15.5 75t-28 61.5t-46 37.5t-69 11q-67 -4 -102.5 -44.5t-35.5 -108.5q0 -80 31 -131t98 -111l216 -188q54 -49 94.5 -95t77 -105t55.5 -130t19 -150q0 -166 -98 -276t-261 -128v-165h-85z" />
    <glyph glyph-name="percent" unicode="%" horiz-adv-x="1980" 
d="M658 0l468 1658h197l-468 -1658h-197zM1537 -7q-189 0 -275 106t-86 314v88q0 212 83.5 312.5t277.5 100.5t278.5 -97.5t84.5 -306.5v-102q0 -208 -86 -311.5t-277 -103.5zM1537 188q32 0 54 12t35 30.5t20 49.5t9 61t2 73v90q0 45 -2 73.5t-8.5 58t-19 45.5t-35 26.5
t-55.5 10.5q-32 0 -54.5 -10.5t-35 -27t-19 -46.5t-8.5 -58t-2 -73v-90q0 -54 4 -90.5t16 -69.5t36.5 -49t62.5 -16zM442 744q-189 0 -275 106t-86 314v88q0 212 83.5 312.5t277.5 100.5t278.5 -98t84.5 -307v-101q0 -208 -86 -311.5t-277 -103.5zM442 938q31 0 53.5 12
t35 30.5t20 49.5t9.5 61.5t2 73.5v90q0 45 -2 73.5t-8.5 57.5t-19.5 45.5t-35.5 26.5t-54.5 10t-54.5 -10.5t-35 -26.5t-19 -46t-8.5 -58t-2 -73v-91q0 -54 4 -90t16 -69.5t36.5 -49.5t62.5 -16z" />
    <glyph glyph-name="ampersand" unicode="&#x26;" horiz-adv-x="1210" 
d="M501 975q49 71 90.5 180.5t41.5 199.5q0 50 -30 80t-78 30q-51 0 -79 -44t-28 -108q0 -19 1.5 -38.5t5.5 -41.5t7.5 -40t10.5 -42t11 -38.5t12.5 -40t12 -34.5t12.5 -34t10 -29zM470 188q107 0 184 99q-206 353 -213 371q-41 -60 -65 -137t-24 -152q0 -79 31 -130t87 -51
zM467 -21q-166 0 -265.5 105t-99.5 275q0 145 66 271t169 222q-15 31 -54 103.5t-59.5 115.5t-39.5 109t-19 126q0 163 96.5 267.5t257.5 104.5q156 0 259 -89.5t103 -240.5q0 -77 -25 -151.5t-72 -141.5t-86 -112t-94 -102l-15 -15l214 -363q44 89 65 327h234
q0 -254 -142 -491q23 -28 63.5 -50.5t82.5 -23.5v-244q-22 -5 -40 -5q-28 0 -56 8.5t-46.5 16.5t-48 30.5t-38.5 30t-40.5 38t-33.5 32.5q-56 -72 -142.5 -112.5t-193.5 -40.5z" />
    <glyph glyph-name="quotesingle" unicode="'" horiz-adv-x="653" 
d="M138 1100v558h238l-95 -558h-143z" />
    <glyph glyph-name="parenleft" unicode="(" horiz-adv-x="652" 
d="M587 -393q-89 0 -159 31.5t-117 81t-80 133.5t-51 163t-27.5 195.5t-12 206t-2.5 218.5q0 134 2.5 225t12 209t27.5 197t51 163t80 133t117 80.5t159 31.5v-191q-32 0 -58 -17t-45 -53t-33 -78t-23 -107t-14.5 -125t-8 -145.5t-3.5 -155t-1 -167.5q0 -97 1 -168.5t4 -155
t8.5 -143.5t15 -123t23.5 -104.5t32.5 -76t44 -51t57.5 -16.5v-191z" />
    <glyph glyph-name="parenright" unicode=")" horiz-adv-x="593" 
d="M65 -393v191q25 0 46.5 11t38.5 33.5t30.5 51t23.5 70t18 84t13 99.5t8 109.5t5 120.5t2.5 127.5t0.5 134.5q0 78 -0.5 135t-2 127.5t-4.5 122t-8 109.5t-12.5 100t-17.5 84.5t-23.5 70.5t-30.5 51t-39 34t-48 11v191q89 0 159 -31.5t117 -80t80 -132.5t51 -162.5
t27.5 -196.5t12 -209t2.5 -224q0 -130 -2.5 -219t-12 -206.5t-27.5 -196.5t-51 -163t-80 -134t-117 -81.5t-159 -31.5z" />
    <glyph glyph-name="asterisk" unicode="*" horiz-adv-x="845" 
d="M332 938l-165 99l154 217l-230 88l64 171l215 -116l-26 260h209l-26 -261l215 117l65 -172l-231 -89l156 -215l-168 -99l-116 240z" />
    <glyph glyph-name="plus" unicode="+" horiz-adv-x="890" 
d="M343 424v334h-290v186h290v330h197v-330h298v-186h-298v-334h-197z" />
    <glyph glyph-name="comma" unicode="," horiz-adv-x="430" 
d="M124 -281l-30 105q59 15 96.5 60.5t37.5 115.5h-147v271h275v-252q0 -254 -232 -300z" />
    <glyph glyph-name="hyphen" unicode="-" horiz-adv-x="723" 
d="M115 556v194h494v-194h-494z" />
    <glyph glyph-name="period" unicode="." horiz-adv-x="438" 
d="M94 0v277h272v-277h-272z" />
    <glyph glyph-name="slash" unicode="/" horiz-adv-x="812" 
d="M73 0l469 1658h195l-469 -1658h-195z" />
    <glyph glyph-name="zero" unicode="0" horiz-adv-x="1044" 
d="M523 -23q-209 0 -320 132t-111 352v729q0 227 107.5 357.5t323.5 130.5q214 0 322.5 -131t108.5 -357v-729q0 -220 -111 -352t-320 -132zM523 221q144 0 144 244v720q0 32 -2 58.5t-6.5 56.5t-15 52.5t-25.5 42t-39.5 29.5t-55.5 10q-37 0 -64.5 -15.5t-42.5 -38.5
t-23.5 -58.5t-11 -66t-2.5 -70.5v-720q0 -244 144 -244z" />
    <glyph glyph-name="one" unicode="1" horiz-adv-x="1025" 
d="M444 0v1337l-267 -71v212q255 85 334 180h217v-1658h-284z" />
    <glyph glyph-name="two" unicode="2" horiz-adv-x="1025" 
d="M93 0v200l405 634q9 15 49 74.5t53 83t36.5 72t32 91t8.5 90.5q0 98 -34.5 149t-106.5 47q-152 -7 -152 -266v-69h-280v71q0 114 24 203.5t74 157.5t134.5 104t198.5 36q210 0 317.5 -113.5t107.5 -321.5q0 -71 -13 -134t-42 -123t-54 -101t-69 -106q-5 -7 -7.5 -11
t-6.5 -9.5t-7 -10.5l-341 -519h497v-229h-824z" />
    <glyph glyph-name="three" unicode="3" horiz-adv-x="1007" 
d="M517 -23q-222 0 -328 123t-106 347v59h284v-46q2 -126 33.5 -186t118.5 -60q38 0 65.5 13t43.5 33.5t24.5 56t11.5 71.5t3 88q0 132 -43 201t-150 75q-4 0 -22 0.5t-21 0.5v238q32 0 38 1q110 3 154 57.5t44 179.5q0 110 -33.5 165t-118.5 55q-36 0 -62.5 -12t-42.5 -32
t-25.5 -51.5t-13 -64.5t-4.5 -77v-56h-284v77q0 212 112.5 328.5t319.5 116.5q209 0 321.5 -114t112.5 -325q0 -141 -61 -235t-162 -123q107 -37 165 -137.5t58 -263.5q0 -237 -104 -370t-328 -133z" />
    <glyph glyph-name="four" unicode="4" horiz-adv-x="1044" 
d="M319 641h241v703zM560 0v405h-487v262l421 992h334v-1018h172v-236h-172v-405h-268z" />
    <glyph glyph-name="five" unicode="5" horiz-adv-x="1021" 
d="M520 -23q-122 0 -206 34.5t-130 103t-65.5 156t-19.5 208.5h279q0 -68 5 -113t20 -87.5t47 -63.5t81 -20q31 0 54.5 11t39 25t26.5 44.5t16.5 54t8 70t3 76.5t0.5 88q0 63 -2.5 105t-11.5 86t-25 69t-45 41t-70 16q-59 0 -99.5 -40t-57.5 -104h-244l13 921h753v-259h-510
l-17 -391q33 36 91.5 58.5t129.5 24.5q97 4 169 -30t115.5 -102t64.5 -160.5t21 -211.5q0 -110 -10.5 -196t-39 -166.5t-76 -132.5t-125.5 -83.5t-183 -31.5z" />
    <glyph glyph-name="six" unicode="6" horiz-adv-x="1042" 
d="M539 201q43 0 73 21.5t45.5 63t21.5 90t6 113.5q0 47 -0.5 71.5t-3 64t-8 60.5t-16.5 48t-26 40.5t-38.5 23t-54.5 9.5q-97 0 -149 -97v-250q0 -258 150 -258zM537 -20q-90 0 -162.5 28t-122.5 77t-83.5 118.5t-49 150.5t-15.5 174v559q0 103 12 187t42 160.5t78.5 129
t124.5 83t176 30.5q411 0 419 -417v-24h-275q0 114 -29 166t-114 52q-81 0 -115 -79.5t-34 -264.5v-197q29 50 87 78.5t136 29.5q357 4 357 -475q0 -125 -23 -224.5t-72 -178t-134.5 -121t-202.5 -42.5z" />
    <glyph glyph-name="seven" unicode="7" horiz-adv-x="880" 
d="M196 0l323 1440h-438v218h717v-167l-327 -1491h-275z" />
    <glyph glyph-name="eight" unicode="8" horiz-adv-x="1025" 
d="M513 989q132 0 132 262q0 94 -32 152t-100 58q-71 0 -103.5 -57.5t-32.5 -151.5q0 -263 136 -263zM513 195q40 0 69 17t45.5 42t26 63.5t12 72.5t2.5 78q0 274 -155 274q-158 0 -158 -274q0 -44 3 -79t13 -73t26.5 -63t46 -41.5t69.5 -16.5zM513 -21q-435 0 -433 503
q1 282 195 392q-167 126 -170 365q-2 208 102 323t306 115t304 -115.5t100 -322.5q-3 -243 -168 -365q194 -115 195 -392q5 -503 -431 -503z" />
    <glyph glyph-name="nine" unicode="9" horiz-adv-x="1042" 
d="M520 852q93 0 144 96v250q0 259 -146 259q-43 0 -72.5 -22t-45 -63.5t-21.5 -90t-6 -113.5v-55.5t1.5 -51.5t4 -50t7.5 -43t12 -40t18.5 -31t26 -25t34 -14t43.5 -6zM517 -20q-412 0 -418 421v20h275q0 -113 29.5 -165.5t115.5 -52.5q80 0 112.5 79.5t32.5 265.5v196
q-62 -105 -221 -107q-79 -1 -141 23.5t-102 67t-66 105t-37 133t-11 154.5q0 124 24 223t74 175t134.5 117.5t199.5 41.5q112 0 196.5 -41t135.5 -115t76 -170t25 -214v-567q0 -103 -12 -187t-42.5 -160.5t-78.5 -129t-124.5 -83t-176.5 -30.5z" />
    <glyph glyph-name="colon" unicode=":" horiz-adv-x="476" 
d="M126 843v270h270v-270h-270zM126 166v269h270v-269h-270z" />
    <glyph glyph-name="semicolon" unicode=";" horiz-adv-x="505" 
d="M124 894v276h271v-276h-271zM167 -163l-30 105q134 10 134 149h-146v271h275v-252q0 -273 -233 -273z" />
    <glyph glyph-name="less" unicode="&#x3c;" horiz-adv-x="789" 
d="M672 121l-610 426v248l610 428v-262l-405 -288l405 -291v-261z" />
    <glyph glyph-name="equal" unicode="=" horiz-adv-x="879" 
d="M119 918v190h641v-190h-641zM119 542v189h641v-189h-641z" />
    <glyph glyph-name="greater" unicode="&#x3e;" horiz-adv-x="789" 
d="M115 121v261l406 291l-406 288v262l612 -428v-248z" />
    <glyph glyph-name="question" unicode="?" horiz-adv-x="999" 
d="M289 0v273h276v-273h-276zM299 425v259q76 68 132 128t109.5 135t81 156.5t25.5 165.5q-2 79 -45.5 124.5t-111.5 45.5q-69 0 -104 -43.5t-27 -114.5q0 -45 15 -88l-257 -52q-20 86 -20 115q-27 191 77 308.5t313 117.5q210 0 323 -111t113 -312q0 -95 -29.5 -184.5
t-86 -170.5t-115.5 -144.5t-141 -137.5v-197h-252z" />
    <glyph glyph-name="at" unicode="@" horiz-adv-x="1914" 
d="M955 406q38 8 75.5 43t51.5 103l67 472q-12 16 -51 16q-79 0 -144.5 -64t-101.5 -165t-36 -214q-1 -88 33.5 -144.5t105.5 -46.5zM969 -275q-413 0 -642 236.5t-208 665.5q9 248 82 443.5t199.5 324t301.5 196t388 67.5q156 0 284 -44.5t215 -121t145.5 -181.5t82 -225
t17.5 -251q-3 -94 -24.5 -184.5t-64.5 -173t-102 -145t-142.5 -99.5t-180.5 -37q-91 0 -156 45.5t-78 126.5q-20 -64 -68 -109.5t-122 -52.5q-106 -10 -183.5 44t-113.5 145t-33 203q1 83 20.5 171t60 173.5t95.5 152.5t134 108.5t168 41.5q69 0 139 -91l21 75h213
l-106 -723q-13 -96 -2 -126q9 -26 34 -29q76 -6 142.5 57.5t107 173.5t44.5 237q5 106 -11 200.5t-58.5 177t-108 142t-165 94t-223.5 34.5q-166 0 -300.5 -61.5t-224.5 -172.5t-141 -263.5t-58 -335.5q-19 -343 146.5 -530t502.5 -187q187 0 385 62l40 -187
q-248 -67 -452 -67z" />
    <glyph glyph-name="A" unicode="A" horiz-adv-x="1065" 
d="M423 582h222l-111 681zM38 0l337 1658h315l336 -1658h-281l-67 385h-287l-68 -385h-285z" />
    <glyph glyph-name="B" unicode="B" horiz-adv-x="1137" 
d="M426 982h94q133 0 183 57t50 192q0 70 -16.5 113.5t-55.5 65.5t-86.5 29t-126.5 7h-42v-464zM426 213h111q135 0 187 63t52 208q0 150 -58.5 217.5t-196.5 67.5h-95v-556zM124 0v1658h406q115 0 200.5 -20.5t152 -68t100.5 -131.5t33 -203q-1 -307 -244 -343
q147 -28 219.5 -128.5t73.5 -282.5q1 -236 -118 -358.5t-347 -122.5h-476z" />
    <glyph glyph-name="C" unicode="C" horiz-adv-x="1102" 
d="M569 -20q-107 0 -189 27t-135.5 75t-87 119t-47 152.5t-13.5 183.5v578q0 108 14 191.5t47 155t86.5 117.5t135 72t189.5 26q124 0 212 -33t139 -97t74 -149.5t23 -199.5v-142h-291v141q0 124 -13 167q-26 84 -127 90h-16q-38 0 -66.5 -9t-46.5 -28.5t-29 -41.5
t-16.5 -57.5t-7 -65.5t-1.5 -76v-702q0 -146 36.5 -208t130.5 -62q32 0 56.5 7.5t41 19t28 33t17.5 40t9 51.5t3.5 56t0.5 63v148h291v-136q0 -93 -13 -167t-44.5 -139t-81.5 -108t-128 -67.5t-181 -24.5z" />
    <glyph glyph-name="D" unicode="D" horiz-adv-x="1133" 
d="M124 0v1658h386q150 0 251 -30t162 -95t86.5 -159.5t25.5 -232.5v-598q0 -142 -26 -241t-85.5 -168t-158.5 -101.5t-243 -32.5h-398zM426 212h86q45 0 79 8t57 19t38.5 36t23.5 46t12 63.5t5 72.5t1 89v606q0 59 -2 95t-9.5 72.5t-22 56.5t-38.5 36.5t-60 23t-87 6.5h-83
v-1230z" />
    <glyph glyph-name="E" unicode="E" 
d="M124 0v1658h694v-213h-392v-476h310v-213h-310v-547h397v-209h-699z" />
    <glyph glyph-name="F" unicode="F" horiz-adv-x="840" 
d="M124 0v1658h681v-209h-379v-482h303v-213h-303v-754h-302z" />
    <glyph glyph-name="G" unicode="G" horiz-adv-x="1142" 
d="M539 -22q-235 0 -338.5 147t-103.5 428v540q0 143 22.5 246.5t75.5 181.5t146 117t228 39q246 0 353 -120.5t107 -365.5v-81h-289v86q0 55 -2.5 90t-12 70.5t-27.5 54.5t-49 31t-76 12q-34 0 -60.5 -8.5t-44.5 -21t-30.5 -35.5t-19 -44.5t-10 -55.5t-4.5 -60t-1 -67v-669
q0 -150 37 -219.5t141 -69.5q54 0 90.5 20.5t57 62t29 95t8.5 129.5v136h-179v195h451v-842h-196l-22 168q-75 -190 -281 -190z" />
    <glyph glyph-name="H" unicode="H" horiz-adv-x="1195" 
d="M127 0v1658h302v-693h337v693h302v-1658h-302v750h-337v-750h-302z" />
    <glyph glyph-name="I" unicode="I" horiz-adv-x="562" 
d="M133 0v1658h298v-1658h-298z" />
    <glyph glyph-name="J" unicode="J" horiz-adv-x="667" 
d="M19 -35v212q133 -1 177 40t44 169v1272h302l-1 -1279q-1 -109 -18.5 -183.5t-60 -128t-116 -78t-182.5 -24.5h-145z" />
    <glyph glyph-name="K" unicode="K" horiz-adv-x="1085" 
d="M124 0v1658h302v-720l326 720h288l-317 -742l350 -916h-301l-286 780l-60 -108v-672h-302z" />
    <glyph glyph-name="L" unicode="L" horiz-adv-x="859" 
d="M124 0v1658h302v-1449h397v-209h-699z" />
    <glyph glyph-name="M" unicode="M" horiz-adv-x="1397" 
d="M121 0l27 1658h310l240 -1165l247 1165h303l28 -1658h-228l-20 1142l-239 -1142h-177l-242 1146l-18 -1146h-231z" />
    <glyph glyph-name="N" unicode="N" horiz-adv-x="1112" 
d="M124 0v1658h208l406 -939v939h250v-1658h-198l-410 987v-987h-256z" />
    <glyph glyph-name="O" unicode="O" horiz-adv-x="1150" 
d="M575 -20q-256 0 -367 139t-111 407v612q0 132 25 229t80.5 168t148.5 106.5t224 35.5q255 0 366.5 -137t111.5 -402v-612q0 -130 -25.5 -228.5t-81 -171t-148.5 -109.5t-223 -37zM575 204q44 0 75 13t49.5 34t29 55t14 68t3.5 81v753q0 60 -6 100t-23.5 75.5t-52.5 53
t-89 17.5t-89.5 -17.5t-52.5 -53t-23 -75.5t-6 -100v-753q0 -47 3.5 -81t14 -68t28.5 -55t49.5 -34t75.5 -13z" />
    <glyph glyph-name="P" unicode="P" horiz-adv-x="1062" 
d="M426 953h97q128 0 173 50.5t45 185.5q0 77 -6 119t-28 76.5t-65.5 47.5t-117.5 13h-98v-492zM124 0v1658h477q424 0 424 -471q0 -231 -116 -338.5t-327 -107.5h-156v-741h-302z" />
    <glyph glyph-name="Q" unicode="Q" horiz-adv-x="1150" 
d="M575 204q44 0 75 13t49.5 34t29 55t14 68t3.5 81v753q0 60 -6 100t-23.5 75.5t-52.5 53t-89 17.5t-89.5 -17.5t-52.5 -53t-23 -75.5t-6 -100v-753q0 -47 3.5 -81t14 -68t28.5 -55t49.5 -34t75.5 -13zM928 -332q-75 35 -165.5 126t-153.5 187q-11 -1 -34 -1
q-256 0 -367 139t-111 407v612q0 132 25 229t80.5 168t148.5 106.5t224 35.5q255 0 366.5 -137t111.5 -402v-612q0 -386 -230 -497q99 -118 161 -156z" />
    <glyph glyph-name="R" unicode="R" horiz-adv-x="1136" 
d="M426 950h73q134 0 190.5 57t56.5 195q0 133 -49 190.5t-180 57.5h-91v-500zM124 0v1658h380q131 0 225 -21.5t163.5 -72t104 -137t34.5 -211.5q0 -156 -46.5 -255t-153.5 -144l230 -817h-303l-198 757h-134v-757h-302z" />
    <glyph glyph-name="S" unicode="S" horiz-adv-x="1010" 
d="M542 -20q-438 0 -460 506l263 55q10 -329 188 -329q69 0 102.5 42t33.5 113q0 69 -25 126.5t-58 94t-94 90.5l-218 189q-96 84 -143 174.5t-47 226.5q0 193 113.5 300t311.5 109q91 1 161 -22.5t115.5 -63t76 -98.5t45.5 -122.5t21 -141.5l-258 -51q-2 50 -6.5 87
t-15.5 75t-28.5 61.5t-47 37.5t-68.5 11q-67 -4 -102.5 -44.5t-35.5 -108.5q0 -80 31.5 -131.5t98.5 -110.5l216 -188q54 -49 94 -95t76.5 -105t55.5 -130t19 -150q0 -181 -114.5 -294t-300.5 -113z" />
    <glyph glyph-name="T" unicode="T" horiz-adv-x="865" 
d="M286 0v1435h-278v223h849v-223h-269v-1435h-302z" />
    <glyph glyph-name="U" unicode="U" horiz-adv-x="1154" 
d="M578 -20q-111 0 -192.5 26t-134 73t-84 120.5t-44 159t-12.5 198.5v1101h293v-1132q0 -58 3 -99t13 -86t28.5 -72t51 -45t78.5 -18t78.5 18t50 45t28 72t13 85.5t2.5 99.5v1132h293v-1101q0 -113 -12.5 -198.5t-44 -159t-83.5 -120.5t-133.5 -73t-191.5 -26z" />
    <glyph glyph-name="V" unicode="V" horiz-adv-x="1059" 
d="M383 0l-336 1658h268l218 -1154l206 1154h274l-338 -1658h-292z" />
    <glyph glyph-name="W" unicode="W" horiz-adv-x="1470" 
d="M304 0l-237 1658h254l136 -1069l177 1069h203l181 -1070l136 1070h249l-237 -1658h-241l-187 1107l-186 -1107h-248z" />
    <glyph glyph-name="X" unicode="X" horiz-adv-x="1023" 
d="M21 0l333 880l-324 778h283l215 -514l185 514h265l-320 -831l344 -827h-282l-232 556l-204 -556h-263z" />
    <glyph glyph-name="Y" unicode="Y" horiz-adv-x="1001" 
d="M357 0v631l-338 1027h282l205 -660l196 660h279l-336 -1027v-631h-288z" />
    <glyph glyph-name="Y" unicode="&#x4ae;" horiz-adv-x="1001" 
d="M357 0v631l-338 1027h282l205 -660l196 660h279l-336 -1027v-631h-288z" />
    <glyph glyph-name="Z" unicode="Z" horiz-adv-x="870" 
d="M72 0v198l440 1251h-418v209h727v-149l-461 -1300h462v-209h-750z" />
    <glyph glyph-name="bracketleft" unicode="[" horiz-adv-x="703" 
d="M117 -386l1 2044h493v-124h-245l-1 -1796h245v-124h-493z" />
    <glyph glyph-name="backslash" unicode="\" horiz-adv-x="812" 
d="M543 0l-470 1658h195l469 -1658h-194z" />
    <glyph glyph-name="bracketright" unicode="]" horiz-adv-x="655" 
d="M45 -386v124h245l-1 1796h-244v124h493v-2044h-493z" />
    <glyph glyph-name="asciicircum" unicode="^" horiz-adv-x="953" 
d="M68 979l283 679h250l285 -679h-252l-158 454l-157 -454h-251z" />
    <glyph glyph-name="underscore" unicode="_" horiz-adv-x="730" 
d="M0 -313v199h730v-199h-730z" />
    <glyph glyph-name="grave" unicode="`" horiz-adv-x="610" 
d="M350 1249l-247 409h284l121 -409h-158z" />
    <glyph glyph-name="a" unicode="a" horiz-adv-x="927" 
d="M442 198q32 0 63.5 24t50.5 49v326q-208 -115 -208 -261q0 -64 24.5 -101t69.5 -37zM335 -19q-112 1 -183.5 87.5t-71.5 195.5q0 103 34 180t111.5 132t128.5 80t157 66l45 18v99q0 80 -18.5 117t-75.5 37q-93 0 -95 -130l-4 -74l-268 10q0 6 0.5 22t0.5 21
q13 186 110.5 273t278.5 87q175 0 259.5 -95t84.5 -269v-541q0 -136 22 -297h-253q-23 116 -29 174q-25 -82 -83.5 -137.5t-150.5 -55.5z" />
    <glyph glyph-name="b" unicode="b" horiz-adv-x="978" 
d="M514 182q31 0 51.5 17t30 51t12.5 69t3 86v408q0 42 -4 74t-15 61.5t-32.5 45t-52.5 14.5q-57 -1 -117 -46v-743q57 -37 124 -37zM611 -19q-111 0 -221 106v-87h-280v1658h280v-564q109 109 239 108q63 -1 111.5 -29t76 -69.5t45 -98t23.5 -105t6 -98.5v-388
q0 -90 -15 -165.5t-47 -137t-87.5 -96t-130.5 -34.5z" />
    <glyph glyph-name="c" unicode="c" horiz-adv-x="899" 
d="M462 -19q-201 0 -289 113t-88 327v343q0 214 88 326t289 112q189 0 274.5 -89t85.5 -276v-96h-261v101q0 90 -21.5 125.5t-74.5 35.5q-59 0 -79.5 -42t-20.5 -156v-432q0 -113 22.5 -152.5t77.5 -39.5q56 0 76 38.5t20 116.5v127h261v-112q0 -184 -87.5 -277t-272.5 -93z
" />
    <glyph glyph-name="d" unicode="d" horiz-adv-x="969" 
d="M474 181q51 0 108 32v756q-57 36 -109 36q-56 0 -80.5 -51t-24.5 -130v-434q0 -64 7 -106t31.5 -72.5t67.5 -30.5zM376 -19q-145 0 -217 103t-72 327v344q0 95 14.5 172t46 141t88.5 99t136 35q112 0 210 -91v547h280v-1658h-280v81q-95 -99 -206 -100z" />
    <glyph glyph-name="e" unicode="e" horiz-adv-x="915" 
d="M363 718h202v113q0 90 -22.5 129t-79.5 39q-58 0 -79 -44t-21 -160v-77zM466 -19q-203 0 -292 112t-89 331v335q0 219 90 331t290 112q106 0 178.5 -31t113 -94t57.5 -145.5t17 -198.5v-155h-468v-178q0 -37 0.5 -57.5t3.5 -49.5t9.5 -45t17.5 -32.5t29 -23.5t42 -7
q56 0 78 39.5t22 114.5v68h265v-47q0 -184 -91.5 -281.5t-272.5 -97.5z" />
    <glyph glyph-name="f" unicode="f" horiz-adv-x="624" 
d="M165 0v985h-128v199h128v63q0 73 6 123t23.5 98t49.5 76.5t85 45.5t128 17q57 0 153 -11v-208q-7 1 -35 5.5t-41 4.5q-50 0 -70 -31.5t-20 -91.5v-91h166v-199h-166v-985h-279z" />
    <glyph glyph-name="g" unicode="g" horiz-adv-x="950" 
d="M460 544q70 0 91 52t21 184q0 136 -20 189t-90 53q-71 0 -92 -53.5t-21 -188.5q0 -48 2 -81.5t9 -64.5t19 -49.5t32 -29.5t49 -11zM514 -162q86 0 125.5 22t40.5 71q3 53 -27 77.5t-109 31.5l-188 18q-61 -71 -61 -131q0 -32 15.5 -50t64 -28.5t139.5 -10.5zM516 -359
q-53 0 -92.5 1t-91.5 5.5t-89.5 13t-77 23.5t-64 35.5t-40.5 52t-16 70.5q0 149 167 251q-120 41 -127 133q-5 64 27 110.5t109 109.5q-66 50 -99 125t-33 201q0 218 94.5 324t273.5 106q184 0 254 -116q22 27 66.5 64t93.5 61l39 18l66 -156q-35 -9 -106 -36t-95 -42
q19 -35 33 -98.5t14 -127.5q0 -406 -355 -406q-29 0 -79.5 8.5t-65.5 14.5q-34 -51 -32 -78q3 -40 104 -50q12 -2 106 -11.5t110 -11.5q149 -16 218 -86.5t69 -201.5q0 -157 -88 -231.5t-293 -74.5z" />
    <glyph glyph-name="h" unicode="h" horiz-adv-x="980" 
d="M112 0v1658h279v-589q140 133 295 133q42 0 75.5 -14.5t55 -39t36 -58t20.5 -69t6 -75.5v-946h-279v884q0 56 -16.5 83t-62.5 26q-55 -1 -130 -58v-935h-279z" />
    <glyph glyph-name="i" unicode="i" horiz-adv-x="509" 
d="M116 1371v236h281v-236h-281zM116 0v1184h280v-1184h-280z" />
    <glyph glyph-name="j" unicode="j" horiz-adv-x="518" 
d="M134 1371v236h282v-236h-282zM-30 -307v200q37 -7 59 -7q106 0 106 121v1177h279v-1209q0 -140 -78.5 -221t-220.5 -81q-86 0 -145 20z" />
    <glyph glyph-name="k" unicode="k" horiz-adv-x="986" 
d="M110 2v1658h278v-949l296 472l303 1l-290 -474l285 -710h-293l-211 582l-90 -128v-452h-278z" />
    <glyph glyph-name="l" unicode="l" horiz-adv-x="518" 
d="M125 0v1658h280v-1658h-280z" />
    <glyph glyph-name="m" unicode="m" horiz-adv-x="1469" 
d="M107 0v1184h266v-104q119 125 281 125q148 0 197 -145q125 145 299 145q99 0 159 -72t60 -209v-924h-266v900q0 65 -21.5 92t-63.5 26q-73 -2 -147 -69q0 -4 0.5 -12t0.5 -13v-924h-265v900q0 65 -21.5 92t-64.5 26q-70 -2 -148 -70v-948h-266z" />
    <glyph glyph-name="n" unicode="n" horiz-adv-x="970" 
d="M107 0v1184h280v-116q143 134 289 134q101 0 147.5 -74t46.5 -182v-946h-280v884q0 56 -16 83t-62 26q-52 -1 -125 -54v-939h-280z" />
    <glyph glyph-name="o" unicode="o" horiz-adv-x="929" 
d="M463 -19q-191 0 -284.5 107.5t-93.5 307.5v391q0 200 93.5 307.5t284.5 107.5q192 0 286.5 -107.5t94.5 -307.5v-391q0 -200 -94.5 -307.5t-286.5 -107.5zM464 178q34 0 55.5 15t31 46.5t12.5 61t3 76.5v429q0 37 -1.5 61.5t-7 53.5t-16.5 45.5t-30 28t-47 11.5
q-34 0 -55.5 -15.5t-31 -47t-12.5 -61t-3 -76.5v-429q0 -37 1.5 -61.5t7 -53t16.5 -45t30 -28t47 -11.5z" />
    <glyph glyph-name="p" unicode="p" horiz-adv-x="976" 
d="M510 182q31 0 52 17.5t30.5 51t13 69t3.5 85.5v408q0 41 -4.5 73.5t-15.5 62t-33 45t-53 14.5q-55 -1 -116 -47v-742q60 -37 123 -37zM107 -390v1574h280v-91q110 110 239 109q63 -1 111.5 -29t76 -69.5t45 -98t23.5 -105t6 -98.5v-388q0 -90 -15 -165.5t-47 -137
t-87.5 -96t-130.5 -34.5q-110 0 -221 107v-478h-280z" />
    <glyph glyph-name="q" unicode="q" horiz-adv-x="971" 
d="M476 181q49 0 109 33v754q-57 37 -110 37q-57 0 -82 -51t-25 -130v-434q0 -63 7.5 -105.5t32.5 -73t68 -30.5zM585 -390v473q-97 -101 -208 -102q-146 0 -217.5 103t-71.5 327v344q0 76 8.5 139.5t29 121.5t52.5 98.5t81.5 64t113.5 23.5q113 0 212 -94v76h280v-1574
h-280z" />
    <glyph glyph-name="r" unicode="r" horiz-adv-x="710" 
d="M111 0v1184h280v-182q59 105 119.5 151t129.5 46q21 0 42 -5v-277q-47 18 -97 18q-60 -2 -105.5 -30t-88.5 -93v-812h-280z" />
    <glyph glyph-name="s" unicode="s" horiz-adv-x="812" 
d="M414 -19q-147 0 -241 82t-129 236l212 77q22 -98 62 -148.5t100 -48.5q44 1 72.5 31.5t26.5 74.5q-4 64 -117 161l-159 136q-172 148 -168 309q3 142 96.5 226.5t238.5 84.5q139 0 226 -84t113 -225l-184 -77q-38 184 -142 185q-44 1 -70.5 -27t-26.5 -67q-1 -54 99 -141
l162 -147q41 -36 68 -64.5t56.5 -69.5t44 -88t14.5 -101q0 -150 -99.5 -232.5t-254.5 -82.5z" />
    <glyph glyph-name="t" unicode="t" horiz-adv-x="680" 
d="M437 -16q-81 1 -137.5 27t-87 74.5t-44 108.5t-13.5 140v665h-117v185h117v348h281v-348h180v-185h-180v-683q0 -58 25.5 -83.5t81.5 -26.5q39 -1 85 6v-214q-119 -16 -191 -14z" />
    <glyph glyph-name="u" unicode="u" horiz-adv-x="966" 
d="M293 -18q-101 0 -147.5 74t-46.5 182v946h279v-889q0 -55 17 -82t63 -26q49 0 120 50v947h279v-1184h-279v111q-141 -129 -285 -129z" />
    <glyph glyph-name="v" unicode="v" horiz-adv-x="826" 
d="M257 0l-231 1184h274l117 -859l116 859h270l-229 -1184h-317z" />
    <glyph glyph-name="w" unicode="w" horiz-adv-x="1217" 
d="M233 0l-182 1184h231l102 -767l126 767h205l119 -772l110 772h222l-188 -1184h-237l-130 741l-136 -741h-242z" />
    <glyph glyph-name="x" unicode="x" horiz-adv-x="846" 
d="M18 0l257 634l-250 550h274l149 -327l129 327h243l-253 -588l271 -596h-275l-164 358l-134 -358h-247z" />
    <glyph glyph-name="y" unicode="y" horiz-adv-x="855" 
d="M113 -317v202q128 0 168.5 24.5t26.5 103.5q-13 70 -41 174q-28 118 -128 504t-126 493h274l147 -778l129 778h273l-281 -1246q-31 -140 -134.5 -198t-273.5 -57h-34z" />
    <glyph glyph-name="z" unicode="z" horiz-adv-x="754" 
d="M68 0v184l341 793h-310v207h605v-161l-341 -815h338v-208h-633z" />
    <glyph glyph-name="braceleft" unicode="{" horiz-adv-x="695" 
d="M639 -403q-76 0 -131.5 3.5t-101 14.5t-75 24.5t-52 40t-34.5 54.5t-19.5 75t-9.5 93.5t-2 118.5v239q0 68 -1.5 109t-6.5 76t-12.5 51.5t-22.5 28t-33.5 14.5t-48.5 3v196q30 0 48.5 3t33.5 14.5t22.5 28t12.5 51.5t6.5 76t1.5 109v239q0 72 2 118.5t9.5 93.5t19.5 75
t34.5 54.5t52 40t75 24.5t101 14.5t131.5 3.5v-197q-37 0 -59.5 -2t-41 -13t-26.5 -23.5t-13.5 -43.5t-6.5 -62.5t-1 -90.5v-266q0 -162 -38 -244t-120 -101q82 -19 120 -101t38 -244v-266q0 -59 1 -90.5t6.5 -62.5t13.5 -43.5t26.5 -23.5t41 -13t59.5 -2v-197z" />
    <glyph glyph-name="bar" unicode="|" horiz-adv-x="518" 
d="M136 -333l2 1992l243 -1l-1 -1991h-244z" />
    <glyph glyph-name="braceright" unicode="}" horiz-adv-x="727" 
d="M88 -403v197q37 0 59.5 2t41 13t26.5 23.5t13.5 43.5t6.5 62.5t1 90.5v266q0 162 38 244t120 101q-82 19 -120 101t-38 244v266q0 59 -1 90.5t-6.5 62.5t-13.5 43.5t-26.5 23.5t-41 13t-59.5 2v197q76 0 131.5 -3.5t101 -14.5t75 -24.5t52 -40t34.5 -54.5t19.5 -75
t9.5 -93.5t2 -118.5v-239q0 -68 1.5 -109t6.5 -76t12.5 -51.5t22.5 -28t33.5 -14.5t48.5 -3v-196q-30 0 -48.5 -3t-33.5 -14.5t-22.5 -28t-12.5 -51.5t-6.5 -76t-1.5 -109v-239q0 -72 -2 -118.5t-9.5 -93.5t-19.5 -75t-34.5 -54.5t-52 -40t-75 -24.5t-101 -14.5t-131.5 -3.5
z" />
    <glyph glyph-name="asciitilde" unicode="~" horiz-adv-x="959" 
d="M642 712q-47 0 -110 30t-122 60t-94 30q-27 0 -69.5 -25t-77.5 -62l-94 126q48 62 121 116.5t128 54.5q46 0 109 -29.5t121 -59t93 -29.5q45 0 144 89l99 -114q-43 -69 -115.5 -128t-132.5 -59z" />
    <glyph glyph-name="uni00A0" unicode="&#xa0;" horiz-adv-x="500" 
 />
    <glyph glyph-name="exclamdown" unicode="&#xa1;" horiz-adv-x="453" 
d="M97 1047v270h271v-270h-271zM87 -339l96 1272h97l85 -1272h-278z" />
    <glyph glyph-name="cent" unicode="&#xa2;" horiz-adv-x="857" 
d="M397 -201v186q-166 17 -240 128.5t-74 307.5v343q0 196 74 306.5t240 128.5v184h78v-182q183 -3 264 -91.5t81 -272.5v-96h-261v98q0 90 -21.5 125.5t-74.5 35.5q-59 0 -79.5 -42t-20.5 -157v-425q0 -113 22.5 -152t78.5 -39q55 0 75 38t20 116v124h261v-112
q0 -181 -83 -273.5t-262 -95.5v-183h-78z" />
    <glyph glyph-name="sterling" unicode="&#xa3;" horiz-adv-x="905" 
d="M18 0v149l120 58v480h-120v214h120v180q0 66 2.5 118t8.5 110t18.5 102t31 88t47 74.5t66 55t88.5 36.5t113 12q93 0 159 -29t102.5 -84.5t53 -124.5t17.5 -160v-63h-228q0 51 -3 85t-12.5 70.5t-31.5 55t-56 18.5q-27 0 -46 -15t-29 -36t-16 -58.5t-7.5 -68t-2.5 -78.5
v-289h239v-213h-239v-463h428v-224h-823z" />
    <glyph glyph-name="currency" unicode="&#xa4;" horiz-adv-x="1138" 
d="M569 521q141 0 238 101t97 244t-96.5 244t-238.5 101q-141 0 -237.5 -101t-96.5 -244t96.5 -244t237.5 -101zM114 381l-30 30l163 162q-111 124 -111 293t111 293l-163 162l30 30l162 -162q123 116 293 115q170 1 293 -115l162 162l30 -30l-162 -162q110 -125 110 -293
q0 -169 -111 -293l163 -162l-30 -30l-162 162q-123 -116 -293 -115q-170 -1 -293 115z" />
    <glyph glyph-name="yen" unicode="&#xa5;" horiz-adv-x="959" 
d="M351 0v240h-174v160h174v127h-174v161h142l-306 970h282l205 -708l196 708h279l-304 -970h142v-161h-174v-127h174v-160h-174v-240h-288z" />
    <glyph glyph-name="brokenbar" unicode="&#xa6;" horiz-adv-x="442" 
d="M117 823v835h208v-835h-208zM117 -333v835h208v-835h-208z" />
    <glyph glyph-name="section" unicode="&#xa7;" horiz-adv-x="923" 
d="M506 708q87 44 87 117q0 29 -15.5 60t-48.5 52l-99 61q-38 -17 -64 -51.5t-26 -77.5q0 -27 14 -53t35 -38zM459 -15q-150 0 -241 89.5t-125 233.5l198 59q11 -30 25 -56.5t35 -53.5t49.5 -43t61.5 -16q55 0 87.5 26.5t36.5 76.5q3 50 -23 88.5t-87 76.5l-212 129
q-83 50 -128 113.5t-42 159.5q2 95 49.5 162t123.5 98q-72 41 -124 109.5t-54 150.5q-4 141 101 222.5t270 81.5q152 0 244.5 -89.5t126.5 -235.5l-195 -58q-11 34 -24 61t-33.5 54.5t-49.5 42.5t-65 15q-53 -1 -83 -28.5t-30 -79.5q0 -66 90 -120l223 -139
q75 -46 118 -118.5t43 -161.5q0 -163 -154 -256q77 -61 117.5 -124t40.5 -146q0 -151 -99.5 -237.5t-270.5 -86.5z" />
    <glyph glyph-name="dieresis" unicode="&#xa8;" horiz-adv-x="847" 
d="M494 1392v266h252v-266h-252zM101 1392v266h251v-266h-251z" />
    <glyph glyph-name="copyright" unicode="&#xa9;" horiz-adv-x="1784" 
d="M893 -24q-169 0 -309 50t-233 134t-157.5 196t-93 233t-28.5 249q0 129 28.5 250t93 233t157.5 195.5t233 133.5t309 50t308 -50t232.5 -133.5t157.5 -195.5t92.5 -233.5t28.5 -249.5q0 -129 -28.5 -250t-92.5 -233t-157 -195.5t-232.5 -133.5t-308.5 -50zM897 65
q145 0 266 43.5t203.5 117t139.5 173t83.5 210t26.5 229.5t-26.5 229.5t-83.5 209.5t-140 172t-203.5 116t-265.5 43q-146 0 -267 -43t-203.5 -116t-139.5 -172t-83.5 -209.5t-26.5 -229.5t26 -229.5t83.5 -210t140 -173t203.5 -117t267 -43.5zM895 254q-222 0 -318 114.5
t-96 332.5v294q0 217 96.5 331t317.5 114q208 0 301.5 -90t93.5 -279v-82h-282v83q0 92 -25 129t-85 37q-65 0 -90 -44t-25 -160v-380q0 -115 27 -156t89 -41t85.5 40t23.5 119v96h282v-83q0 -186 -96 -280.5t-299 -94.5z" />
    <glyph glyph-name="ordfeminine" unicode="&#xaa;" horiz-adv-x="953" 
d="M463 834q31 0 59 21t45 52v240q-183 -96 -183 -213q0 -46 21.5 -73t57.5 -27zM370 644q-103 1 -166.5 69.5t-63.5 167.5q0 37 8 70t20 59t33 50.5t40 42t49 35t52.5 29t57.5 25t56.5 20.5t57.5 19t53 18v111q0 131 -72 131q-47 0 -65 -41.5t-21 -124.5l-236 3
q2 168 90 261.5t245 93.5q166 0 236.5 -95t70.5 -276v-653h-223l-8 134q-30 -66 -85.5 -107.5t-128.5 -41.5z" />
    <glyph glyph-name="guillemotleft" unicode="&#xab;" horiz-adv-x="970" 
d="M858 64l-365 477v117l365 478v-309l-178 -227l178 -228v-308zM429 64l-363 477v117l363 478v-309l-177 -227l177 -228v-308z" />
    <glyph glyph-name="logicalnot" unicode="&#xac;" horiz-adv-x="899" 
d="M687 473v270h-599v199h739v-469h-140z" />
    <glyph glyph-name="uni00AD" unicode="&#xad;" horiz-adv-x="732" 
d="M124 807v194h491v-194h-491z" />
    <glyph glyph-name="registered" unicode="&#xae;" horiz-adv-x="1824" 
d="M913 -28q-168 0 -306.5 50t-231.5 133t-156.5 194.5t-92 231.5t-28.5 247q0 128 28.5 248t92 231.5t156.5 194.5t231.5 132.5t306.5 49.5t306 -49.5t230.5 -132.5t156 -194.5t92 -231.5t28.5 -248t-28 -248t-91.5 -231.5t-156 -194.5t-231 -132.5t-306.5 -49.5zM912 81
q139 0 254.5 42t194.5 113t134 167t80 203t25 221q0 115 -25 221.5t-80 202t-134 166.5t-194.5 112.5t-254.5 41.5q-140 0 -256.5 -41.5t-195.5 -112t-134 -166.5t-80 -202.5t-25 -221.5q0 -114 25 -220.5t80 -203t134 -167.5t195.5 -113t256.5 -42zM817 875h41
q106 0 146 40t40 136q0 79 -34.5 120t-112.5 41h-80v-337zM582 309v1049h327q184 0 274.5 -72t90.5 -229q0 -98 -39.5 -158t-120.5 -99l188 -491h-246l-155 444h-84v-444h-235z" />
    <glyph glyph-name="macron" unicode="&#xaf;" horiz-adv-x="491" 
d="M33 1510v148h453v-148h-453z" />
    <glyph glyph-name="degree" unicode="&#xb0;" horiz-adv-x="1017" 
d="M508 921q-175 0 -277.5 103t-102.5 276t102.5 275t277.5 102q176 0 279 -102t103 -275q0 -174 -103 -276.5t-279 -102.5zM508 1090q89 0 138.5 58t49.5 152t-49.5 151t-138.5 57t-138.5 -57t-49.5 -151t49.5 -152t138.5 -58z" />
    <glyph glyph-name="plusminus" unicode="&#xb1;" horiz-adv-x="865" 
d="M124 0v189h616v-189h-616zM337 365v216h-213v186h213v216h191v-216h212v-186h-212v-216h-191z" />
    <glyph glyph-name="uni00B2" unicode="&#xb2;" horiz-adv-x="896" 
d="M161 618v153l293 458q10 15 36.5 54.5t37.5 58.5t27 51.5t22.5 64t6.5 66.5q0 71 -25 108t-78 34q-30 -1 -53 -31.5t-34 -73.5t-16 -78.5t-5 -59.5h-204v51q0 171 74.5 268t235.5 97q151 0 230 -83t79 -234q0 -28 -4 -56t-7.5 -48.5t-15 -48.5t-17 -42t-23 -44t-23 -38.5
l-27.5 -42.5t-26 -40l-244 -376h356v-168h-596z" />
    <glyph glyph-name="uni00B3" unicode="&#xb3;" horiz-adv-x="895" 
d="M487 602q-180 0 -255.5 94t-75.5 279v66h221v-71q0 -180 107 -180q109 0 109 159q0 92 -33 145.5t-103 53.5h-75v156h70q73 0 107 56t34 150q0 151 -111 151q-52 0 -78 -39.5t-26 -111.5v-98h-222v97q0 153 85 241t238 88q159 0 243 -83t84 -246q0 -99 -46 -174.5
t-105 -90.5q65 -25 108 -91.5t43 -185.5q0 -172 -79 -268.5t-240 -96.5z" />
    <glyph glyph-name="acute" unicode="&#xb4;" horiz-adv-x="610" 
d="M115 1249l122 409h283l-247 -409h-158z" />
    <glyph glyph-name="mu" unicode="&#xb5;" horiz-adv-x="956" 
d="M97 -370l-2 1554h280v-884q0 -56 16 -83t62 -26q48 0 120 51v942h279v-1184h-279v105q-84 -77 -170 -104q-5 -2 -14 -4.5t-13 -3.5l1 -363h-280z" />
    <glyph glyph-name="paragraph" unicode="&#xb6;" horiz-adv-x="1036" 
d="M397 -196v1224q-148 2 -237.5 84t-89.5 229q0 165 104 241t282 76h448v-1854h-175v1710h-152v-1710h-180z" />
    <glyph glyph-name="periodcentered" unicode="&#xb7;" horiz-adv-x="400" 
d="M65 636v269h271v-269h-271z" />
    <glyph glyph-name="cedilla" unicode="&#xb8;" horiz-adv-x="547" 
d="M81 -504v129q48 -14 101.5 -16.5t96 14t43.5 52.5q0 29 -15 50.5t-46 35t-56.5 20.5t-65.5 15v204h121v-126q104 -10 178.5 -60t77.5 -130q3 -72 -36 -122t-102.5 -70.5t-141.5 -20t-155 24.5z" />
    <glyph glyph-name="uni00B9" unicode="&#xb9;" horiz-adv-x="878" 
d="M392 616l-1 954l-210 -42v154q203 59 259 130h157l1 -1196h-206z" />
    <glyph glyph-name="ordmasculine" unicode="&#xba;" horiz-adv-x="953" 
d="M474 830q27 0 46.5 10.5t30 26t16.5 43t7.5 52t1.5 61.5v280q0 38 -1.5 62.5t-7 51.5t-16.5 42.5t-30 26t-47 10.5q-34 0 -55.5 -14.5t-32 -43.5t-14 -59.5t-3.5 -75.5v-280q0 -45 3.5 -75.5t14 -59.5t32 -43.5t55.5 -14.5zM476 642q-169 0 -253 94t-84 270v315
q0 176 84 269.5t253 93.5q164 0 251 -96.5t87 -266.5v-315q0 -170 -87 -267t-251 -97z" />
    <glyph glyph-name="guillemotright" unicode="&#xbb;" horiz-adv-x="1010" 
d="M536 64v308l191 229l-191 226v309l376 -478v-117zM107 64v308l192 229l-192 226v309l378 -478v-117z" />
    <glyph glyph-name="onequarter" unicode="&#xbc;" horiz-adv-x="1551" 
d="M1002 368h153v276zM323 0l636 1658h184l-637 -1658h-183zM233 829v547l-120 -25v134q149 78 225 173h81v-829h-186zM1155 1v233h-285v130l303 512h156v-508h113v-134h-113v-233h-174z" />
    <glyph glyph-name="onehalf" unicode="&#xbd;" horiz-adv-x="1551" 
d="M308 0l636 1658h184l-637 -1658h-183zM210 829v547l-120 -25v134q147 76 225 173h81v-829h-186zM953 2v131l184 253q3 4 29 39t33.5 47t23.5 41t21.5 52.5t5.5 49.5q0 48 -12.5 75.5t-50.5 27.5q-74 0 -62 -134h-178q-2 24 -2 39q3 106 65.5 167t174.5 61
q115 0 179 -61.5t64 -172.5q0 -82 -40.5 -155.5t-120.5 -173.5q-58 -64 -124 -155h278v-131h-468z" />
    <glyph glyph-name="threequarters" unicode="&#xbe;" horiz-adv-x="1551" 
d="M1047 368h153v276zM375 0l636 1658h184l-637 -1658h-183zM1200 1v233h-286v130l304 512h156v-508h113v-134h-113v-233h-174zM330 867q-110 0 -170.5 62t-60.5 171h165q0 -51 13 -78.5t50 -27.5q35 0 45.5 27t10.5 79q0 62 -26 85t-95 23v119q69 0 95.5 23.5t26.5 85.5
q0 26 -1.5 42.5t-7 33t-18 24.5t-31.5 8q-27 0 -41.5 -16t-17.5 -36t-3 -54h-165q0 114 61 174t172 60q108 0 164.5 -60t56.5 -170q0 -76 -43.5 -120.5t-112.5 -49.5q158 -16 158 -171q0 -112 -58 -173t-167 -61z" />
    <glyph glyph-name="questiondown" unicode="&#xbf;" horiz-adv-x="1066" 
d="M489 1032v272h276v-272h-276zM567 -378q-209 0 -322 111t-113 312q0 95 29.5 185t85.5 170.5t115 144.5t141 137v198h253v-260q-76 -67 -132.5 -127.5t-110 -135t-81 -156.5t-24.5 -165q1 -79 44.5 -125t112.5 -46t104 43.5t27 114.5q0 14 -5.5 44.5t-10.5 43.5l257 53
q21 -81 21 -116q26 -191 -78 -308.5t-313 -117.5z" />
    <glyph glyph-name="Agrave" unicode="&#xc0;" horiz-adv-x="1065" 
d="M453 1799l-247 409h284l121 -409h-158zM423 582h222l-111 681zM38 0l337 1658h315l336 -1658h-281l-67 385h-287l-68 -385h-285z" />
    <glyph glyph-name="Aacute" unicode="&#xc1;" horiz-adv-x="1065" 
d="M452 1799l122 409h283l-246 -409h-159zM423 582h222l-111 681zM38 0l337 1658h315l336 -1658h-281l-67 385h-287l-68 -385h-285z" />
    <glyph glyph-name="Acircumflex" unicode="&#xc2;" horiz-adv-x="1065" 
d="M219 1799l184 372h254l187 -372h-208l-105 240l-105 -240h-207zM423 582h222l-111 681zM38 0l337 1658h315l336 -1658h-281l-67 385h-287l-68 -385h-285z" />
    <glyph glyph-name="Atilde" unicode="&#xc3;" horiz-adv-x="1065" 
d="M694 1799q-42 -2 -99 23t-108.5 50.5t-78.5 25.5q-51 0 -51 -83h-146q0 121 39.5 187.5t137.5 70.5q47 2 104.5 -21.5t104.5 -48t67 -25.5q27 -2 38 17.5t11 62.5h139q0 -55 -7 -97.5t-23.5 -80.5t-48.5 -59t-79 -22zM423 582h222l-111 681zM38 0l337 1658h315l336 -1658
h-281l-67 385h-287l-68 -385h-285z" />
    <glyph glyph-name="Adieresis" unicode="&#xc4;" horiz-adv-x="1065" 
d="M602 1799v266h252v-266h-252zM209 1799v266h251v-266h-251zM423 582h222l-111 681zM38 0l337 1658h315l336 -1658h-281l-67 385h-287l-68 -385h-285z" />
    <glyph glyph-name="Aring" unicode="&#xc5;" horiz-adv-x="1065" 
d="M531 1780q52 0 81.5 31.5t29.5 82.5t-29.5 82.5t-81.5 31.5t-81.5 -31.5t-29.5 -82.5t29.5 -82.5t81.5 -31.5zM531 1661q-106 0 -171.5 63t-65.5 170t66 169.5t171 62.5q106 0 172.5 -62.5t66.5 -169.5t-66.5 -170t-172.5 -63zM423 582h222l-111 681zM38 0l337 1658h315
l336 -1658h-281l-67 385h-287l-68 -385h-285z" />
    <glyph glyph-name="AE" unicode="&#xc6;" horiz-adv-x="1366" 
d="M447 586h212v564zM-79 0l714 1648h681v-210h-386v-474h275v-213h-275v-542h386v-209h-657v384h-283l-161 -384h-294z" />
    <glyph glyph-name="Ccedilla" unicode="&#xc7;" horiz-adv-x="1102" 
d="M441 -504v129q48 -14 101.5 -16.5t96 14t43.5 52.5q0 29 -15 50.5t-46 35t-56.5 20.5t-65.5 15v204h121v-126q104 -10 178.5 -60t77.5 -130q3 -72 -36 -122t-102.5 -70.5t-141.5 -20t-155 24.5zM569 -20q-107 0 -189 27t-135.5 75t-87 119t-47 152.5t-13.5 183.5v578
q0 108 14 191.5t47 155t86.5 117.5t135 72t189.5 26q124 0 212 -33t139 -97t74 -149.5t23 -199.5v-142h-291v141q0 124 -13 167q-26 84 -127 90h-16q-38 0 -66.5 -9t-46.5 -28.5t-29 -41.5t-16.5 -57.5t-7 -65.5t-1.5 -76v-702q0 -146 36.5 -208t130.5 -62q32 0 56.5 7.5
t41 19t28 33t17.5 40t9 51.5t3.5 56t0.5 63v148h291v-136q0 -93 -13 -167t-44.5 -139t-81.5 -108t-128 -67.5t-181 -24.5z" />
    <glyph glyph-name="Egrave" unicode="&#xc8;" 
d="M394 1799l-247 409h284l121 -409h-158zM124 0v1658h694v-213h-392v-476h310v-213h-310v-547h397v-209h-699z" />
    <glyph glyph-name="Eacute" unicode="&#xc9;" 
d="M394 1799l122 409h283l-246 -409h-159zM124 0v1658h694v-213h-392v-476h310v-213h-310v-547h397v-209h-699z" />
    <glyph glyph-name="Ecircumflex" unicode="&#xca;" 
d="M161 1799l184 372h254l187 -372h-208l-105 240l-105 -240h-207zM124 0v1658h694v-213h-392v-476h310v-213h-310v-547h397v-209h-699z" />
    <glyph glyph-name="Edieresis" unicode="&#xcb;" 
d="M544 1799v266h252v-266h-252zM151 1799v266h251v-266h-251zM124 0v1658h694v-213h-392v-476h310v-213h-310v-547h397v-209h-699z" />
    <glyph glyph-name="Igrave" unicode="&#xcc;" horiz-adv-x="562" 
d="M203 1799l-247 409h284l121 -409h-158zM133 0v1658h298v-1658h-298z" />
    <glyph glyph-name="Iacute" unicode="&#xcd;" horiz-adv-x="562" 
d="M202 1799l122 409h283l-246 -409h-159zM133 0v1658h298v-1658h-298z" />
    <glyph glyph-name="Icircumflex" unicode="&#xce;" horiz-adv-x="562" 
d="M-31 1799l184 372h254l187 -372h-208l-105 240l-105 -240h-207zM133 0v1658h298v-1658h-298z" />
    <glyph glyph-name="Idieresis" unicode="&#xcf;" horiz-adv-x="562" 
d="M352 1799v266h252v-266h-252zM-41 1799v266h251v-266h-251zM133 0v1658h298v-1658h-298z" />
    <glyph glyph-name="Eth" unicode="&#xd0;" horiz-adv-x="1091" 
d="M117 0v775h-93v159h93v724h386q150 0 251 -30t162 -95t86.5 -159.5t25.5 -232.5v-598q0 -142 -26 -241t-85.5 -168t-158.5 -101.5t-243 -32.5h-398zM419 212h86q45 0 79 8t57 19t38.5 36t23.5 46t12 63.5t5 72.5t1 89v606q0 70 -3.5 111t-15.5 80t-36 58t-64 30t-101 11
h-82v-508h99v-159h-99v-563z" />
    <glyph glyph-name="Ntilde" unicode="&#xd1;" horiz-adv-x="1112" 
d="M718 1799q-42 -2 -99 23t-108.5 50.5t-78.5 25.5q-51 0 -51 -83h-146q0 121 39.5 187.5t137.5 70.5q47 2 104.5 -21.5t104.5 -48t67 -25.5q27 -2 38 17.5t11 62.5h139q0 -55 -7 -97.5t-23.5 -80.5t-48.5 -59t-79 -22zM124 0v1658h208l406 -939v939h250v-1658h-198
l-410 987v-987h-256z" />
    <glyph glyph-name="Ograve" unicode="&#xd2;" horiz-adv-x="1150" 
d="M496 1799l-247 409h284l121 -409h-158zM575 -20q-256 0 -367 139t-111 407v612q0 132 25 229t80.5 168t148.5 106.5t224 35.5q255 0 366.5 -137t111.5 -402v-612q0 -130 -25.5 -228.5t-81 -171t-148.5 -109.5t-223 -37zM575 204q44 0 75 13t49.5 34t29 55t14 68t3.5 81
v753q0 60 -6 100t-23.5 75.5t-52.5 53t-89 17.5t-89.5 -17.5t-52.5 -53t-23 -75.5t-6 -100v-753q0 -47 3.5 -81t14 -68t28.5 -55t49.5 -34t75.5 -13z" />
    <glyph glyph-name="Oacute" unicode="&#xd3;" horiz-adv-x="1150" 
d="M496 1799l122 409h283l-246 -409h-159zM575 -20q-256 0 -367 139t-111 407v612q0 132 25 229t80.5 168t148.5 106.5t224 35.5q255 0 366.5 -137t111.5 -402v-612q0 -130 -25.5 -228.5t-81 -171t-148.5 -109.5t-223 -37zM575 204q44 0 75 13t49.5 34t29 55t14 68t3.5 81
v753q0 60 -6 100t-23.5 75.5t-52.5 53t-89 17.5t-89.5 -17.5t-52.5 -53t-23 -75.5t-6 -100v-753q0 -47 3.5 -81t14 -68t28.5 -55t49.5 -34t75.5 -13z" />
    <glyph glyph-name="Ocircumflex" unicode="&#xd4;" horiz-adv-x="1150" 
d="M263 1799l184 372h254l187 -372h-208l-105 240l-105 -240h-207zM575 -20q-256 0 -367 139t-111 407v612q0 132 25 229t80.5 168t148.5 106.5t224 35.5q255 0 366.5 -137t111.5 -402v-612q0 -130 -25.5 -228.5t-81 -171t-148.5 -109.5t-223 -37zM575 204q44 0 75 13
t49.5 34t29 55t14 68t3.5 81v753q0 60 -6 100t-23.5 75.5t-52.5 53t-89 17.5t-89.5 -17.5t-52.5 -53t-23 -75.5t-6 -100v-753q0 -47 3.5 -81t14 -68t28.5 -55t49.5 -34t75.5 -13z" />
    <glyph glyph-name="Otilde" unicode="&#xd5;" horiz-adv-x="1150" 
d="M738 1799q-42 -2 -99 23t-108.5 50.5t-78.5 25.5q-51 0 -51 -83h-146q0 121 39.5 187.5t137.5 70.5q47 2 104.5 -21.5t104.5 -48t67 -25.5q27 -2 38 17.5t11 62.5h139q0 -55 -7 -97.5t-23.5 -80.5t-48.5 -59t-79 -22zM575 -20q-256 0 -367 139t-111 407v612q0 132 25 229
t80.5 168t148.5 106.5t224 35.5q255 0 366.5 -137t111.5 -402v-612q0 -130 -25.5 -228.5t-81 -171t-148.5 -109.5t-223 -37zM575 204q44 0 75 13t49.5 34t29 55t14 68t3.5 81v753q0 60 -6 100t-23.5 75.5t-52.5 53t-89 17.5t-89.5 -17.5t-52.5 -53t-23 -75.5t-6 -100v-753
q0 -47 3.5 -81t14 -68t28.5 -55t49.5 -34t75.5 -13z" />
    <glyph glyph-name="Odieresis" unicode="&#xd6;" horiz-adv-x="1150" 
d="M646 1799v266h252v-266h-252zM253 1799v266h251v-266h-251zM575 -20q-256 0 -367 139t-111 407v612q0 132 25 229t80.5 168t148.5 106.5t224 35.5q255 0 366.5 -137t111.5 -402v-612q0 -130 -25.5 -228.5t-81 -171t-148.5 -109.5t-223 -37zM575 204q44 0 75 13t49.5 34
t29 55t14 68t3.5 81v753q0 60 -6 100t-23.5 75.5t-52.5 53t-89 17.5t-89.5 -17.5t-52.5 -53t-23 -75.5t-6 -100v-753q0 -47 3.5 -81t14 -68t28.5 -55t49.5 -34t75.5 -13z" />
    <glyph glyph-name="multiply" unicode="&#xd7;" horiz-adv-x="885" 
d="M241 496l-134 133l202 203l-202 202l133 134l203 -202l202 202l133 -133l-203 -203l203 -203l-132 -133l-203 202z" />
    <glyph glyph-name="Oslash" unicode="&#xd8;" horiz-adv-x="1138" 
d="M404 470l294 941q-20 21 -50 32t-73 11q-54 0 -89.5 -17.5t-52.5 -53t-23 -75.5t-6 -100v-738zM575 204q44 0 75 13t49.5 34t29 55t14 68t3.5 81v753v15.5t-0.5 14.5t-0.5 14.5t-1 13.5l-310 -991q39 -71 141 -71zM298 -161l-82 29l59 190q-178 124 -178 468v612
q0 132 25 229t80.5 168t148.5 106.5t224 35.5q57 0 106 -7t91 -20l48 153l84 -26l-51 -163q105 -61 152.5 -180.5t47.5 -295.5v-612q0 -130 -25.5 -228.5t-81 -171t-148.5 -109.5t-223 -37q-65 0 -120.5 9t-101.5 27z" />
    <glyph glyph-name="Ugrave" unicode="&#xd9;" horiz-adv-x="1154" 
d="M498 1799l-247 409h284l121 -409h-158zM578 -20q-111 0 -192.5 26t-134 73t-84 120.5t-44 159t-12.5 198.5v1101h293v-1132q0 -58 3 -99t13 -86t28.5 -72t51 -45t78.5 -18t78.5 18t50 45t28 72t13 85.5t2.5 99.5v1132h293v-1101q0 -113 -12.5 -198.5t-44 -159
t-83.5 -120.5t-133.5 -73t-191.5 -26z" />
    <glyph glyph-name="Uacute" unicode="&#xda;" horiz-adv-x="1154" 
d="M498 1799l122 409h283l-246 -409h-159zM578 -20q-111 0 -192.5 26t-134 73t-84 120.5t-44 159t-12.5 198.5v1101h293v-1132q0 -58 3 -99t13 -86t28.5 -72t51 -45t78.5 -18t78.5 18t50 45t28 72t13 85.5t2.5 99.5v1132h293v-1101q0 -113 -12.5 -198.5t-44 -159
t-83.5 -120.5t-133.5 -73t-191.5 -26z" />
    <glyph glyph-name="Ucircumflex" unicode="&#xdb;" horiz-adv-x="1154" 
d="M265 1799l184 372h254l187 -372h-208l-105 240l-105 -240h-207zM578 -20q-111 0 -192.5 26t-134 73t-84 120.5t-44 159t-12.5 198.5v1101h293v-1132q0 -58 3 -99t13 -86t28.5 -72t51 -45t78.5 -18t78.5 18t50 45t28 72t13 85.5t2.5 99.5v1132h293v-1101
q0 -113 -12.5 -198.5t-44 -159t-83.5 -120.5t-133.5 -73t-191.5 -26z" />
    <glyph glyph-name="Udieresis" unicode="&#xdc;" horiz-adv-x="1154" 
d="M648 1799v266h252v-266h-252zM255 1799v266h251v-266h-251zM578 -20q-111 0 -192.5 26t-134 73t-84 120.5t-44 159t-12.5 198.5v1101h293v-1132q0 -58 3 -99t13 -86t28.5 -72t51 -45t78.5 -18t78.5 18t50 45t28 72t13 85.5t2.5 99.5v1132h293v-1101q0 -113 -12.5 -198.5
t-44 -159t-83.5 -120.5t-133.5 -73t-191.5 -26z" />
    <glyph glyph-name="Yacute" unicode="&#xdd;" horiz-adv-x="1001" 
d="M420 1799l122 409h283l-246 -409h-159zM357 0v631l-338 1027h282l205 -660l196 660h279l-336 -1027v-631h-288z" />
    <glyph glyph-name="Thorn" unicode="&#xde;" horiz-adv-x="1082" 
d="M419 702h117q126 0 179 55.5t53 200.5q0 135 -47 191.5t-163 56.5h-139v-504zM117 0v1658h302v-219h197q221 0 328.5 -119t107.5 -356q0 -262 -113.5 -375t-355.5 -114l-164 -1v-474h-302z" />
    <glyph glyph-name="germandbls" unicode="&#xdf;" horiz-adv-x="1085" 
d="M495 -23v222q127 0 177 66.5t45 220.5q-2 114 -59 182t-156 68l-1 223q86 0 127 76.5t41 201.5q0 111 -33.5 170t-112.5 59q-78 0 -107.5 -57.5t-28.5 -164.5v-1244h-280v1241q0 92 23 169t68.5 138t120.5 95.5t174 34.5q217 0 324 -113t107 -326q0 -134 -53 -223
t-166 -143q136 -38 213.5 -145.5t77.5 -258.5q0 -251 -125.5 -371.5t-375.5 -120.5z" />
    <glyph glyph-name="agrave" unicode="&#xe0;" horiz-adv-x="927" 
d="M386 1324l-247 409h284l121 -409h-158zM442 198q32 0 63.5 24t50.5 49v326q-208 -115 -208 -261q0 -64 24.5 -101t69.5 -37zM335 -19q-112 1 -183.5 87.5t-71.5 195.5q0 103 34 180t111.5 132t128.5 80t157 66l45 18v99q0 80 -18.5 117t-75.5 37q-93 0 -95 -130l-4 -74
l-268 10q0 6 0.5 22t0.5 21q13 186 110.5 273t278.5 87q175 0 259.5 -95t84.5 -269v-541q0 -136 22 -297h-253q-23 116 -29 174q-25 -82 -83.5 -137.5t-150.5 -55.5z" />
    <glyph glyph-name="aacute" unicode="&#xe1;" horiz-adv-x="927" 
d="M386 1324l122 409h283l-246 -409h-159zM442 198q32 0 63.5 24t50.5 49v326q-208 -115 -208 -261q0 -64 24.5 -101t69.5 -37zM335 -19q-112 1 -183.5 87.5t-71.5 195.5q0 103 34 180t111.5 132t128.5 80t157 66l45 18v99q0 80 -18.5 117t-75.5 37q-93 0 -95 -130l-4 -74
l-268 10q0 6 0.5 22t0.5 21q13 186 110.5 273t278.5 87q175 0 259.5 -95t84.5 -269v-541q0 -136 22 -297h-253q-23 116 -29 174q-25 -82 -83.5 -137.5t-150.5 -55.5z" />
    <glyph glyph-name="acircumflex" unicode="&#xe2;" horiz-adv-x="927" 
d="M153 1324l184 372h254l187 -372h-208l-105 240l-105 -240h-207zM442 198q32 0 63.5 24t50.5 49v326q-208 -115 -208 -261q0 -64 24.5 -101t69.5 -37zM335 -19q-112 1 -183.5 87.5t-71.5 195.5q0 103 34 180t111.5 132t128.5 80t157 66l45 18v99q0 80 -18.5 117t-75.5 37
q-93 0 -95 -130l-4 -74l-268 10q0 6 0.5 22t0.5 21q13 186 110.5 273t278.5 87q175 0 259.5 -95t84.5 -269v-541q0 -136 22 -297h-253q-23 116 -29 174q-25 -82 -83.5 -137.5t-150.5 -55.5z" />
    <glyph glyph-name="atilde" unicode="&#xe3;" horiz-adv-x="927" 
d="M628 1324q-42 -2 -99 23t-108.5 50.5t-78.5 25.5q-51 0 -51 -83h-146q0 121 39.5 187.5t137.5 70.5q47 2 104.5 -21.5t104.5 -48t67 -25.5q27 -2 38 17.5t11 62.5h139q0 -55 -7 -97.5t-23.5 -80.5t-48.5 -59t-79 -22zM442 198q32 0 63.5 24t50.5 49v326
q-208 -115 -208 -261q0 -64 24.5 -101t69.5 -37zM335 -19q-112 1 -183.5 87.5t-71.5 195.5q0 103 34 180t111.5 132t128.5 80t157 66l45 18v99q0 80 -18.5 117t-75.5 37q-93 0 -95 -130l-4 -74l-268 10q0 6 0.5 22t0.5 21q13 186 110.5 273t278.5 87q175 0 259.5 -95
t84.5 -269v-541q0 -136 22 -297h-253q-23 116 -29 174q-25 -82 -83.5 -137.5t-150.5 -55.5z" />
    <glyph glyph-name="adieresis" unicode="&#xe4;" horiz-adv-x="927" 
d="M536 1324v266h252v-266h-252zM143 1324v266h251v-266h-251zM442 198q32 0 63.5 24t50.5 49v326q-208 -115 -208 -261q0 -64 24.5 -101t69.5 -37zM335 -19q-112 1 -183.5 87.5t-71.5 195.5q0 103 34 180t111.5 132t128.5 80t157 66l45 18v99q0 80 -18.5 117t-75.5 37
q-93 0 -95 -130l-4 -74l-268 10q0 6 0.5 22t0.5 21q13 186 110.5 273t278.5 87q175 0 259.5 -95t84.5 -269v-541q0 -136 22 -297h-253q-23 116 -29 174q-25 -82 -83.5 -137.5t-150.5 -55.5z" />
    <glyph glyph-name="aring" unicode="&#xe5;" horiz-adv-x="927" 
d="M464 1443q52 0 81.5 31.5t29.5 82.5t-29.5 82.5t-81.5 31.5t-81.5 -31.5t-29.5 -82.5t29.5 -82.5t81.5 -31.5zM464 1324q-106 0 -171.5 63t-65.5 170t66 169.5t171 62.5q106 0 172.5 -62.5t66.5 -169.5t-66.5 -170t-172.5 -63zM442 198q32 0 63.5 24t50.5 49v326
q-208 -115 -208 -261q0 -64 24.5 -101t69.5 -37zM335 -19q-112 1 -183.5 87.5t-71.5 195.5q0 103 34 180t111.5 132t128.5 80t157 66l45 18v99q0 80 -18.5 117t-75.5 37q-93 0 -95 -130l-4 -74l-268 10q0 6 0.5 22t0.5 21q13 186 110.5 273t278.5 87q175 0 259.5 -95
t84.5 -269v-541q0 -136 22 -297h-253q-23 116 -29 174q-25 -82 -83.5 -137.5t-150.5 -55.5z" />
    <glyph glyph-name="ae" unicode="&#xe6;" horiz-adv-x="1361" 
d="M824 720q18 3 55.5 11.5t42.5 13.5q56 15 81.5 41t25.5 87q0 63 -24.5 100t-74.5 37q-54 0 -80 -45.5t-26 -119.5v-125zM432 184q52 0 86.5 54.5t34.5 156.5l-1 145q-46 -14 -75 -28q-65 -32 -101.5 -83.5t-36.5 -112.5q0 -55 25.5 -93.5t67.5 -38.5zM344 -20
q-114 5 -190.5 86.5t-76.5 201.5q0 86 25 152t71 109t100 70t123 44q149 35 156 36v155q0 76 -21.5 115.5t-76.5 39.5q-54 0 -77 -43t-23 -130h-276q1 186 95 292.5t270 106.5q90 0 155 -40t85 -107q31 64 97 105t152 41q166 0 253.5 -96.5t87.5 -250.5q0 -53 -20 -95
t-48.5 -68t-76 -46.5t-86.5 -31t-95 -22.5q-5 -1 -60.5 -11t-61.5 -11v-109v-26q-1 -22 -0.5 -44.5t1 -44.5t3.5 -43t7 -39.5t11.5 -34t17 -26.5t23.5 -17.5t32 -6.5q28 0 46 13t26 39.5t10.5 52t2.5 65.5v53h268v-67q0 -176 -86.5 -271.5t-256.5 -95.5q-101 0 -177 59.5
t-92 156.5q-45 -103 -127.5 -162.5t-189.5 -53.5z" />
    <glyph glyph-name="ccedilla" unicode="&#xe7;" horiz-adv-x="899" 
d="M341 -504v129q48 -14 101.5 -16.5t96 14t43.5 52.5q0 29 -15 50.5t-46 35t-56.5 20.5t-65.5 15v204h121v-126q104 -10 178.5 -60t77.5 -130q3 -72 -36 -122t-102.5 -70.5t-141.5 -20t-155 24.5zM462 -19q-201 0 -289 113t-88 327v343q0 214 88 326t289 112
q189 0 274.5 -89t85.5 -276v-96h-261v101q0 90 -21.5 125.5t-74.5 35.5q-59 0 -79.5 -42t-20.5 -156v-432q0 -113 22.5 -152.5t77.5 -39.5q56 0 76 38.5t20 116.5v127h261v-112q0 -184 -87.5 -277t-272.5 -93z" />
    <glyph glyph-name="egrave" unicode="&#xe8;" horiz-adv-x="915" 
d="M379 1324l-247 409h284l121 -409h-158zM363 718h202v113q0 90 -22.5 129t-79.5 39q-58 0 -79 -44t-21 -160v-77zM466 -19q-203 0 -292 112t-89 331v335q0 219 90 331t290 112q106 0 178.5 -31t113 -94t57.5 -145.5t17 -198.5v-155h-468v-178q0 -37 0.5 -57.5t3.5 -49.5
t9.5 -45t17.5 -32.5t29 -23.5t42 -7q56 0 78 39.5t22 114.5v68h265v-47q0 -184 -91.5 -281.5t-272.5 -97.5z" />
    <glyph glyph-name="eacute" unicode="&#xe9;" horiz-adv-x="915" 
d="M378 1324l122 409h283l-246 -409h-159zM363 718h202v113q0 90 -22.5 129t-79.5 39q-58 0 -79 -44t-21 -160v-77zM466 -19q-203 0 -292 112t-89 331v335q0 219 90 331t290 112q106 0 178.5 -31t113 -94t57.5 -145.5t17 -198.5v-155h-468v-178q0 -37 0.5 -57.5t3.5 -49.5
t9.5 -45t17.5 -32.5t29 -23.5t42 -7q56 0 78 39.5t22 114.5v68h265v-47q0 -184 -91.5 -281.5t-272.5 -97.5z" />
    <glyph glyph-name="ecircumflex" unicode="&#xea;" horiz-adv-x="915" 
d="M145 1324l184 372h254l187 -372h-208l-105 240l-105 -240h-207zM363 718h202v113q0 90 -22.5 129t-79.5 39q-58 0 -79 -44t-21 -160v-77zM466 -19q-203 0 -292 112t-89 331v335q0 219 90 331t290 112q106 0 178.5 -31t113 -94t57.5 -145.5t17 -198.5v-155h-468v-178
q0 -37 0.5 -57.5t3.5 -49.5t9.5 -45t17.5 -32.5t29 -23.5t42 -7q56 0 78 39.5t22 114.5v68h265v-47q0 -184 -91.5 -281.5t-272.5 -97.5z" />
    <glyph glyph-name="edieresis" unicode="&#xeb;" horiz-adv-x="915" 
d="M528 1324v266h252v-266h-252zM135 1324v266h251v-266h-251zM363 718h202v113q0 90 -22.5 129t-79.5 39q-58 0 -79 -44t-21 -160v-77zM466 -19q-203 0 -292 112t-89 331v335q0 219 90 331t290 112q106 0 178.5 -31t113 -94t57.5 -145.5t17 -198.5v-155h-468v-178
q0 -37 0.5 -57.5t3.5 -49.5t9.5 -45t17.5 -32.5t29 -23.5t42 -7q56 0 78 39.5t22 114.5v68h265v-47q0 -184 -91.5 -281.5t-272.5 -97.5z" />
    <glyph glyph-name="igrave" unicode="&#xec;" horiz-adv-x="517" 
d="M184 1324l-247 409h284l121 -409h-158zM123 0v1184h279v-1184h-279z" />
    <glyph glyph-name="iacute" unicode="&#xed;" horiz-adv-x="517" 
d="M183 1324l122 409h283l-246 -409h-159zM123 0v1184h279v-1184h-279z" />
    <glyph glyph-name="icircumflex" unicode="&#xee;" horiz-adv-x="517" 
d="M-50 1324l184 372h254l187 -372h-208l-105 240l-105 -240h-207zM123 0v1184h279v-1184h-279z" />
    <glyph glyph-name="idieresis" unicode="&#xef;" horiz-adv-x="517" 
d="M333 1324v266h252v-266h-252zM-60 1324v266h251v-266h-251zM123 0v1184h279v-1184h-279z" />
    <glyph glyph-name="eth" unicode="&#xf0;" horiz-adv-x="1016" 
d="M384 592q0 -32 -1 -75t-1.5 -71t-0.5 -63t2.5 -58t7 -48.5t13.5 -41.5t21.5 -29.5t31.5 -19.5t43 -6q41 0 67.5 15.5t39.5 47t17.5 66t4.5 86.5v512q-1 1 -9 8t-12.5 11t-15.5 11t-21 11t-24.5 7t-30.5 3q-78 0 -105 -81t-27 -285zM908 465q0 -487 -413 -487
q-207 0 -297.5 115.5t-90.5 354.5v226q0 106 19 192.5t58 154t105.5 104.5t156.5 37q105 0 181 -60q-10 178 -63 252l-218 -85l-16 104l176 68q-75 78 -297 78l12 178q190 0 308 -40.5t185 -123.5l220 84l16 -105l-176 -65q52 -96 93 -262.5t41 -343.5v-376z" />
    <glyph glyph-name="ntilde" unicode="&#xf1;" horiz-adv-x="970" 
d="M651 1324q-42 -2 -99 23t-108.5 50.5t-78.5 25.5q-51 0 -51 -83h-146q0 121 39.5 187.5t137.5 70.5q47 2 104.5 -21.5t104.5 -48t67 -25.5q27 -2 38 17.5t11 62.5h139q0 -55 -7 -97.5t-23.5 -80.5t-48.5 -59t-79 -22zM107 0v1184h280v-116q143 134 289 134
q101 0 147.5 -74t46.5 -182v-946h-280v884q0 56 -16 83t-62 26q-52 -1 -125 -54v-939h-280z" />
    <glyph glyph-name="ograve" unicode="&#xf2;" horiz-adv-x="929" 
d="M386 1324l-247 409h284l121 -409h-158zM463 -19q-191 0 -284.5 107.5t-93.5 307.5v391q0 200 93.5 307.5t284.5 107.5q192 0 286.5 -107.5t94.5 -307.5v-391q0 -200 -94.5 -307.5t-286.5 -107.5zM464 178q34 0 55.5 15t31 46.5t12.5 61t3 76.5v429q0 37 -1.5 61.5
t-7 53.5t-16.5 45.5t-30 28t-47 11.5q-34 0 -55.5 -15.5t-31 -47t-12.5 -61t-3 -76.5v-429q0 -37 1.5 -61.5t7 -53t16.5 -45t30 -28t47 -11.5z" />
    <glyph glyph-name="oacute" unicode="&#xf3;" horiz-adv-x="929" 
d="M385 1324l122 409h283l-246 -409h-159zM463 -19q-191 0 -284.5 107.5t-93.5 307.5v391q0 200 93.5 307.5t284.5 107.5q192 0 286.5 -107.5t94.5 -307.5v-391q0 -200 -94.5 -307.5t-286.5 -107.5zM464 178q34 0 55.5 15t31 46.5t12.5 61t3 76.5v429q0 37 -1.5 61.5
t-7 53.5t-16.5 45.5t-30 28t-47 11.5q-34 0 -55.5 -15.5t-31 -47t-12.5 -61t-3 -76.5v-429q0 -37 1.5 -61.5t7 -53t16.5 -45t30 -28t47 -11.5z" />
    <glyph glyph-name="ocircumflex" unicode="&#xf4;" horiz-adv-x="929" 
d="M152 1324l184 372h254l187 -372h-208l-105 240l-105 -240h-207zM463 -19q-191 0 -284.5 107.5t-93.5 307.5v391q0 200 93.5 307.5t284.5 107.5q192 0 286.5 -107.5t94.5 -307.5v-391q0 -200 -94.5 -307.5t-286.5 -107.5zM464 178q34 0 55.5 15t31 46.5t12.5 61t3 76.5
v429q0 37 -1.5 61.5t-7 53.5t-16.5 45.5t-30 28t-47 11.5q-34 0 -55.5 -15.5t-31 -47t-12.5 -61t-3 -76.5v-429q0 -37 1.5 -61.5t7 -53t16.5 -45t30 -28t47 -11.5z" />
    <glyph glyph-name="otilde" unicode="&#xf5;" horiz-adv-x="929" 
d="M627 1324q-42 -2 -99 23t-108.5 50.5t-78.5 25.5q-51 0 -51 -83h-146q0 121 39.5 187.5t137.5 70.5q47 2 104.5 -21.5t104.5 -48t67 -25.5q27 -2 38 17.5t11 62.5h139q0 -55 -7 -97.5t-23.5 -80.5t-48.5 -59t-79 -22zM463 -19q-191 0 -284.5 107.5t-93.5 307.5v391
q0 200 93.5 307.5t284.5 107.5q192 0 286.5 -107.5t94.5 -307.5v-391q0 -200 -94.5 -307.5t-286.5 -107.5zM464 178q34 0 55.5 15t31 46.5t12.5 61t3 76.5v429q0 37 -1.5 61.5t-7 53.5t-16.5 45.5t-30 28t-47 11.5q-34 0 -55.5 -15.5t-31 -47t-12.5 -61t-3 -76.5v-429
q0 -37 1.5 -61.5t7 -53t16.5 -45t30 -28t47 -11.5z" />
    <glyph glyph-name="odieresis" unicode="&#xf6;" horiz-adv-x="929" 
d="M535 1324v266h252v-266h-252zM142 1324v266h251v-266h-251zM463 -19q-191 0 -284.5 107.5t-93.5 307.5v391q0 200 93.5 307.5t284.5 107.5q192 0 286.5 -107.5t94.5 -307.5v-391q0 -200 -94.5 -307.5t-286.5 -107.5zM464 178q34 0 55.5 15t31 46.5t12.5 61t3 76.5v429
q0 37 -1.5 61.5t-7 53.5t-16.5 45.5t-30 28t-47 11.5q-34 0 -55.5 -15.5t-31 -47t-12.5 -61t-3 -76.5v-429q0 -37 1.5 -61.5t7 -53t16.5 -45t30 -28t47 -11.5z" />
    <glyph glyph-name="divide" unicode="&#xf7;" horiz-adv-x="809" 
d="M310 1080v245h196v-245h-196zM50 760v174h709v-174h-709zM310 349v245h196v-245h-196z" />
    <glyph glyph-name="oslash" unicode="&#xf8;" horiz-adv-x="924" 
d="M362 440l188 506q-22 60 -86 60q-34 0 -55.5 -15.5t-31 -47t-12.5 -61t-3 -76.5v-366zM464 178q34 0 55.5 15t31 46.5t12.5 61t3 76.5v376l-191 -506q21 -69 89 -69zM207 -196l-72 27l82 221q-132 102 -132 344v391q0 200 93.5 307.5t284.5 107.5q33 0 63 -3.5t57.5 -10
t51.5 -15.5l77 207l80 -29l-83 -220q135 -102 135 -344v-391q0 -200 -94.5 -307.5t-286.5 -107.5q-51 0 -95.5 8t-81.5 24z" />
    <glyph glyph-name="ugrave" unicode="&#xf9;" horiz-adv-x="966" 
d="M399 1324l-247 409h284l121 -409h-158zM293 -18q-101 0 -147.5 74t-46.5 182v946h279v-889q0 -55 17 -82t63 -26q49 0 120 50v947h279v-1184h-279v111q-141 -129 -285 -129z" />
    <glyph glyph-name="uacute" unicode="&#xfa;" horiz-adv-x="966" 
d="M398 1324l122 409h283l-246 -409h-159zM293 -18q-101 0 -147.5 74t-46.5 182v946h279v-889q0 -55 17 -82t63 -26q49 0 120 50v947h279v-1184h-279v111q-141 -129 -285 -129z" />
    <glyph glyph-name="ucircumflex" unicode="&#xfb;" horiz-adv-x="966" 
d="M165 1324l184 372h254l187 -372h-208l-105 240l-105 -240h-207zM293 -18q-101 0 -147.5 74t-46.5 182v946h279v-889q0 -55 17 -82t63 -26q49 0 120 50v947h279v-1184h-279v111q-141 -129 -285 -129z" />
    <glyph glyph-name="udieresis" unicode="&#xfc;" horiz-adv-x="966" 
d="M548 1324v266h252v-266h-252zM155 1324v266h251v-266h-251zM293 -18q-101 0 -147.5 74t-46.5 182v946h279v-889q0 -55 17 -82t63 -26q49 0 120 50v947h279v-1184h-279v111q-141 -129 -285 -129z" />
    <glyph glyph-name="yacute" unicode="&#xfd;" horiz-adv-x="855" 
d="M345 1324l122 409h283l-246 -409h-159zM113 -317v202q128 0 168.5 24.5t26.5 103.5q-13 70 -41 174q-28 118 -128 504t-126 493h274l147 -778l129 778h273l-281 -1246q-31 -140 -134.5 -198t-273.5 -57h-34z" />
    <glyph glyph-name="thorn" unicode="&#xfe;" horiz-adv-x="967" 
d="M507 182q31 0 51.5 17t30 51t12.5 69t3 86v408q0 42 -4 74t-15 61.5t-32.5 45t-52.5 14.5q-55 -1 -116 -47v-742q60 -37 123 -37zM104 -390v2048h280v-565q109 110 238 109q63 -1 111.5 -29t76 -69.5t45 -98t23.5 -105t6 -98.5v-388q0 -90 -15 -165.5t-47 -137t-87.5 -96
t-130.5 -34.5q-111 0 -220 107v-478h-280z" />
    <glyph glyph-name="ydieresis" unicode="&#xff;" horiz-adv-x="855" 
d="M495 1324v266h252v-266h-252zM102 1324v266h251v-266h-251zM113 -317v202q128 0 168.5 24.5t26.5 103.5q-13 70 -41 174q-28 118 -128 504t-126 493h274l147 -778l129 778h273l-281 -1246q-31 -140 -134.5 -198t-273.5 -57h-34z" />
    <glyph glyph-name="Amacron" unicode="&#x100;" horiz-adv-x="1065" 
d="M297 1799v148h471v-148h-471zM423 582h222l-111 681zM38 0l337 1658h315l336 -1658h-281l-67 385h-287l-68 -385h-285z" />
    <glyph glyph-name="amacron" unicode="&#x101;" horiz-adv-x="927" 
d="M230 1324v148h471v-148h-471zM442 198q32 0 63.5 24t50.5 49v326q-208 -115 -208 -261q0 -64 24.5 -101t69.5 -37zM335 -19q-112 1 -183.5 87.5t-71.5 195.5q0 103 34 180t111.5 132t128.5 80t157 66l45 18v99q0 80 -18.5 117t-75.5 37q-93 0 -95 -130l-4 -74l-268 10
q0 6 0.5 22t0.5 21q13 186 110.5 273t278.5 87q175 0 259.5 -95t84.5 -269v-541q0 -136 22 -297h-253q-23 116 -29 174q-25 -82 -83.5 -137.5t-150.5 -55.5z" />
    <glyph glyph-name="Abreve" unicode="&#x102;" horiz-adv-x="1065" 
d="M531 1799q-150 0 -221.5 78t-71.5 212h141q0 -82 37 -119t115 -37t115 37t37 119h142q0 -134 -71.5 -212t-222.5 -78zM423 582h222l-111 681zM38 0l337 1658h315l336 -1658h-281l-67 385h-287l-68 -385h-285z" />
    <glyph glyph-name="abreve" unicode="&#x103;" horiz-adv-x="927" 
d="M465 1324q-150 0 -221.5 78t-71.5 212h141q0 -82 37 -119t115 -37t115 37t37 119h142q0 -134 -71.5 -212t-222.5 -78zM442 198q32 0 63.5 24t50.5 49v326q-208 -115 -208 -261q0 -64 24.5 -101t69.5 -37zM335 -19q-112 1 -183.5 87.5t-71.5 195.5q0 103 34 180t111.5 132
t128.5 80t157 66l45 18v99q0 80 -18.5 117t-75.5 37q-93 0 -95 -130l-4 -74l-268 10q0 6 0.5 22t0.5 21q13 186 110.5 273t278.5 87q175 0 259.5 -95t84.5 -269v-541q0 -136 22 -297h-253q-23 116 -29 174q-25 -82 -83.5 -137.5t-150.5 -55.5z" />
    <glyph glyph-name="Aogonek" unicode="&#x104;" horiz-adv-x="1065" 
d="M978 -492q-58 -1 -96 0.5t-87.5 6.5t-80.5 18t-60.5 34t-43.5 55.5t-14 81.5q0 91 62 180t141 128h134q-7 -13 -50 -78t-64 -113.5t-21 -93.5q0 -25 12 -42t27.5 -25t43.5 -12t46 -4t49 1t40 1zM423 582h222l-111 681zM38 0l337 1658h315l336 -1658h-281l-67 385h-287
l-68 -385h-285z" />
    <glyph glyph-name="aogonek" unicode="&#x105;" horiz-adv-x="927" 
d="M819 -492q-58 -1 -96 0.5t-87.5 6.5t-80.5 18t-60.5 34t-43.5 55.5t-14 81.5q0 91 62 180t141 128h134q-7 -13 -50 -78t-64 -113.5t-21 -93.5q0 -25 12 -42t27.5 -25t43.5 -12t46 -4t49 1t40 1zM442 198q32 0 63.5 24t50.5 49v326q-208 -115 -208 -261q0 -64 24.5 -101
t69.5 -37zM335 -19q-112 1 -183.5 87.5t-71.5 195.5q0 103 34 180t111.5 132t128.5 80t157 66l45 18v99q0 80 -18.5 117t-75.5 37q-93 0 -95 -130l-4 -74l-268 10q0 6 0.5 22t0.5 21q13 186 110.5 273t278.5 87q175 0 259.5 -95t84.5 -269v-541q0 -136 22 -297h-253
q-23 116 -29 174q-25 -82 -83.5 -137.5t-150.5 -55.5z" />
    <glyph glyph-name="Cacute" unicode="&#x106;" horiz-adv-x="1102" 
d="M478 1799l122 409h283l-246 -409h-159zM569 -20q-107 0 -189 27t-135.5 75t-87 119t-47 152.5t-13.5 183.5v578q0 108 14 191.5t47 155t86.5 117.5t135 72t189.5 26q124 0 212 -33t139 -97t74 -149.5t23 -199.5v-142h-291v141q0 124 -13 167q-26 84 -127 90h-16
q-38 0 -66.5 -9t-46.5 -28.5t-29 -41.5t-16.5 -57.5t-7 -65.5t-1.5 -76v-702q0 -146 36.5 -208t130.5 -62q32 0 56.5 7.5t41 19t28 33t17.5 40t9 51.5t3.5 56t0.5 63v148h291v-136q0 -93 -13 -167t-44.5 -139t-81.5 -108t-128 -67.5t-181 -24.5z" />
    <glyph glyph-name="cacute" unicode="&#x107;" horiz-adv-x="899" 
d="M374 1324l122 409h283l-246 -409h-159zM462 -19q-201 0 -289 113t-88 327v343q0 214 88 326t289 112q189 0 274.5 -89t85.5 -276v-96h-261v101q0 90 -21.5 125.5t-74.5 35.5q-59 0 -79.5 -42t-20.5 -156v-432q0 -113 22.5 -152.5t77.5 -39.5q56 0 76 38.5t20 116.5v127
h261v-112q0 -184 -87.5 -277t-272.5 -93z" />
    <glyph glyph-name="Ccircumflex" unicode="&#x108;" horiz-adv-x="1102" 
d="M245 1799l184 372h254l187 -372h-208l-105 240l-105 -240h-207zM569 -20q-107 0 -189 27t-135.5 75t-87 119t-47 152.5t-13.5 183.5v578q0 108 14 191.5t47 155t86.5 117.5t135 72t189.5 26q124 0 212 -33t139 -97t74 -149.5t23 -199.5v-142h-291v141q0 124 -13 167
q-26 84 -127 90h-16q-38 0 -66.5 -9t-46.5 -28.5t-29 -41.5t-16.5 -57.5t-7 -65.5t-1.5 -76v-702q0 -146 36.5 -208t130.5 -62q32 0 56.5 7.5t41 19t28 33t17.5 40t9 51.5t3.5 56t0.5 63v148h291v-136q0 -93 -13 -167t-44.5 -139t-81.5 -108t-128 -67.5t-181 -24.5z" />
    <glyph glyph-name="ccircumflex" unicode="&#x109;" horiz-adv-x="899" 
d="M141 1324l184 372h254l187 -372h-208l-105 240l-105 -240h-207zM462 -19q-201 0 -289 113t-88 327v343q0 214 88 326t289 112q189 0 274.5 -89t85.5 -276v-96h-261v101q0 90 -21.5 125.5t-74.5 35.5q-59 0 -79.5 -42t-20.5 -156v-432q0 -113 22.5 -152.5t77.5 -39.5
q56 0 76 38.5t20 116.5v127h261v-112q0 -184 -87.5 -277t-272.5 -93z" />
    <glyph glyph-name="Cdotaccent" unicode="&#x10a;" horiz-adv-x="1102" 
d="M421 1799v277h272v-277h-272zM569 -20q-107 0 -189 27t-135.5 75t-87 119t-47 152.5t-13.5 183.5v578q0 108 14 191.5t47 155t86.5 117.5t135 72t189.5 26q124 0 212 -33t139 -97t74 -149.5t23 -199.5v-142h-291v141q0 124 -13 167q-26 84 -127 90h-16q-38 0 -66.5 -9
t-46.5 -28.5t-29 -41.5t-16.5 -57.5t-7 -65.5t-1.5 -76v-702q0 -146 36.5 -208t130.5 -62q32 0 56.5 7.5t41 19t28 33t17.5 40t9 51.5t3.5 56t0.5 63v148h291v-136q0 -93 -13 -167t-44.5 -139t-81.5 -108t-128 -67.5t-181 -24.5z" />
    <glyph glyph-name="cdotaccent" unicode="&#x10b;" horiz-adv-x="899" 
d="M317 1324v277h272v-277h-272zM462 -19q-201 0 -289 113t-88 327v343q0 214 88 326t289 112q189 0 274.5 -89t85.5 -276v-96h-261v101q0 90 -21.5 125.5t-74.5 35.5q-59 0 -79.5 -42t-20.5 -156v-432q0 -113 22.5 -152.5t77.5 -39.5q56 0 76 38.5t20 116.5v127h261v-112
q0 -184 -87.5 -277t-272.5 -93z" />
    <glyph glyph-name="Ccaron" unicode="&#x10c;" horiz-adv-x="1102" 
d="M419 1799l-177 367h203l111 -231l112 231h205l-180 -367h-274zM569 -20q-107 0 -189 27t-135.5 75t-87 119t-47 152.5t-13.5 183.5v578q0 108 14 191.5t47 155t86.5 117.5t135 72t189.5 26q124 0 212 -33t139 -97t74 -149.5t23 -199.5v-142h-291v141q0 124 -13 167
q-26 84 -127 90h-16q-38 0 -66.5 -9t-46.5 -28.5t-29 -41.5t-16.5 -57.5t-7 -65.5t-1.5 -76v-702q0 -146 36.5 -208t130.5 -62q32 0 56.5 7.5t41 19t28 33t17.5 40t9 51.5t3.5 56t0.5 63v148h291v-136q0 -93 -13 -167t-44.5 -139t-81.5 -108t-128 -67.5t-181 -24.5z" />
    <glyph glyph-name="ccaron" unicode="&#x10d;" horiz-adv-x="899" 
d="M315 1324l-177 367h203l111 -231l112 231h205l-180 -367h-274zM462 -19q-201 0 -289 113t-88 327v343q0 214 88 326t289 112q189 0 274.5 -89t85.5 -276v-96h-261v101q0 90 -21.5 125.5t-74.5 35.5q-59 0 -79.5 -42t-20.5 -156v-432q0 -113 22.5 -152.5t77.5 -39.5
q56 0 76 38.5t20 116.5v127h261v-112q0 -184 -87.5 -277t-272.5 -93z" />
    <glyph glyph-name="Dcaron" unicode="&#x10e;" horiz-adv-x="1133" 
d="M441 1799l-177 367h203l111 -231l112 231h205l-180 -367h-274zM124 0v1658h386q150 0 251 -30t162 -95t86.5 -159.5t25.5 -232.5v-598q0 -142 -26 -241t-85.5 -168t-158.5 -101.5t-243 -32.5h-398zM426 212h86q45 0 79 8t57 19t38.5 36t23.5 46t12 63.5t5 72.5t1 89v606
q0 59 -2 95t-9.5 72.5t-22 56.5t-38.5 36.5t-60 23t-87 6.5h-83v-1230z" />
    <glyph glyph-name="dcaron" unicode="&#x10f;" horiz-adv-x="1159" 
d="M1015 1100v558h238l-95 -558h-143zM474 181q51 0 108 32v756q-57 36 -109 36q-56 0 -80.5 -51t-24.5 -130v-434q0 -64 7 -106t31.5 -72.5t67.5 -30.5zM376 -19q-145 0 -217 103t-72 327v344q0 95 14.5 172t46 141t88.5 99t136 35q112 0 210 -91v547h280v-1658h-280v81
q-95 -99 -206 -100z" />
    <glyph glyph-name="Dcroat" unicode="&#x110;" horiz-adv-x="1139" 
d="M131 0v778h-99v153h99v727h386q150 0 251 -30t162 -95t86.5 -159.5t25.5 -232.5v-598q0 -142 -26 -241t-85.5 -168t-158.5 -101.5t-243 -32.5h-398zM429 212h93q45 0 79 8t57 19t38.5 36t23.5 46t12 63.5t5 72.5t1 89v606q0 59 -2 95t-9.5 72.5t-22 56.5t-38.5 36.5
t-60 23t-87 6.5h-90v-511h107v-153h-107v-566z" />
    <glyph glyph-name="dcroat" unicode="&#x111;" horiz-adv-x="979" 
d="M472 181q49 0 106 32v756q-57 36 -108 36q-56 0 -80.5 -51t-24.5 -130v-434q0 -47 4 -81t15 -65t33 -47t55 -16zM374 -19q-146 0 -217.5 103t-71.5 327v344q0 76 8.5 139.5t29 121.5t52 98.5t81 64t113.5 23.5q109 0 209 -91v279h-254v131h254v137h280v-137h112v-131
h-112v-1390h-280v81q-95 -99 -204 -100z" />
    <glyph glyph-name="Emacron" unicode="&#x112;" 
d="M238 1799v148h471v-148h-471zM124 0v1658h694v-213h-392v-476h310v-213h-310v-547h397v-209h-699z" />
    <glyph glyph-name="emacron" unicode="&#x113;" horiz-adv-x="915" 
d="M223 1324v148h471v-148h-471zM363 718h202v113q0 90 -22.5 129t-79.5 39q-58 0 -79 -44t-21 -160v-77zM466 -19q-203 0 -292 112t-89 331v335q0 219 90 331t290 112q106 0 178.5 -31t113 -94t57.5 -145.5t17 -198.5v-155h-468v-178q0 -37 0.5 -57.5t3.5 -49.5t9.5 -45
t17.5 -32.5t29 -23.5t42 -7q56 0 78 39.5t22 114.5v68h265v-47q0 -184 -91.5 -281.5t-272.5 -97.5z" />
    <glyph glyph-name="Ebreve" unicode="&#x114;" 
d="M473 1799q-150 0 -221.5 78t-71.5 212h141q0 -82 37 -119t115 -37t115 37t37 119h142q0 -134 -71.5 -212t-222.5 -78zM124 0v1658h694v-213h-392v-476h310v-213h-310v-547h397v-209h-699z" />
    <glyph glyph-name="ebreve" unicode="&#x115;" horiz-adv-x="915" 
d="M457 1324q-150 0 -221.5 78t-71.5 212h141q0 -82 37 -119t115 -37t115 37t37 119h142q0 -134 -71.5 -212t-222.5 -78zM363 718h202v113q0 90 -22.5 129t-79.5 39q-58 0 -79 -44t-21 -160v-77zM466 -19q-203 0 -292 112t-89 331v335q0 219 90 331t290 112q106 0 178.5 -31
t113 -94t57.5 -145.5t17 -198.5v-155h-468v-178q0 -37 0.5 -57.5t3.5 -49.5t9.5 -45t17.5 -32.5t29 -23.5t42 -7q56 0 78 39.5t22 114.5v68h265v-47q0 -184 -91.5 -281.5t-272.5 -97.5z" />
    <glyph glyph-name="Edotaccent" unicode="&#x116;" 
d="M337 1799v277h272v-277h-272zM124 0v1658h694v-213h-392v-476h310v-213h-310v-547h397v-209h-699z" />
    <glyph glyph-name="edotaccent" unicode="&#x117;" horiz-adv-x="915" 
d="M322 1324v277h272v-277h-272zM363 718h202v113q0 90 -22.5 129t-79.5 39q-58 0 -79 -44t-21 -160v-77zM466 -19q-203 0 -292 112t-89 331v335q0 219 90 331t290 112q106 0 178.5 -31t113 -94t57.5 -145.5t17 -198.5v-155h-468v-178q0 -37 0.5 -57.5t3.5 -49.5t9.5 -45
t17.5 -32.5t29 -23.5t42 -7q56 0 78 39.5t22 114.5v68h265v-47q0 -184 -91.5 -281.5t-272.5 -97.5z" />
    <glyph glyph-name="Eogonek" unicode="&#x118;" 
d="M648 -492q-58 -1 -96 0.5t-87.5 6.5t-80.5 18t-60.5 34t-43.5 55.5t-14 81.5q0 91 62 180t141 128h134q-7 -13 -50 -78t-64 -113.5t-21 -93.5q0 -25 12 -42t27.5 -25t43.5 -12t46 -4t49 1t40 1zM124 0v1658h694v-213h-392v-476h310v-213h-310v-547h397v-209h-699z" />
    <glyph glyph-name="eogonek" unicode="&#x119;" horiz-adv-x="915" 
d="M618 -492q-58 -1 -96 0.5t-87.5 6.5t-80.5 18t-60.5 34t-43.5 55.5t-14 81.5q0 91 62 180t141 128h134q-7 -13 -50 -78t-64 -113.5t-21 -93.5q0 -25 12 -42t27.5 -25t43.5 -12t46 -4t49 1t40 1zM363 718h202v113q0 90 -22.5 129t-79.5 39q-58 0 -79 -44t-21 -160v-77z
M466 -19q-203 0 -292 112t-89 331v335q0 219 90 331t290 112q106 0 178.5 -31t113 -94t57.5 -145.5t17 -198.5v-155h-468v-178q0 -37 0.5 -57.5t3.5 -49.5t9.5 -45t17.5 -32.5t29 -23.5t42 -7q56 0 78 39.5t22 114.5v68h265v-47q0 -184 -91.5 -281.5t-272.5 -97.5z" />
    <glyph glyph-name="Ecaron" unicode="&#x11a;" 
d="M335 1799l-177 367h203l111 -231l112 231h205l-180 -367h-274zM124 0v1658h694v-213h-392v-476h310v-213h-310v-547h397v-209h-699z" />
    <glyph glyph-name="ecaron" unicode="&#x11b;" horiz-adv-x="915" 
d="M319 1324l-177 367h203l111 -231l112 231h205l-180 -367h-274zM363 718h202v113q0 90 -22.5 129t-79.5 39q-58 0 -79 -44t-21 -160v-77zM466 -19q-203 0 -292 112t-89 331v335q0 219 90 331t290 112q106 0 178.5 -31t113 -94t57.5 -145.5t17 -198.5v-155h-468v-178
q0 -37 0.5 -57.5t3.5 -49.5t9.5 -45t17.5 -32.5t29 -23.5t42 -7q56 0 78 39.5t22 114.5v68h265v-47q0 -184 -91.5 -281.5t-272.5 -97.5z" />
    <glyph glyph-name="Gcircumflex" unicode="&#x11c;" horiz-adv-x="1142" 
d="M255 1799l184 372h254l187 -372h-208l-105 240l-105 -240h-207zM539 -22q-235 0 -338.5 147t-103.5 428v540q0 143 22.5 246.5t75.5 181.5t146 117t228 39q246 0 353 -120.5t107 -365.5v-81h-289v86q0 55 -2.5 90t-12 70.5t-27.5 54.5t-49 31t-76 12q-34 0 -60.5 -8.5
t-44.5 -21t-30.5 -35.5t-19 -44.5t-10 -55.5t-4.5 -60t-1 -67v-669q0 -150 37 -219.5t141 -69.5q54 0 90.5 20.5t57 62t29 95t8.5 129.5v136h-179v195h451v-842h-196l-22 168q-75 -190 -281 -190z" />
    <glyph glyph-name="gcircumflex" unicode="&#x11d;" horiz-adv-x="950" 
d="M198 1351l184 372h254l187 -372h-208l-105 240l-105 -240h-207zM460 544q70 0 91 52t21 184q0 136 -20 189t-90 53q-71 0 -92 -53.5t-21 -188.5q0 -48 2 -81.5t9 -64.5t19 -49.5t32 -29.5t49 -11zM514 -162q86 0 125.5 22t40.5 71q3 53 -27 77.5t-109 31.5l-188 18
q-61 -71 -61 -131q0 -32 15.5 -50t64 -28.5t139.5 -10.5zM516 -359q-53 0 -92.5 1t-91.5 5.5t-89.5 13t-77 23.5t-64 35.5t-40.5 52t-16 70.5q0 149 167 251q-120 41 -127 133q-5 64 27 110.5t109 109.5q-66 50 -99 125t-33 201q0 218 94.5 324t273.5 106q184 0 254 -116
q22 27 66.5 64t93.5 61l39 18l66 -156q-35 -9 -106 -36t-95 -42q19 -35 33 -98.5t14 -127.5q0 -406 -355 -406q-29 0 -79.5 8.5t-65.5 14.5q-34 -51 -32 -78q3 -40 104 -50q12 -2 106 -11.5t110 -11.5q149 -16 218 -86.5t69 -201.5q0 -157 -88 -231.5t-293 -74.5z" />
    <glyph glyph-name="Gbreve" unicode="&#x11e;" horiz-adv-x="1142" 
d="M567 1799q-150 0 -221.5 78t-71.5 212h141q0 -82 37 -119t115 -37t115 37t37 119h142q0 -134 -71.5 -212t-222.5 -78zM539 -22q-235 0 -338.5 147t-103.5 428v540q0 143 22.5 246.5t75.5 181.5t146 117t228 39q246 0 353 -120.5t107 -365.5v-81h-289v86q0 55 -2.5 90
t-12 70.5t-27.5 54.5t-49 31t-76 12q-34 0 -60.5 -8.5t-44.5 -21t-30.5 -35.5t-19 -44.5t-10 -55.5t-4.5 -60t-1 -67v-669q0 -150 37 -219.5t141 -69.5q54 0 90.5 20.5t57 62t29 95t8.5 129.5v136h-179v195h451v-842h-196l-22 168q-75 -190 -281 -190z" />
    <glyph glyph-name="gbreve" unicode="&#x11f;" horiz-adv-x="950" 
d="M510 1351q-150 0 -221.5 78t-71.5 212h141q0 -82 37 -119t115 -37t115 37t37 119h142q0 -134 -71.5 -212t-222.5 -78zM460 544q70 0 91 52t21 184q0 136 -20 189t-90 53q-71 0 -92 -53.5t-21 -188.5q0 -48 2 -81.5t9 -64.5t19 -49.5t32 -29.5t49 -11zM514 -162
q86 0 125.5 22t40.5 71q3 53 -27 77.5t-109 31.5l-188 18q-61 -71 -61 -131q0 -32 15.5 -50t64 -28.5t139.5 -10.5zM516 -359q-53 0 -92.5 1t-91.5 5.5t-89.5 13t-77 23.5t-64 35.5t-40.5 52t-16 70.5q0 149 167 251q-120 41 -127 133q-5 64 27 110.5t109 109.5
q-66 50 -99 125t-33 201q0 218 94.5 324t273.5 106q184 0 254 -116q22 27 66.5 64t93.5 61l39 18l66 -156q-35 -9 -106 -36t-95 -42q19 -35 33 -98.5t14 -127.5q0 -406 -355 -406q-29 0 -79.5 8.5t-65.5 14.5q-34 -51 -32 -78q3 -40 104 -50q12 -2 106 -11.5t110 -11.5
q149 -16 218 -86.5t69 -201.5q0 -157 -88 -231.5t-293 -74.5z" />
    <glyph glyph-name="Gdotaccent" unicode="&#x120;" horiz-adv-x="1142" 
d="M431 1799v277h272v-277h-272zM539 -22q-235 0 -338.5 147t-103.5 428v540q0 143 22.5 246.5t75.5 181.5t146 117t228 39q246 0 353 -120.5t107 -365.5v-81h-289v86q0 55 -2.5 90t-12 70.5t-27.5 54.5t-49 31t-76 12q-34 0 -60.5 -8.5t-44.5 -21t-30.5 -35.5t-19 -44.5
t-10 -55.5t-4.5 -60t-1 -67v-669q0 -150 37 -219.5t141 -69.5q54 0 90.5 20.5t57 62t29 95t8.5 129.5v136h-179v195h451v-842h-196l-22 168q-75 -190 -281 -190z" />
    <glyph glyph-name="gdotaccent" unicode="&#x121;" horiz-adv-x="950" 
d="M375 1351v277h272v-277h-272zM460 544q70 0 91 52t21 184q0 136 -20 189t-90 53q-71 0 -92 -53.5t-21 -188.5q0 -48 2 -81.5t9 -64.5t19 -49.5t32 -29.5t49 -11zM514 -162q86 0 125.5 22t40.5 71q3 53 -27 77.5t-109 31.5l-188 18q-61 -71 -61 -131q0 -32 15.5 -50
t64 -28.5t139.5 -10.5zM516 -359q-53 0 -92.5 1t-91.5 5.5t-89.5 13t-77 23.5t-64 35.5t-40.5 52t-16 70.5q0 149 167 251q-120 41 -127 133q-5 64 27 110.5t109 109.5q-66 50 -99 125t-33 201q0 218 94.5 324t273.5 106q184 0 254 -116q22 27 66.5 64t93.5 61l39 18
l66 -156q-35 -9 -106 -36t-95 -42q19 -35 33 -98.5t14 -127.5q0 -406 -355 -406q-29 0 -79.5 8.5t-65.5 14.5q-34 -51 -32 -78q3 -40 104 -50q12 -2 106 -11.5t110 -11.5q149 -16 218 -86.5t69 -201.5q0 -157 -88 -231.5t-293 -74.5z" />
    <glyph glyph-name="Gcommaaccent" unicode="&#x122;" horiz-adv-x="1142" 
d="M490 -669l-45 117q64 4 96.5 35.5t32.5 102.5h-142v270h272l-2 -244q-1 -138 -48.5 -209t-163.5 -72zM539 -22q-235 0 -338.5 147t-103.5 428v540q0 143 22.5 246.5t75.5 181.5t146 117t228 39q246 0 353 -120.5t107 -365.5v-81h-289v86q0 55 -2.5 90t-12 70.5
t-27.5 54.5t-49 31t-76 12q-34 0 -60.5 -8.5t-44.5 -21t-30.5 -35.5t-19 -44.5t-10 -55.5t-4.5 -60t-1 -67v-669q0 -150 37 -219.5t141 -69.5q54 0 90.5 20.5t57 62t29 95t8.5 129.5v136h-179v195h451v-842h-196l-22 168q-75 -190 -281 -190z" />
    <glyph glyph-name="gcommaaccent" unicode="&#x123;" horiz-adv-x="901" 
d="M487 530q36 0 62.5 15t41 37.5t23 59t11 70.5t2.5 80q0 57 -5 98t-19 79t-43.5 58t-74.5 20q-44 0 -73.5 -22.5t-42.5 -63.5t-17.5 -79.5t-4.5 -89.5q0 -57 4.5 -97.5t18 -81t43 -62t74.5 -21.5zM499 -212q211 0 218 106q6 60 -31.5 90t-145.5 51l-150 25
q-30 -26 -48 -44.5t-37 -51.5t-19 -63q0 -113 213 -113zM412 1487v222q1 277 225 309l15 -79q-126 -58 -126 -184h147v-268h-261zM499 -373q-66 0 -126.5 5.5t-124 21.5t-109.5 41t-75.5 67.5t-29.5 98.5q0 115 189 242q-74 27 -114 53.5t-46 59.5q-18 104 151 255
q-138 97 -138 307q0 196 106 311.5t298 115.5q90 0 161.5 -33t114.5 -86q73 97 161 140l40 19l64 -130q-81 -25 -194 -112q58 -91 58 -223q0 -188 -97 -297.5t-286 -109.5q-104 0 -189 36q-74 -100 -70 -134q4 -19 108 -40q42 -9 256 -45q177 -32 251 -95t74 -178
q0 -133 -108.5 -211.5t-324.5 -78.5z" />
    <glyph glyph-name="Hcircumflex" unicode="&#x124;" horiz-adv-x="1195" 
d="M285 1799l184 372h254l187 -372h-208l-105 240l-105 -240h-207zM127 0v1658h302v-693h337v693h302v-1658h-302v750h-337v-750h-302z" />
    <glyph glyph-name="hcircumflex" unicode="&#x125;" horiz-adv-x="980" 
d="M183 1780l184 372h254l187 -372h-208l-105 240l-105 -240h-207zM112 0v1658h279v-589q140 133 295 133q42 0 75.5 -14.5t55 -39t36 -58t20.5 -69t6 -75.5v-946h-279v884q0 56 -16.5 83t-62.5 26q-55 -1 -130 -58v-935h-279z" />
    <glyph glyph-name="Hbar" unicode="&#x126;" horiz-adv-x="1134" 
d="M407 965h330v294h-330v-294zM105 0v1259h-102v123h102v276h302v-276h330v276h302v-276h92v-123h-92v-1259h-302v750h-330v-750h-302z" />
    <glyph glyph-name="hbar" unicode="&#x127;" horiz-adv-x="980" 
d="M112 0v1395h-114v141h114v122h280v-122h246v-141h-246v-326q140 133 294 133q101 0 147.5 -74t46.5 -182v-946h-279v884q0 56 -16.5 83t-62.5 26q-55 -1 -130 -58v-935h-280z" />
    <glyph glyph-name="Itilde" unicode="&#x128;" horiz-adv-x="562" 
d="M444 1799q-42 -2 -99 23t-108.5 50.5t-78.5 25.5q-51 0 -51 -83h-146q0 121 39.5 187.5t137.5 70.5q47 2 104.5 -21.5t104.5 -48t67 -25.5q27 -2 38 17.5t11 62.5h139q0 -55 -7 -97.5t-23.5 -80.5t-48.5 -59t-79 -22zM133 0v1658h298v-1658h-298z" />
    <glyph glyph-name="itilde" unicode="&#x129;" horiz-adv-x="517" 
d="M425 1324q-42 -2 -99 23t-108.5 50.5t-78.5 25.5q-51 0 -51 -83h-146q0 121 39.5 187.5t137.5 70.5q47 2 104.5 -21.5t104.5 -48t67 -25.5q27 -2 38 17.5t11 62.5h139q0 -55 -7 -97.5t-23.5 -80.5t-48.5 -59t-79 -22zM123 0v1184h279v-1184h-279z" />
    <glyph glyph-name="Imacron" unicode="&#x12a;" horiz-adv-x="562" 
d="M47 1799v148h471v-148h-471zM133 0v1658h298v-1658h-298z" />
    <glyph glyph-name="imacron" unicode="&#x12b;" horiz-adv-x="517" 
d="M27 1324v148h471v-148h-471zM123 0v1184h279v-1184h-279z" />
    <glyph glyph-name="Ibreve" unicode="&#x12c;" horiz-adv-x="562" 
d="M281 1799q-150 0 -221.5 78t-71.5 212h141q0 -82 37 -119t115 -37t115 37t37 119h142q0 -134 -71.5 -212t-222.5 -78zM133 0v1658h298v-1658h-298z" />
    <glyph glyph-name="ibreve" unicode="&#x12d;" horiz-adv-x="517" 
d="M262 1324q-150 0 -221.5 78t-71.5 212h141q0 -82 37 -119t115 -37t115 37t37 119h142q0 -134 -71.5 -212t-222.5 -78zM123 0v1184h279v-1184h-279z" />
    <glyph glyph-name="Iogonek" unicode="&#x12e;" horiz-adv-x="562" 
d="M377 -492q-58 -1 -96 0.5t-87.5 6.5t-80.5 18t-60.5 34t-43.5 55.5t-14 81.5q0 91 62 180t141 128h134q-7 -13 -50 -78t-64 -113.5t-21 -93.5q0 -25 12 -42t27.5 -25t43.5 -12t46 -4t49 1t40 1zM133 0v1658h298v-1658h-298z" />
    <glyph glyph-name="iogonek" unicode="&#x12f;" horiz-adv-x="509" 
d="M363 -492q-58 -1 -96 0.5t-87.5 6.5t-80.5 18t-60.5 34t-43.5 55.5t-14 81.5q0 91 62 180t141 128h134q-7 -13 -50 -78t-64 -113.5t-21 -93.5q0 -25 12 -42t27.5 -25t43.5 -12t46 -4t49 1t40 1zM116 1371v236h281v-236h-281zM116 0v1184h280v-1184h-280z" />
    <glyph glyph-name="Idotaccent" unicode="&#x130;" horiz-adv-x="562" 
d="M146 1799v277h272v-277h-272zM133 0v1658h298v-1658h-298z" />
    <glyph glyph-name="dotlessi" unicode="&#x131;" horiz-adv-x="517" 
d="M123 0v1184h279v-1184h-279z" />
    <glyph glyph-name="ij" unicode="&#x133;" horiz-adv-x="1027" 
d="M643 1371v236h282v-236h-282zM479 -307v200q37 -7 59 -7q106 0 106 121v1177h279v-1209q0 -140 -78.5 -221t-220.5 -81q-86 0 -145 20zM116 1371v236h281v-236h-281zM116 0v1184h280v-1184h-280z" />
    <glyph glyph-name="Jcircumflex" unicode="&#x134;" horiz-adv-x="667" 
d="M83 1719l184 372h254l187 -372h-208l-105 240l-105 -240h-207zM19 -35v212q133 -1 177 40t44 169v1272h302l-1 -1279q-1 -109 -18.5 -183.5t-60 -128t-116 -78t-182.5 -24.5h-145z" />
    <glyph glyph-name="jcircumflex" unicode="&#x135;" horiz-adv-x="512" 
d="M-40 1249l184 372h254l187 -372h-208l-105 240l-105 -240h-207zM-32 -327v200q37 -7 59 -7q106 0 106 120v1198h279v-1229q0 -141 -78.5 -221.5t-220.5 -80.5q-86 0 -145 20z" />
    <glyph glyph-name="Kcommaaccent" unicode="&#x136;" horiz-adv-x="1085" 
d="M520 -647l-45 117q64 4 96.5 35.5t32.5 102.5h-142v270h272l-2 -244q-1 -138 -48.5 -209t-163.5 -72zM124 0v1658h302v-720l326 720h288l-317 -742l350 -916h-301l-286 780l-60 -108v-672h-302z" />
    <glyph glyph-name="kcommaaccent" unicode="&#x137;" horiz-adv-x="986" 
d="M470 -647l-45 117q64 4 96.5 35.5t32.5 102.5h-142v270h272l-2 -244q-1 -138 -48.5 -209t-163.5 -72zM110 2v1658h278v-949l296 472l303 1l-290 -474l285 -710h-293l-211 582l-90 -128v-452h-278z" />
    <glyph glyph-name="kgreenlandic" unicode="&#x138;" horiz-adv-x="954" 
d="M111 0v1184h280v-498l265 498h292l-255 -483l257 -701h-288l-186 560l-85 -128v-432h-280z" />
    <glyph glyph-name="Lacute" unicode="&#x139;" horiz-adv-x="859" 
d="M202 1799l122 409h283l-246 -409h-159zM124 0v1658h302v-1449h397v-209h-699z" />
    <glyph glyph-name="lacute" unicode="&#x13a;" horiz-adv-x="518" 
d="M186 1780l122 409h283l-246 -409h-159zM125 0v1658h280v-1658h-280z" />
    <glyph glyph-name="Lcommaaccent" unicode="&#x13b;" horiz-adv-x="859" 
d="M396 -647l-45 117q64 4 96.5 35.5t32.5 102.5h-142v270h272l-2 -244q-1 -138 -48.5 -209t-163.5 -72zM124 0v1658h302v-1449h397v-209h-699z" />
    <glyph glyph-name="lcommaaccent" unicode="&#x13c;" horiz-adv-x="518" 
d="M187 -647l-45 117q64 4 96.5 35.5t32.5 102.5h-142v270h272l-2 -244q-1 -138 -48.5 -209t-163.5 -72zM125 0v1658h280v-1658h-280z" />
    <glyph glyph-name="Lcaron" unicode="&#x13d;" horiz-adv-x="900" 
d="M666 1119v558h238l-95 -558h-143zM124 0v1658h302v-1449h397v-209h-699z" />
    <glyph glyph-name="lcaron" unicode="&#x13e;" horiz-adv-x="746" 
d="M588 1100v558h238l-95 -558h-143zM125 0v1658h280v-1658h-280z" />
    <glyph glyph-name="Ldot" unicode="&#x13f;" horiz-adv-x="859" 
d="M538 704v269h271v-269h-271zM124 0v1658h302v-1449h397v-209h-699z" />
    <glyph glyph-name="ldot" unicode="&#x140;" horiz-adv-x="918" 
d="M583 636v269h271v-269h-271zM125 0v1658h280v-1658h-280z" />
    <glyph glyph-name="Lslash" unicode="&#x141;" horiz-adv-x="865" 
d="M131 0v749l-133 -70v196l133 71v712h302v-558l206 108v-196l-206 -108v-695h397v-209h-699z" />
    <glyph glyph-name="lslash" unicode="&#x142;" horiz-adv-x="610" 
d="M173 0v840l-139 -63v186l139 62v633h279v-509l139 62v-184l-139 -63v-964h-279z" />
    <glyph glyph-name="Nacute" unicode="&#x143;" horiz-adv-x="1112" 
d="M476 1799l122 409h283l-246 -409h-159zM124 0v1658h208l406 -939v939h250v-1658h-198l-410 987v-987h-256z" />
    <glyph glyph-name="nacute" unicode="&#x144;" horiz-adv-x="970" 
d="M409 1324l122 409h283l-246 -409h-159zM107 0v1184h280v-116q143 134 289 134q101 0 147.5 -74t46.5 -182v-946h-280v884q0 56 -16 83t-62 26q-52 -1 -125 -54v-939h-280z" />
    <glyph glyph-name="Ncommaaccent" unicode="&#x145;" horiz-adv-x="1112" 
d="M478 -647l-45 117q64 4 96.5 35.5t32.5 102.5h-142v270h272l-2 -244q-1 -138 -48.5 -209t-163.5 -72zM124 0v1658h208l406 -939v939h250v-1658h-198l-410 987v-987h-256z" />
    <glyph glyph-name="ncommaaccent" unicode="&#x146;" horiz-adv-x="970" 
d="M410 -647l-45 117q64 4 96.5 35.5t32.5 102.5h-142v270h272l-2 -244q-1 -138 -48.5 -209t-163.5 -72zM107 0v1184h280v-116q143 134 289 134q101 0 147.5 -74t46.5 -182v-946h-280v884q0 56 -16 83t-62 26q-52 -1 -125 -54v-939h-280z" />
    <glyph glyph-name="Ncaron" unicode="&#x147;" horiz-adv-x="1112" 
d="M417 1799l-177 367h203l111 -231l112 231h205l-180 -367h-274zM124 0v1658h208l406 -939v939h250v-1658h-198l-410 987v-987h-256z" />
    <glyph glyph-name="ncaron" unicode="&#x148;" horiz-adv-x="970" 
d="M350 1324l-177 367h203l111 -231l112 231h205l-180 -367h-274zM107 0v1184h280v-116q143 134 289 134q101 0 147.5 -74t46.5 -182v-946h-280v884q0 56 -16 83t-62 26q-52 -1 -125 -54v-939h-280z" />
    <glyph glyph-name="napostrophe" unicode="&#x149;" horiz-adv-x="970" 
d="M107 0v1184h280v-116q143 134 289 134q101 0 147.5 -74t46.5 -182v-946h-280v884q0 56 -16 83t-62 26q-52 -1 -125 -54v-939h-280zM108 1332v558h238l-95 -558h-143z" />
    <glyph glyph-name="Eng" unicode="&#x14a;" horiz-adv-x="1119" 
d="M523 -407v192q76 0 121 10t70 37.5t33 65.5t8 104v122l-380 863v-987h-248v1658h208l415 -939v939h241v-1658q0 -105 -15.5 -176.5t-54.5 -126t-109.5 -79.5t-176.5 -25h-112z" />
    <glyph glyph-name="eng" unicode="&#x14b;" horiz-adv-x="872" 
d="M334 -392v192q74 0 120 9.5t72 34t35 58t9 88.5v894q0 56 -16.5 83t-62.5 26q-53 -1 -124 -54v-939h-280v1184h280v-110q136 128 289 128q52 0 91 -21.5t60.5 -59t32 -81.5t10.5 -94v-958q0 -193 -105.5 -286.5t-316.5 -93.5h-94z" />
    <glyph glyph-name="Omacron" unicode="&#x14c;" horiz-adv-x="1150" 
d="M339 1799v148h471v-148h-471zM575 -20q-256 0 -367 139t-111 407v612q0 132 25 229t80.5 168t148.5 106.5t224 35.5q255 0 366.5 -137t111.5 -402v-612q0 -130 -25.5 -228.5t-81 -171t-148.5 -109.5t-223 -37zM575 204q44 0 75 13t49.5 34t29 55t14 68t3.5 81v753
q0 60 -6 100t-23.5 75.5t-52.5 53t-89 17.5t-89.5 -17.5t-52.5 -53t-23 -75.5t-6 -100v-753q0 -47 3.5 -81t14 -68t28.5 -55t49.5 -34t75.5 -13z" />
    <glyph glyph-name="omacron" unicode="&#x14d;" horiz-adv-x="929" 
d="M229 1324v148h471v-148h-471zM463 -19q-191 0 -284.5 107.5t-93.5 307.5v391q0 200 93.5 307.5t284.5 107.5q192 0 286.5 -107.5t94.5 -307.5v-391q0 -200 -94.5 -307.5t-286.5 -107.5zM464 178q34 0 55.5 15t31 46.5t12.5 61t3 76.5v429q0 37 -1.5 61.5t-7 53.5
t-16.5 45.5t-30 28t-47 11.5q-34 0 -55.5 -15.5t-31 -47t-12.5 -61t-3 -76.5v-429q0 -37 1.5 -61.5t7 -53t16.5 -45t30 -28t47 -11.5z" />
    <glyph glyph-name="Obreve" unicode="&#x14e;" horiz-adv-x="1150" 
d="M575 1799q-150 0 -221.5 78t-71.5 212h141q0 -82 37 -119t115 -37t115 37t37 119h142q0 -134 -71.5 -212t-222.5 -78zM575 -20q-256 0 -367 139t-111 407v612q0 132 25 229t80.5 168t148.5 106.5t224 35.5q255 0 366.5 -137t111.5 -402v-612q0 -130 -25.5 -228.5
t-81 -171t-148.5 -109.5t-223 -37zM575 204q44 0 75 13t49.5 34t29 55t14 68t3.5 81v753q0 60 -6 100t-23.5 75.5t-52.5 53t-89 17.5t-89.5 -17.5t-52.5 -53t-23 -75.5t-6 -100v-753q0 -47 3.5 -81t14 -68t28.5 -55t49.5 -34t75.5 -13z" />
    <glyph glyph-name="obreve" unicode="&#x14f;" horiz-adv-x="929" 
d="M464 1324q-150 0 -221.5 78t-71.5 212h141q0 -82 37 -119t115 -37t115 37t37 119h142q0 -134 -71.5 -212t-222.5 -78zM463 -19q-191 0 -284.5 107.5t-93.5 307.5v391q0 200 93.5 307.5t284.5 107.5q192 0 286.5 -107.5t94.5 -307.5v-391q0 -200 -94.5 -307.5
t-286.5 -107.5zM464 178q34 0 55.5 15t31 46.5t12.5 61t3 76.5v429q0 37 -1.5 61.5t-7 53.5t-16.5 45.5t-30 28t-47 11.5q-34 0 -55.5 -15.5t-31 -47t-12.5 -61t-3 -76.5v-429q0 -37 1.5 -61.5t7 -53t16.5 -45t30 -28t47 -11.5z" />
    <glyph glyph-name="Ohungarumlaut" unicode="&#x150;" horiz-adv-x="1150" 
d="M659 1799l125 394h261l-242 -394h-144zM348 1799l98 394h226l-183 -394h-141zM575 -20q-256 0 -367 139t-111 407v612q0 132 25 229t80.5 168t148.5 106.5t224 35.5q255 0 366.5 -137t111.5 -402v-612q0 -130 -25.5 -228.5t-81 -171t-148.5 -109.5t-223 -37zM575 204
q44 0 75 13t49.5 34t29 55t14 68t3.5 81v753q0 60 -6 100t-23.5 75.5t-52.5 53t-89 17.5t-89.5 -17.5t-52.5 -53t-23 -75.5t-6 -100v-753q0 -47 3.5 -81t14 -68t28.5 -55t49.5 -34t75.5 -13z" />
    <glyph glyph-name="ohungarumlaut" unicode="&#x151;" horiz-adv-x="929" 
d="M548 1324l125 394h261l-242 -394h-144zM237 1324l98 394h226l-183 -394h-141zM463 -19q-191 0 -284.5 107.5t-93.5 307.5v391q0 200 93.5 307.5t284.5 107.5q192 0 286.5 -107.5t94.5 -307.5v-391q0 -200 -94.5 -307.5t-286.5 -107.5zM464 178q34 0 55.5 15t31 46.5
t12.5 61t3 76.5v429q0 37 -1.5 61.5t-7 53.5t-16.5 45.5t-30 28t-47 11.5q-34 0 -55.5 -15.5t-31 -47t-12.5 -61t-3 -76.5v-429q0 -37 1.5 -61.5t7 -53t16.5 -45t30 -28t47 -11.5z" />
    <glyph glyph-name="OE" unicode="&#x152;" horiz-adv-x="1443" 
d="M604 215h102v1226h-106q-58 0 -97 -18.5t-59.5 -43t-30.5 -78.5t-11.5 -93t-1.5 -119v-566q0 -56 2 -92t8.5 -75.5t20 -62t36 -42.5t56.5 -28t81 -8zM600 0q-139 0 -236.5 34t-156 104t-84.5 167t-26 232v552q0 136 26 237.5t82.5 176.5t152.5 113.5t230 38.5h797v-213
h-377v-480h295v-212h-295v-541h381v-209h-789z" />
    <glyph glyph-name="oe" unicode="&#x153;" horiz-adv-x="1432" 
d="M870 727h194v84q0 204 -97 204t-97 -204v-84zM480 181q43 0 66.5 27.5t30 68t6.5 108.5v436q0 45 -3.5 76t-13.5 60t-31 43.5t-53 14.5t-53 -14.5t-31 -43.5t-13.5 -60t-3.5 -76v-436q0 -38 1.5 -63.5t7 -54.5t16 -46t29.5 -28.5t45 -11.5zM456 -21q-175 0 -264 105.5
t-89 303.5v426q0 194 90 297t273 103q87 0 157 -38t100 -103q29 65 101 103t158 38q83 0 144.5 -21.5t100.5 -60t63 -98.5t33.5 -129t9.5 -160v-163h-463v-123q0 -143 14 -195q22 -79 82 -83q54 -4 75.5 30t21.5 113v112h271v-111q0 -175 -89 -262.5t-266 -83.5
q-96 2 -162 39t-97 101q-73 -140 -264 -140z" />
    <glyph glyph-name="Racute" unicode="&#x154;" horiz-adv-x="1136" 
d="M513 1799l122 409h283l-246 -409h-159zM426 950h73q134 0 190.5 57t56.5 195q0 133 -49 190.5t-180 57.5h-91v-500zM124 0v1658h380q131 0 225 -21.5t163.5 -72t104 -137t34.5 -211.5q0 -156 -46.5 -255t-153.5 -144l230 -817h-303l-198 757h-134v-757h-302z" />
    <glyph glyph-name="racute" unicode="&#x155;" horiz-adv-x="710" 
d="M317 1324l122 409h283l-246 -409h-159zM111 0v1184h280v-182q59 105 119.5 151t129.5 46q21 0 42 -5v-277q-47 18 -97 18q-60 -2 -105.5 -30t-88.5 -93v-812h-280z" />
    <glyph glyph-name="Rcommaaccent" unicode="&#x156;" horiz-adv-x="1136" 
d="M514 -647l-45 117q64 4 96.5 35.5t32.5 102.5h-142v270h272l-2 -244q-1 -138 -48.5 -209t-163.5 -72zM426 950h73q134 0 190.5 57t56.5 195q0 133 -49 190.5t-180 57.5h-91v-500zM124 0v1658h380q131 0 225 -21.5t163.5 -72t104 -137t34.5 -211.5q0 -156 -46.5 -255
t-153.5 -144l230 -817h-303l-198 757h-134v-757h-302z" />
    <glyph glyph-name="rcommaaccent" unicode="&#x157;" horiz-adv-x="710" 
d="M318 -647l-45 117q64 4 96.5 35.5t32.5 102.5h-142v270h272l-2 -244q-1 -138 -48.5 -209t-163.5 -72zM111 0v1184h280v-182q59 105 119.5 151t129.5 46q21 0 42 -5v-277q-47 18 -97 18q-60 -2 -105.5 -30t-88.5 -93v-812h-280z" />
    <glyph glyph-name="Rcaron" unicode="&#x158;" horiz-adv-x="1136" 
d="M454 1799l-177 367h203l111 -231l112 231h205l-180 -367h-274zM426 950h73q134 0 190.5 57t56.5 195q0 133 -49 190.5t-180 57.5h-91v-500zM124 0v1658h380q131 0 225 -21.5t163.5 -72t104 -137t34.5 -211.5q0 -156 -46.5 -255t-153.5 -144l230 -817h-303l-198 757h-134
v-757h-302z" />
    <glyph glyph-name="rcaron" unicode="&#x159;" horiz-adv-x="710" 
d="M258 1324l-177 367h203l111 -231l112 231h205l-180 -367h-274zM111 0v1184h280v-182q59 105 119.5 151t129.5 46q21 0 42 -5v-277q-47 18 -97 18q-60 -2 -105.5 -30t-88.5 -93v-812h-280z" />
    <glyph glyph-name="Sacute" unicode="&#x15a;" horiz-adv-x="1010" 
d="M440 1799l122 409h283l-246 -409h-159zM542 -20q-438 0 -460 506l263 55q10 -329 188 -329q69 0 102.5 42t33.5 113q0 69 -25 126.5t-58 94t-94 90.5l-218 189q-96 84 -143 174.5t-47 226.5q0 193 113.5 300t311.5 109q91 1 161 -22.5t115.5 -63t76 -98.5t45.5 -122.5
t21 -141.5l-258 -51q-2 50 -6.5 87t-15.5 75t-28.5 61.5t-47 37.5t-68.5 11q-67 -4 -102.5 -44.5t-35.5 -108.5q0 -80 31.5 -131.5t98.5 -110.5l216 -188q54 -49 94 -95t76.5 -105t55.5 -130t19 -150q0 -181 -114.5 -294t-300.5 -113z" />
    <glyph glyph-name="sacute" unicode="&#x15b;" horiz-adv-x="812" 
d="M326 1324l122 409h283l-246 -409h-159zM414 -19q-147 0 -241 82t-129 236l212 77q22 -98 62 -148.5t100 -48.5q44 1 72.5 31.5t26.5 74.5q-4 64 -117 161l-159 136q-172 148 -168 309q3 142 96.5 226.5t238.5 84.5q139 0 226 -84t113 -225l-184 -77q-38 184 -142 185
q-44 1 -70.5 -27t-26.5 -67q-1 -54 99 -141l162 -147q41 -36 68 -64.5t56.5 -69.5t44 -88t14.5 -101q0 -150 -99.5 -232.5t-254.5 -82.5z" />
    <glyph glyph-name="Scircumflex" unicode="&#x15c;" horiz-adv-x="1010" 
d="M207 1799l184 372h254l187 -372h-208l-105 240l-105 -240h-207zM542 -20q-438 0 -460 506l263 55q10 -329 188 -329q69 0 102.5 42t33.5 113q0 69 -25 126.5t-58 94t-94 90.5l-218 189q-96 84 -143 174.5t-47 226.5q0 193 113.5 300t311.5 109q91 1 161 -22.5t115.5 -63
t76 -98.5t45.5 -122.5t21 -141.5l-258 -51q-2 50 -6.5 87t-15.5 75t-28.5 61.5t-47 37.5t-68.5 11q-67 -4 -102.5 -44.5t-35.5 -108.5q0 -80 31.5 -131.5t98.5 -110.5l216 -188q54 -49 94 -95t76.5 -105t55.5 -130t19 -150q0 -181 -114.5 -294t-300.5 -113z" />
    <glyph glyph-name="scircumflex" unicode="&#x15d;" horiz-adv-x="812" 
d="M93 1324l184 372h254l187 -372h-208l-105 240l-105 -240h-207zM414 -19q-147 0 -241 82t-129 236l212 77q22 -98 62 -148.5t100 -48.5q44 1 72.5 31.5t26.5 74.5q-4 64 -117 161l-159 136q-172 148 -168 309q3 142 96.5 226.5t238.5 84.5q139 0 226 -84t113 -225
l-184 -77q-38 184 -142 185q-44 1 -70.5 -27t-26.5 -67q-1 -54 99 -141l162 -147q41 -36 68 -64.5t56.5 -69.5t44 -88t14.5 -101q0 -150 -99.5 -232.5t-254.5 -82.5z" />
    <glyph glyph-name="Scedilla" unicode="&#x15e;" horiz-adv-x="1010" 
d="M431 -504v129q48 -14 101.5 -16.5t96 14t43.5 52.5q0 29 -15 50.5t-46 35t-56.5 20.5t-65.5 15v204h121v-126q104 -10 178.5 -60t77.5 -130q3 -72 -36 -122t-102.5 -70.5t-141.5 -20t-155 24.5zM542 -20q-438 0 -460 506l263 55q10 -329 188 -329q69 0 102.5 42t33.5 113
q0 69 -25 126.5t-58 94t-94 90.5l-218 189q-96 84 -143 174.5t-47 226.5q0 193 113.5 300t311.5 109q91 1 161 -22.5t115.5 -63t76 -98.5t45.5 -122.5t21 -141.5l-258 -51q-2 50 -6.5 87t-15.5 75t-28.5 61.5t-47 37.5t-68.5 11q-67 -4 -102.5 -44.5t-35.5 -108.5
q0 -80 31.5 -131.5t98.5 -110.5l216 -188q54 -49 94 -95t76.5 -105t55.5 -130t19 -150q0 -181 -114.5 -294t-300.5 -113z" />
    <glyph glyph-name="scedilla" unicode="&#x15f;" horiz-adv-x="812" 
d="M331 -504v129q48 -14 101.5 -16.5t96 14t43.5 52.5q0 29 -15 50.5t-46 35t-56.5 20.5t-65.5 15v204h121v-126q104 -10 178.5 -60t77.5 -130q3 -72 -36 -122t-102.5 -70.5t-141.5 -20t-155 24.5zM414 -19q-147 0 -241 82t-129 236l212 77q22 -98 62 -148.5t100 -48.5
q44 1 72.5 31.5t26.5 74.5q-4 64 -117 161l-159 136q-172 148 -168 309q3 142 96.5 226.5t238.5 84.5q139 0 226 -84t113 -225l-184 -77q-38 184 -142 185q-44 1 -70.5 -27t-26.5 -67q-1 -54 99 -141l162 -147q41 -36 68 -64.5t56.5 -69.5t44 -88t14.5 -101
q0 -150 -99.5 -232.5t-254.5 -82.5z" />
    <glyph glyph-name="Scaron" unicode="&#x160;" horiz-adv-x="1010" 
d="M381 1799l-177 367h203l111 -231l112 231h205l-180 -367h-274zM542 -20q-438 0 -460 506l263 55q10 -329 188 -329q69 0 102.5 42t33.5 113q0 69 -25 126.5t-58 94t-94 90.5l-218 189q-96 84 -143 174.5t-47 226.5q0 193 113.5 300t311.5 109q91 1 161 -22.5t115.5 -63
t76 -98.5t45.5 -122.5t21 -141.5l-258 -51q-2 50 -6.5 87t-15.5 75t-28.5 61.5t-47 37.5t-68.5 11q-67 -4 -102.5 -44.5t-35.5 -108.5q0 -80 31.5 -131.5t98.5 -110.5l216 -188q54 -49 94 -95t76.5 -105t55.5 -130t19 -150q0 -181 -114.5 -294t-300.5 -113z" />
    <glyph glyph-name="scaron" unicode="&#x161;" horiz-adv-x="812" 
d="M267 1324l-177 367h203l111 -231l112 231h205l-180 -367h-274zM414 -19q-147 0 -241 82t-129 236l212 77q22 -98 62 -148.5t100 -48.5q44 1 72.5 31.5t26.5 74.5q-4 64 -117 161l-159 136q-172 148 -168 309q3 142 96.5 226.5t238.5 84.5q139 0 226 -84t113 -225
l-184 -77q-38 184 -142 185q-44 1 -70.5 -27t-26.5 -67q-1 -54 99 -141l162 -147q41 -36 68 -64.5t56.5 -69.5t44 -88t14.5 -101q0 -150 -99.5 -232.5t-254.5 -82.5z" />
    <glyph glyph-name="Tcommaaccent" unicode="&#x162;" horiz-adv-x="865" 
d="M341 -504v129q48 -14 101.5 -16.5t96 14t43.5 52.5q0 29 -15 50.5t-46 35t-56.5 20.5t-65.5 15v204h121v-126q104 -10 178.5 -60t77.5 -130q3 -72 -36 -122t-102.5 -70.5t-141.5 -20t-155 24.5zM286 0v1435h-278v223h849v-223h-269v-1435h-302z" />
    <glyph glyph-name="tcommaaccent" unicode="&#x163;" horiz-adv-x="680" 
d="M301 -504v129q48 -14 101.5 -16.5t96 14t43.5 52.5q0 29 -15 50.5t-46 35t-56.5 20.5t-65.5 15v204h121v-126q104 -10 178.5 -60t77.5 -130q3 -72 -36 -122t-102.5 -70.5t-141.5 -20t-155 24.5zM437 -16q-81 1 -137.5 27t-87 74.5t-44 108.5t-13.5 140v665h-117v185h117
v348h281v-348h180v-185h-180v-683q0 -58 25.5 -83.5t81.5 -26.5q39 -1 85 6v-214q-119 -16 -191 -14z" />
    <glyph glyph-name="Tcaron" unicode="&#x164;" horiz-adv-x="865" 
d="M294 1799l-177 367h203l111 -231l112 231h205l-180 -367h-274zM286 0v1435h-278v223h849v-223h-269v-1435h-302z" />
    <glyph glyph-name="tcaron" unicode="&#x165;" horiz-adv-x="730" 
d="M643 1322v558h238l-95 -558h-143zM437 -16q-81 1 -137.5 27t-87 74.5t-44 108.5t-13.5 140v665h-117v185h117v348h281v-348h180v-185h-180v-683q0 -58 25.5 -83.5t81.5 -26.5q39 -1 85 6v-214q-119 -16 -191 -14z" />
    <glyph glyph-name="Tbar" unicode="&#x166;" horiz-adv-x="865" 
d="M88 776v157h198v502h-278v223h849v-223h-269v-502h193v-157h-193v-776h-302v776h-198z" />
    <glyph glyph-name="tbar" unicode="&#x167;" horiz-adv-x="582" 
d="M437 -16q-81 1 -137.5 27t-87 74.5t-44 108.5t-13.5 140v326h-114v130h114v209h-117v185h117v348h281v-348h180v-185h-180v-209h192v-130h-192v-344q0 -58 25.5 -83.5t81.5 -26.5q39 -1 85 6v-214q-119 -16 -191 -14z" />
    <glyph glyph-name="Utilde" unicode="&#x168;" horiz-adv-x="1154" 
d="M740 1799q-42 -2 -99 23t-108.5 50.5t-78.5 25.5q-51 0 -51 -83h-146q0 121 39.5 187.5t137.5 70.5q47 2 104.5 -21.5t104.5 -48t67 -25.5q27 -2 38 17.5t11 62.5h139q0 -55 -7 -97.5t-23.5 -80.5t-48.5 -59t-79 -22zM578 -20q-111 0 -192.5 26t-134 73t-84 120.5
t-44 159t-12.5 198.5v1101h293v-1132q0 -58 3 -99t13 -86t28.5 -72t51 -45t78.5 -18t78.5 18t50 45t28 72t13 85.5t2.5 99.5v1132h293v-1101q0 -113 -12.5 -198.5t-44 -159t-83.5 -120.5t-133.5 -73t-191.5 -26z" />
    <glyph glyph-name="utilde" unicode="&#x169;" horiz-adv-x="966" 
d="M640 1324q-42 -2 -99 23t-108.5 50.5t-78.5 25.5q-51 0 -51 -83h-146q0 121 39.5 187.5t137.5 70.5q47 2 104.5 -21.5t104.5 -48t67 -25.5q27 -2 38 17.5t11 62.5h139q0 -55 -7 -97.5t-23.5 -80.5t-48.5 -59t-79 -22zM293 -18q-101 0 -147.5 74t-46.5 182v946h279v-889
q0 -55 17 -82t63 -26q49 0 120 50v947h279v-1184h-279v111q-141 -129 -285 -129z" />
    <glyph glyph-name="Umacron" unicode="&#x16a;" horiz-adv-x="1154" 
d="M341 1799v148h471v-148h-471zM578 -20q-111 0 -192.5 26t-134 73t-84 120.5t-44 159t-12.5 198.5v1101h293v-1132q0 -58 3 -99t13 -86t28.5 -72t51 -45t78.5 -18t78.5 18t50 45t28 72t13 85.5t2.5 99.5v1132h293v-1101q0 -113 -12.5 -198.5t-44 -159t-83.5 -120.5
t-133.5 -73t-191.5 -26z" />
    <glyph glyph-name="umacron" unicode="&#x16b;" horiz-adv-x="966" 
d="M243 1324v148h471v-148h-471zM293 -18q-101 0 -147.5 74t-46.5 182v946h279v-889q0 -55 17 -82t63 -26q49 0 120 50v947h279v-1184h-279v111q-141 -129 -285 -129z" />
    <glyph glyph-name="Ubreve" unicode="&#x16c;" horiz-adv-x="1154" 
d="M577 1799q-150 0 -221.5 78t-71.5 212h141q0 -82 37 -119t115 -37t115 37t37 119h142q0 -134 -71.5 -212t-222.5 -78zM578 -20q-111 0 -192.5 26t-134 73t-84 120.5t-44 159t-12.5 198.5v1101h293v-1132q0 -58 3 -99t13 -86t28.5 -72t51 -45t78.5 -18t78.5 18t50 45
t28 72t13 85.5t2.5 99.5v1132h293v-1101q0 -113 -12.5 -198.5t-44 -159t-83.5 -120.5t-133.5 -73t-191.5 -26z" />
    <glyph glyph-name="ubreve" unicode="&#x16d;" horiz-adv-x="966" 
d="M477 1324q-150 0 -221.5 78t-71.5 212h141q0 -82 37 -119t115 -37t115 37t37 119h142q0 -134 -71.5 -212t-222.5 -78zM293 -18q-101 0 -147.5 74t-46.5 182v946h279v-889q0 -55 17 -82t63 -26q49 0 120 50v947h279v-1184h-279v111q-141 -129 -285 -129z" />
    <glyph glyph-name="Uring" unicode="&#x16e;" horiz-adv-x="1154" 
d="M576 1918q52 0 81.5 31.5t29.5 82.5t-29.5 82.5t-81.5 31.5t-81.5 -31.5t-29.5 -82.5t29.5 -82.5t81.5 -31.5zM576 1799q-106 0 -171.5 63t-65.5 170t66 169.5t171 62.5q106 0 172.5 -62.5t66.5 -169.5t-66.5 -170t-172.5 -63zM578 -20q-111 0 -192.5 26t-134 73
t-84 120.5t-44 159t-12.5 198.5v1101h293v-1132q0 -58 3 -99t13 -86t28.5 -72t51 -45t78.5 -18t78.5 18t50 45t28 72t13 85.5t2.5 99.5v1132h293v-1101q0 -113 -12.5 -198.5t-44 -159t-83.5 -120.5t-133.5 -73t-191.5 -26z" />
    <glyph glyph-name="uring" unicode="&#x16f;" horiz-adv-x="966" 
d="M477 1443q52 0 81.5 31.5t29.5 82.5t-29.5 82.5t-81.5 31.5t-81.5 -31.5t-29.5 -82.5t29.5 -82.5t81.5 -31.5zM477 1324q-106 0 -171.5 63t-65.5 170t66 169.5t171 62.5q106 0 172.5 -62.5t66.5 -169.5t-66.5 -170t-172.5 -63zM293 -18q-101 0 -147.5 74t-46.5 182v946
h279v-889q0 -55 17 -82t63 -26q49 0 120 50v947h279v-1184h-279v111q-141 -129 -285 -129z" />
    <glyph glyph-name="Uhungarumlaut" unicode="&#x170;" horiz-adv-x="1154" 
d="M661 1799l125 394h261l-242 -394h-144zM350 1799l98 394h226l-183 -394h-141zM578 -20q-111 0 -192.5 26t-134 73t-84 120.5t-44 159t-12.5 198.5v1101h293v-1132q0 -58 3 -99t13 -86t28.5 -72t51 -45t78.5 -18t78.5 18t50 45t28 72t13 85.5t2.5 99.5v1132h293v-1101
q0 -113 -12.5 -198.5t-44 -159t-83.5 -120.5t-133.5 -73t-191.5 -26z" />
    <glyph glyph-name="uhungarumlaut" unicode="&#x171;" horiz-adv-x="966" 
d="M561 1324l125 394h261l-242 -394h-144zM250 1324l98 394h226l-183 -394h-141zM293 -18q-101 0 -147.5 74t-46.5 182v946h279v-889q0 -55 17 -82t63 -26q49 0 120 50v947h279v-1184h-279v111q-141 -129 -285 -129z" />
    <glyph glyph-name="Uogonek" unicode="&#x172;" horiz-adv-x="1154" 
d="M718 -492q-58 -1 -96 0.5t-87.5 6.5t-80.5 18t-60.5 34t-43.5 55.5t-14 81.5q0 91 62 180t141 128h134q-7 -13 -50 -78t-64 -113.5t-21 -93.5q0 -25 12 -42t27.5 -25t43.5 -12t46 -4t49 1t40 1zM578 -20q-111 0 -192.5 26t-134 73t-84 120.5t-44 159t-12.5 198.5v1101
h293v-1132q0 -58 3 -99t13 -86t28.5 -72t51 -45t78.5 -18t78.5 18t50 45t28 72t13 85.5t2.5 99.5v1132h293v-1101q0 -113 -12.5 -198.5t-44 -159t-83.5 -120.5t-133.5 -73t-191.5 -26z" />
    <glyph glyph-name="uogonek" unicode="&#x173;" horiz-adv-x="966" 
d="M827 -492q-58 -1 -96 0.5t-87.5 6.5t-80.5 18t-60.5 34t-43.5 55.5t-14 81.5q0 91 62 180t141 128h134q-7 -13 -50 -78t-64 -113.5t-21 -93.5q0 -25 12 -42t27.5 -25t43.5 -12t46 -4t49 1t40 1zM293 -18q-101 0 -147.5 74t-46.5 182v946h279v-889q0 -55 17 -82t63 -26
q49 0 120 50v947h279v-1184h-279v111q-141 -129 -285 -129z" />
    <glyph glyph-name="Wcircumflex" unicode="&#x174;" horiz-adv-x="1470" 
d="M423 1799l184 372h254l187 -372h-208l-105 240l-105 -240h-207zM304 0l-237 1658h254l136 -1069l177 1069h203l181 -1070l136 1070h249l-237 -1658h-241l-187 1107l-186 -1107h-248z" />
    <glyph glyph-name="wcircumflex" unicode="&#x175;" horiz-adv-x="1217" 
d="M296 1324l184 372h254l187 -372h-208l-105 240l-105 -240h-207zM233 0l-182 1184h231l102 -767l126 767h205l119 -772l110 772h222l-188 -1184h-237l-130 741l-136 -741h-242z" />
    <glyph glyph-name="Ycircumflex" unicode="&#x176;" horiz-adv-x="1001" 
d="M187 1799l184 372h254l187 -372h-208l-105 240l-105 -240h-207zM357 0v631l-338 1027h282l205 -660l196 660h279l-336 -1027v-631h-288z" />
    <glyph glyph-name="ycircumflex" unicode="&#x177;" horiz-adv-x="855" 
d="M112 1324l184 372h254l187 -372h-208l-105 240l-105 -240h-207zM113 -317v202q128 0 168.5 24.5t26.5 103.5q-13 70 -41 174q-28 118 -128 504t-126 493h274l147 -778l129 778h273l-281 -1246q-31 -140 -134.5 -198t-273.5 -57h-34z" />
    <glyph glyph-name="Ydieresis" unicode="&#x178;" horiz-adv-x="1001" 
d="M570 1799v266h252v-266h-252zM177 1799v266h251v-266h-251zM357 0v631l-338 1027h282l205 -660l196 660h279l-336 -1027v-631h-288z" />
    <glyph glyph-name="Zacute" unicode="&#x179;" horiz-adv-x="870" 
d="M368 1799l122 409h283l-246 -409h-159zM72 0v198l440 1251h-418v209h727v-149l-461 -1300h462v-209h-750z" />
    <glyph glyph-name="zacute" unicode="&#x17a;" horiz-adv-x="754" 
d="M306 1324l122 409h283l-246 -409h-159zM68 0v184l341 793h-310v207h605v-161l-341 -815h338v-208h-633z" />
    <glyph glyph-name="Zdotaccent" unicode="&#x17b;" horiz-adv-x="870" 
d="M311 1799v277h272v-277h-272zM72 0v198l440 1251h-418v209h727v-149l-461 -1300h462v-209h-750z" />
    <glyph glyph-name="zdotaccent" unicode="&#x17c;" horiz-adv-x="754" 
d="M250 1324v277h272v-277h-272zM68 0v184l341 793h-310v207h605v-161l-341 -815h338v-208h-633z" />
    <glyph glyph-name="Zcaron" unicode="&#x17d;" horiz-adv-x="870" 
d="M309 1799l-177 367h203l111 -231l112 231h205l-180 -367h-274zM72 0v198l440 1251h-418v209h727v-149l-461 -1300h462v-209h-750z" />
    <glyph glyph-name="zcaron" unicode="&#x17e;" horiz-adv-x="754" 
d="M247 1324l-177 367h203l111 -231l112 231h205l-180 -367h-274zM68 0v184l341 793h-310v207h605v-161l-341 -815h338v-208h-633z" />
    <glyph glyph-name="florin" unicode="&#x192;" horiz-adv-x="851" 
d="M170 -293q-57 0 -150 11l20 208q53 -10 75 -10q50 0 73.5 31.5t29.5 92.5l94 941h-124v203h145l7 71q7 71 18 121t34 96.5t58 74t89.5 44t129.5 16.5q57 0 151 -11l-21 -208q-8 1 -34.5 5.5t-39.5 4.5q-50 0 -73.5 -31.5t-29.5 -91.5l-9 -91h143v-203h-164l-93 -923
q-7 -72 -18 -121.5t-34 -96t-57.5 -74t-89.5 -43.5t-130 -16z" />
    <glyph glyph-name="uni01C4" unicode="&#x1c4;" horiz-adv-x="2003" 
d="M1442 1799l-177 367h203l111 -231l112 231h205l-180 -367h-274zM1205 0v198l440 1251h-418v209h727v-149l-461 -1300h462v-209h-750zM124 0v1658h386q150 0 251 -30t162 -95t86.5 -159.5t25.5 -232.5v-598q0 -142 -26 -241t-85.5 -168t-158.5 -101.5t-243 -32.5h-398z
M426 212h86q45 0 79 8t57 19t38.5 36t23.5 46t12 63.5t5 72.5t1 89v606q0 59 -2 95t-9.5 72.5t-22 56.5t-38.5 36.5t-60 23t-87 6.5h-83v-1230z" />
    <glyph glyph-name="uni01C5" unicode="&#x1c5;" horiz-adv-x="1887" 
d="M1380 1324l-177 367h203l111 -231l112 231h205l-180 -367h-274zM1201 0v184l341 793h-310v207h605v-161l-341 -815h338v-208h-633zM124 0v1658h386q150 0 251 -30t162 -95t86.5 -159.5t25.5 -232.5v-598q0 -142 -26 -241t-85.5 -168t-158.5 -101.5t-243 -32.5h-398z
M426 212h86q45 0 79 8t57 19t38.5 36t23.5 46t12 63.5t5 72.5t1 89v606q0 59 -2 95t-9.5 72.5t-22 56.5t-38.5 36.5t-60 23t-87 6.5h-83v-1230z" />
    <glyph glyph-name="uni01C6" unicode="&#x1c6;" horiz-adv-x="1723" 
d="M1216 1324l-177 367h203l111 -231l112 231h205l-180 -367h-274zM1037 0v184l341 793h-310v207h605v-161l-341 -815h338v-208h-633zM474 181q51 0 108 32v756q-57 36 -109 36q-56 0 -80.5 -51t-24.5 -130v-434q0 -64 7 -106t31.5 -72.5t67.5 -30.5zM376 -19
q-145 0 -217 103t-72 327v344q0 95 14.5 172t46 141t88.5 99t136 35q112 0 210 -91v547h280v-1658h-280v81q-95 -99 -206 -100z" />
    <glyph glyph-name="uni01C7" unicode="&#x1c7;" horiz-adv-x="1526" 
d="M878 -35v212q133 -1 177 40t44 169v1272h302l-1 -1279q-1 -109 -18.5 -183.5t-60 -128t-116 -78t-182.5 -24.5h-145zM124 0v1658h302v-1449h397v-209h-699z" />
    <glyph glyph-name="uni01C8" unicode="&#x1c8;" horiz-adv-x="1377" 
d="M993 1371v236h282v-236h-282zM829 -307v200q37 -7 59 -7q106 0 106 121v1177h279v-1209q0 -140 -78.5 -221t-220.5 -81q-86 0 -145 20zM124 0v1658h302v-1449h397v-209h-699z" />
    <glyph glyph-name="uni01C9" unicode="&#x1c9;" horiz-adv-x="1036" 
d="M652 1371v236h282v-236h-282zM488 -307v200q37 -7 59 -7q106 0 106 121v1177h279v-1209q0 -140 -78.5 -221t-220.5 -81q-86 0 -145 20zM125 0v1658h280v-1658h-280z" />
    <glyph glyph-name="uni01CA" unicode="&#x1ca;" horiz-adv-x="1779" 
d="M1131 -35v212q133 -1 177 40t44 169v1272h302l-1 -1279q-1 -109 -18.5 -183.5t-60 -128t-116 -78t-182.5 -24.5h-145zM124 0v1658h208l406 -939v939h250v-1658h-198l-410 987v-987h-256z" />
    <glyph glyph-name="uni01CB" unicode="&#x1cb;" horiz-adv-x="1630" 
d="M1246 1371v236h282v-236h-282zM1082 -307v200q37 -7 59 -7q106 0 106 121v1177h279v-1209q0 -140 -78.5 -221t-220.5 -81q-86 0 -145 20zM124 0v1658h208l406 -939v939h250v-1658h-198l-410 987v-987h-256z" />
    <glyph glyph-name="uni01CC" unicode="&#x1cc;" horiz-adv-x="1488" 
d="M1104 1371v236h282v-236h-282zM940 -307v200q37 -7 59 -7q106 0 106 121v1177h279v-1209q0 -140 -78.5 -221t-220.5 -81q-86 0 -145 20zM107 0v1184h280v-116q143 134 289 134q101 0 147.5 -74t46.5 -182v-946h-280v884q0 56 -16 83t-62 26q-52 -1 -125 -54v-939h-280z
" />
    <glyph glyph-name="uni01F1" unicode="&#x1f1;" horiz-adv-x="2003" 
d="M1205 0v198l440 1251h-418v209h727v-149l-461 -1300h462v-209h-750zM124 0v1658h386q150 0 251 -30t162 -95t86.5 -159.5t25.5 -232.5v-598q0 -142 -26 -241t-85.5 -168t-158.5 -101.5t-243 -32.5h-398zM426 212h86q45 0 79 8t57 19t38.5 36t23.5 46t12 63.5t5 72.5t1 89
v606q0 59 -2 95t-9.5 72.5t-22 56.5t-38.5 36.5t-60 23t-87 6.5h-83v-1230z" />
    <glyph glyph-name="uni01F2" unicode="&#x1f2;" horiz-adv-x="1887" 
d="M1201 0v184l341 793h-310v207h605v-161l-341 -815h338v-208h-633zM124 0v1658h386q150 0 251 -30t162 -95t86.5 -159.5t25.5 -232.5v-598q0 -142 -26 -241t-85.5 -168t-158.5 -101.5t-243 -32.5h-398zM426 212h86q45 0 79 8t57 19t38.5 36t23.5 46t12 63.5t5 72.5t1 89
v606q0 59 -2 95t-9.5 72.5t-22 56.5t-38.5 36.5t-60 23t-87 6.5h-83v-1230z" />
    <glyph glyph-name="uni01F3" unicode="&#x1f3;" horiz-adv-x="1723" 
d="M1037 0v184l341 793h-310v207h605v-161l-341 -815h338v-208h-633zM474 181q51 0 108 32v756q-57 36 -109 36q-56 0 -80.5 -51t-24.5 -130v-434q0 -64 7 -106t31.5 -72.5t67.5 -30.5zM376 -19q-145 0 -217 103t-72 327v344q0 95 14.5 172t46 141t88.5 99t136 35
q112 0 210 -91v547h280v-1658h-280v81q-95 -99 -206 -100z" />
    <glyph glyph-name="uni01F4" unicode="&#x1f4;" horiz-adv-x="1142" 
d="M488 1799l122 409h283l-246 -409h-159zM539 -22q-235 0 -338.5 147t-103.5 428v540q0 143 22.5 246.5t75.5 181.5t146 117t228 39q246 0 353 -120.5t107 -365.5v-81h-289v86q0 55 -2.5 90t-12 70.5t-27.5 54.5t-49 31t-76 12q-34 0 -60.5 -8.5t-44.5 -21t-30.5 -35.5
t-19 -44.5t-10 -55.5t-4.5 -60t-1 -67v-669q0 -150 37 -219.5t141 -69.5q54 0 90.5 20.5t57 62t29 95t8.5 129.5v136h-179v195h451v-842h-196l-22 168q-75 -190 -281 -190z" />
    <glyph glyph-name="uni01F5" unicode="&#x1f5;" horiz-adv-x="950" 
d="M431 1351l122 409h283l-246 -409h-159zM460 544q70 0 91 52t21 184q0 136 -20 189t-90 53q-71 0 -92 -53.5t-21 -188.5q0 -48 2 -81.5t9 -64.5t19 -49.5t32 -29.5t49 -11zM514 -162q86 0 125.5 22t40.5 71q3 53 -27 77.5t-109 31.5l-188 18q-61 -71 -61 -131
q0 -32 15.5 -50t64 -28.5t139.5 -10.5zM516 -359q-53 0 -92.5 1t-91.5 5.5t-89.5 13t-77 23.5t-64 35.5t-40.5 52t-16 70.5q0 149 167 251q-120 41 -127 133q-5 64 27 110.5t109 109.5q-66 50 -99 125t-33 201q0 218 94.5 324t273.5 106q184 0 254 -116q22 27 66.5 64
t93.5 61l39 18l66 -156q-35 -9 -106 -36t-95 -42q19 -35 33 -98.5t14 -127.5q0 -406 -355 -406q-29 0 -79.5 8.5t-65.5 14.5q-34 -51 -32 -78q3 -40 104 -50q12 -2 106 -11.5t110 -11.5q149 -16 218 -86.5t69 -201.5q0 -157 -88 -231.5t-293 -74.5z" />
    <glyph glyph-name="uni0200" unicode="&#x200;" horiz-adv-x="1065" 
d="M614 1799l-168 385h214l99 -385h-145zM304 1799l-224 385h246l124 -385h-146zM423 582h222l-111 681zM38 0l337 1658h315l336 -1658h-281l-67 385h-287l-68 -385h-285z" />
    <glyph glyph-name="uni0201" unicode="&#x201;" horiz-adv-x="927" 
d="M548 1324l-168 385h214l99 -385h-145zM238 1324l-224 385h246l124 -385h-146zM442 198q32 0 63.5 24t50.5 49v326q-208 -115 -208 -261q0 -64 24.5 -101t69.5 -37zM335 -19q-112 1 -183.5 87.5t-71.5 195.5q0 103 34 180t111.5 132t128.5 80t157 66l45 18v99
q0 80 -18.5 117t-75.5 37q-93 0 -95 -130l-4 -74l-268 10q0 6 0.5 22t0.5 21q13 186 110.5 273t278.5 87q175 0 259.5 -95t84.5 -269v-541q0 -136 22 -297h-253q-23 116 -29 174q-25 -82 -83.5 -137.5t-150.5 -55.5z" />
    <glyph glyph-name="uni0202" unicode="&#x202;" horiz-adv-x="1065" 
d="M262 1799q0 290 271 290q270 0 270 -290h-141q0 84 -28.5 120t-100.5 36q-71 0 -100 -36.5t-29 -119.5h-142zM423 582h222l-111 681zM38 0l337 1658h315l336 -1658h-281l-67 385h-287l-68 -385h-285z" />
    <glyph glyph-name="uni0203" unicode="&#x203;" horiz-adv-x="927" 
d="M195 1324q0 290 271 290q270 0 270 -290h-141q0 84 -28.5 120t-100.5 36q-71 0 -100 -36.5t-29 -119.5h-142zM442 198q32 0 63.5 24t50.5 49v326q-208 -115 -208 -261q0 -64 24.5 -101t69.5 -37zM335 -19q-112 1 -183.5 87.5t-71.5 195.5q0 103 34 180t111.5 132
t128.5 80t157 66l45 18v99q0 80 -18.5 117t-75.5 37q-93 0 -95 -130l-4 -74l-268 10q0 6 0.5 22t0.5 21q13 186 110.5 273t278.5 87q175 0 259.5 -95t84.5 -269v-541q0 -136 22 -297h-253q-23 116 -29 174q-25 -82 -83.5 -137.5t-150.5 -55.5z" />
    <glyph glyph-name="uni0204" unicode="&#x204;" 
d="M556 1799l-168 385h214l99 -385h-145zM246 1799l-224 385h246l124 -385h-146zM124 0v1658h694v-213h-392v-476h310v-213h-310v-547h397v-209h-699z" />
    <glyph glyph-name="uni0205" unicode="&#x205;" horiz-adv-x="915" 
d="M540 1324l-168 385h214l99 -385h-145zM230 1324l-224 385h246l124 -385h-146zM363 718h202v113q0 90 -22.5 129t-79.5 39q-58 0 -79 -44t-21 -160v-77zM466 -19q-203 0 -292 112t-89 331v335q0 219 90 331t290 112q106 0 178.5 -31t113 -94t57.5 -145.5t17 -198.5v-155
h-468v-178q0 -37 0.5 -57.5t3.5 -49.5t9.5 -45t17.5 -32.5t29 -23.5t42 -7q56 0 78 39.5t22 114.5v68h265v-47q0 -184 -91.5 -281.5t-272.5 -97.5z" />
    <glyph glyph-name="uni0206" unicode="&#x206;" 
d="M203 1799q0 290 271 290q270 0 270 -290h-141q0 84 -28.5 120t-100.5 36q-71 0 -100 -36.5t-29 -119.5h-142zM124 0v1658h694v-213h-392v-476h310v-213h-310v-547h397v-209h-699z" />
    <glyph glyph-name="uni0207" unicode="&#x207;" horiz-adv-x="915" 
d="M188 1324q0 290 271 290q270 0 270 -290h-141q0 84 -28.5 120t-100.5 36q-71 0 -100 -36.5t-29 -119.5h-142zM363 718h202v113q0 90 -22.5 129t-79.5 39q-58 0 -79 -44t-21 -160v-77zM466 -19q-203 0 -292 112t-89 331v335q0 219 90 331t290 112q106 0 178.5 -31t113 -94
t57.5 -145.5t17 -198.5v-155h-468v-178q0 -37 0.5 -57.5t3.5 -49.5t9.5 -45t17.5 -32.5t29 -23.5t42 -7q56 0 78 39.5t22 114.5v68h265v-47q0 -184 -91.5 -281.5t-272.5 -97.5z" />
    <glyph glyph-name="uni0208" unicode="&#x208;" horiz-adv-x="562" 
d="M364 1799l-168 385h214l99 -385h-145zM54 1799l-224 385h246l124 -385h-146zM133 0v1658h298v-1658h-298z" />
    <glyph glyph-name="uni0209" unicode="&#x209;" horiz-adv-x="517" 
d="M345 1324l-168 385h214l99 -385h-145zM35 1324l-224 385h246l124 -385h-146zM123 0v1184h279v-1184h-279z" />
    <glyph glyph-name="uni020A" unicode="&#x20a;" horiz-adv-x="562" 
d="M12 1799q0 290 271 290q270 0 270 -290h-141q0 84 -28.5 120t-100.5 36q-71 0 -100 -36.5t-29 -119.5h-142zM133 0v1658h298v-1658h-298z" />
    <glyph glyph-name="uni020B" unicode="&#x20b;" horiz-adv-x="517" 
d="M-8 1324q0 290 271 290q270 0 270 -290h-141q0 84 -28.5 120t-100.5 36q-71 0 -100 -36.5t-29 -119.5h-142zM123 0v1184h279v-1184h-279z" />
    <glyph glyph-name="uni020C" unicode="&#x20c;" horiz-adv-x="1150" 
d="M658 1799l-168 385h214l99 -385h-145zM348 1799l-224 385h246l124 -385h-146zM575 -20q-256 0 -367 139t-111 407v612q0 132 25 229t80.5 168t148.5 106.5t224 35.5q255 0 366.5 -137t111.5 -402v-612q0 -130 -25.5 -228.5t-81 -171t-148.5 -109.5t-223 -37zM575 204
q44 0 75 13t49.5 34t29 55t14 68t3.5 81v753q0 60 -6 100t-23.5 75.5t-52.5 53t-89 17.5t-89.5 -17.5t-52.5 -53t-23 -75.5t-6 -100v-753q0 -47 3.5 -81t14 -68t28.5 -55t49.5 -34t75.5 -13z" />
    <glyph glyph-name="uni020D" unicode="&#x20d;" horiz-adv-x="929" 
d="M547 1324l-168 385h214l99 -385h-145zM237 1324l-224 385h246l124 -385h-146zM463 -19q-191 0 -284.5 107.5t-93.5 307.5v391q0 200 93.5 307.5t284.5 107.5q192 0 286.5 -107.5t94.5 -307.5v-391q0 -200 -94.5 -307.5t-286.5 -107.5zM464 178q34 0 55.5 15t31 46.5
t12.5 61t3 76.5v429q0 37 -1.5 61.5t-7 53.5t-16.5 45.5t-30 28t-47 11.5q-34 0 -55.5 -15.5t-31 -47t-12.5 -61t-3 -76.5v-429q0 -37 1.5 -61.5t7 -53t16.5 -45t30 -28t47 -11.5z" />
    <glyph glyph-name="uni020E" unicode="&#x20e;" horiz-adv-x="1150" 
d="M304 1799q0 290 271 290q270 0 270 -290h-141q0 84 -28.5 120t-100.5 36q-71 0 -100 -36.5t-29 -119.5h-142zM575 -20q-256 0 -367 139t-111 407v612q0 132 25 229t80.5 168t148.5 106.5t224 35.5q255 0 366.5 -137t111.5 -402v-612q0 -130 -25.5 -228.5t-81 -171
t-148.5 -109.5t-223 -37zM575 204q44 0 75 13t49.5 34t29 55t14 68t3.5 81v753q0 60 -6 100t-23.5 75.5t-52.5 53t-89 17.5t-89.5 -17.5t-52.5 -53t-23 -75.5t-6 -100v-753q0 -47 3.5 -81t14 -68t28.5 -55t49.5 -34t75.5 -13z" />
    <glyph glyph-name="uni020F" unicode="&#x20f;" horiz-adv-x="929" 
d="M194 1324q0 290 271 290q270 0 270 -290h-141q0 84 -28.5 120t-100.5 36q-71 0 -100 -36.5t-29 -119.5h-142zM463 -19q-191 0 -284.5 107.5t-93.5 307.5v391q0 200 93.5 307.5t284.5 107.5q192 0 286.5 -107.5t94.5 -307.5v-391q0 -200 -94.5 -307.5t-286.5 -107.5z
M464 178q34 0 55.5 15t31 46.5t12.5 61t3 76.5v429q0 37 -1.5 61.5t-7 53.5t-16.5 45.5t-30 28t-47 11.5q-34 0 -55.5 -15.5t-31 -47t-12.5 -61t-3 -76.5v-429q0 -37 1.5 -61.5t7 -53t16.5 -45t30 -28t47 -11.5z" />
    <glyph glyph-name="uni0210" unicode="&#x210;" horiz-adv-x="1136" 
d="M675 1799l-168 385h214l99 -385h-145zM365 1799l-224 385h246l124 -385h-146zM426 950h73q134 0 190.5 57t56.5 195q0 133 -49 190.5t-180 57.5h-91v-500zM124 0v1658h380q131 0 225 -21.5t163.5 -72t104 -137t34.5 -211.5q0 -156 -46.5 -255t-153.5 -144l230 -817h-303
l-198 757h-134v-757h-302z" />
    <glyph glyph-name="uni0211" unicode="&#x211;" horiz-adv-x="710" 
d="M479 1324l-168 385h214l99 -385h-145zM169 1324l-224 385h246l124 -385h-146zM111 0v1184h280v-182q59 105 119.5 151t129.5 46q21 0 42 -5v-277q-47 18 -97 18q-60 -2 -105.5 -30t-88.5 -93v-812h-280z" />
    <glyph glyph-name="uni0212" unicode="&#x212;" horiz-adv-x="1136" 
d="M322 1799q0 290 271 290q270 0 270 -290h-141q0 84 -28.5 120t-100.5 36q-71 0 -100 -36.5t-29 -119.5h-142zM426 950h73q134 0 190.5 57t56.5 195q0 133 -49 190.5t-180 57.5h-91v-500zM124 0v1658h380q131 0 225 -21.5t163.5 -72t104 -137t34.5 -211.5
q0 -156 -46.5 -255t-153.5 -144l230 -817h-303l-198 757h-134v-757h-302z" />
    <glyph glyph-name="uni0213" unicode="&#x213;" horiz-adv-x="710" 
d="M126 1324q0 290 271 290q270 0 270 -290h-141q0 84 -28.5 120t-100.5 36q-71 0 -100 -36.5t-29 -119.5h-142zM111 0v1184h280v-182q59 105 119.5 151t129.5 46q21 0 42 -5v-277q-47 18 -97 18q-60 -2 -105.5 -30t-88.5 -93v-812h-280z" />
    <glyph glyph-name="uni0214" unicode="&#x214;" horiz-adv-x="1154" 
d="M660 1799l-168 385h214l99 -385h-145zM350 1799l-224 385h246l124 -385h-146zM578 -20q-111 0 -192.5 26t-134 73t-84 120.5t-44 159t-12.5 198.5v1101h293v-1132q0 -58 3 -99t13 -86t28.5 -72t51 -45t78.5 -18t78.5 18t50 45t28 72t13 85.5t2.5 99.5v1132h293v-1101
q0 -113 -12.5 -198.5t-44 -159t-83.5 -120.5t-133.5 -73t-191.5 -26z" />
    <glyph glyph-name="uni0215" unicode="&#x215;" horiz-adv-x="966" 
d="M560 1324l-168 385h214l99 -385h-145zM250 1324l-224 385h246l124 -385h-146zM293 -18q-101 0 -147.5 74t-46.5 182v946h279v-889q0 -55 17 -82t63 -26q49 0 120 50v947h279v-1184h-279v111q-141 -129 -285 -129z" />
    <glyph glyph-name="uni0216" unicode="&#x216;" horiz-adv-x="1154" 
d="M306 1799q0 290 271 290q270 0 270 -290h-141q0 84 -28.5 120t-100.5 36q-71 0 -100 -36.5t-29 -119.5h-142zM578 -20q-111 0 -192.5 26t-134 73t-84 120.5t-44 159t-12.5 198.5v1101h293v-1132q0 -58 3 -99t13 -86t28.5 -72t51 -45t78.5 -18t78.5 18t50 45t28 72
t13 85.5t2.5 99.5v1132h293v-1101q0 -113 -12.5 -198.5t-44 -159t-83.5 -120.5t-133.5 -73t-191.5 -26z" />
    <glyph glyph-name="uni0217" unicode="&#x217;" horiz-adv-x="966" 
d="M208 1324q0 290 271 290q270 0 270 -290h-141q0 84 -28.5 120t-100.5 36q-71 0 -100 -36.5t-29 -119.5h-142zM293 -18q-101 0 -147.5 74t-46.5 182v946h279v-889q0 -55 17 -82t63 -26q49 0 120 50v947h279v-1184h-279v111q-141 -129 -285 -129z" />
    <glyph glyph-name="Scommaaccent" unicode="&#x218;" horiz-adv-x="1010" 
d="M442 -667l-45 117q64 4 96.5 35.5t32.5 102.5h-142v270h272l-2 -244q-1 -138 -48.5 -209t-163.5 -72zM542 -20q-438 0 -460 506l263 55q10 -329 188 -329q69 0 102.5 42t33.5 113q0 69 -25 126.5t-58 94t-94 90.5l-218 189q-96 84 -143 174.5t-47 226.5q0 193 113.5 300
t311.5 109q91 1 161 -22.5t115.5 -63t76 -98.5t45.5 -122.5t21 -141.5l-258 -51q-2 50 -6.5 87t-15.5 75t-28.5 61.5t-47 37.5t-68.5 11q-67 -4 -102.5 -44.5t-35.5 -108.5q0 -80 31.5 -131.5t98.5 -110.5l216 -188q54 -49 94 -95t76.5 -105t55.5 -130t19 -150
q0 -181 -114.5 -294t-300.5 -113z" />
    <glyph glyph-name="scommaaccent" unicode="&#x219;" horiz-adv-x="812" 
d="M328 -666l-45 117q64 4 96.5 35.5t32.5 102.5h-142v270h272l-2 -244q-1 -138 -48.5 -209t-163.5 -72zM414 -19q-147 0 -241 82t-129 236l212 77q22 -98 62 -148.5t100 -48.5q44 1 72.5 31.5t26.5 74.5q-4 64 -117 161l-159 136q-172 148 -168 309q3 142 96.5 226.5
t238.5 84.5q139 0 226 -84t113 -225l-184 -77q-38 184 -142 185q-44 1 -70.5 -27t-26.5 -67q-1 -54 99 -141l162 -147q41 -36 68 -64.5t56.5 -69.5t44 -88t14.5 -101q0 -150 -99.5 -232.5t-254.5 -82.5z" />
    <glyph glyph-name="uni021A" unicode="&#x21a;" horiz-adv-x="865" 
d="M354 -647l-45 117q64 4 96.5 35.5t32.5 102.5h-142v270h272l-2 -244q-1 -138 -48.5 -209t-163.5 -72zM286 0v1435h-278v223h849v-223h-269v-1435h-302z" />
    <glyph glyph-name="uni021B" unicode="&#x21b;" horiz-adv-x="680" 
d="M255 -663l-45 117q64 4 96.5 35.5t32.5 102.5h-142v270h272l-2 -244q-1 -138 -48.5 -209t-163.5 -72zM437 -16q-81 1 -137.5 27t-87 74.5t-44 108.5t-13.5 140v665h-117v185h117v348h281v-348h180v-185h-180v-683q0 -58 25.5 -83.5t81.5 -26.5q39 -1 85 6v-214
q-119 -16 -191 -14z" />
    <glyph glyph-name="uni0237" unicode="&#x237;" horiz-adv-x="512" 
d="M-32 -327v200q37 -7 59 -7q106 0 106 120v1198h279v-1229q0 -141 -78.5 -221.5t-220.5 -80.5q-86 0 -145 20z" />
    <glyph glyph-name="afii57929" unicode="&#x2bc;" horiz-adv-x="791" 
d="M215 1100v558h238l-95 -558h-143z" />
    <glyph glyph-name="circumflex" unicode="&#x2c6;" horiz-adv-x="762" 
d="M73 1266l184 392h254l187 -392h-208l-105 260l-105 -260h-207z" />
    <glyph glyph-name="caron" unicode="&#x2c7;" horiz-adv-x="760" 
d="M242 1291l-177 367h203l111 -231l112 231h204l-179 -367h-274z" />
    <glyph glyph-name="breve" unicode="&#x2d8;" horiz-adv-x="690" 
d="M339 1368q-270 0 -270 290h141q0 -85 28.5 -120.5t100.5 -35.5t100.5 36t28.5 120h142q0 -290 -271 -290z" />
    <glyph glyph-name="dotaccent" unicode="&#x2d9;" horiz-adv-x="500" 
d="M-136 122v277h272v-277h-272z" />
    <glyph glyph-name="ring" unicode="&#x2da;" horiz-adv-x="402" 
d="M198 1334q52 0 81.5 31.5t29.5 82.5t-29.5 82.5t-81.5 31.5t-81.5 -31.5t-29.5 -82.5t29.5 -82.5t81.5 -31.5zM198 1215q-106 0 -171.5 63t-65.5 170t66 169.5t171 62.5q106 0 172.5 -62.5t66.5 -169.5t-66.5 -170t-172.5 -63z" />
    <glyph glyph-name="ogonek" unicode="&#x2db;" horiz-adv-x="516" 
d="M368 -492q-58 -1 -96 0.5t-87.5 6.5t-80.5 18t-60.5 34t-43.5 55.5t-14 81.5q0 91 62 180t141 128h134q-7 -13 -50 -78t-64 -113.5t-21 -93.5q0 -25 12 -42t27.5 -25t43.5 -12t46 -4t49 1t40 1z" />
    <glyph glyph-name="tilde" unicode="&#x2dc;" horiz-adv-x="881" 
d="M606 1399q-42 -2 -99 23t-108.5 50.5t-78.5 25.5q-51 0 -51 -83h-146q0 121 39.5 187.5t137.5 70.5q47 2 104.5 -21.5t104.5 -48t67 -25.5q27 -2 38 17.5t11 62.5h139q0 -55 -7 -97.5t-23.5 -80.5t-48.5 -59t-79 -22z" />
    <glyph glyph-name="hungarumlaut" unicode="&#x2dd;" horiz-adv-x="727" 
d="M467 1264l125 394h261l-242 -394h-144zM156 1264l98 394h226l-183 -394h-141z" />
    <glyph glyph-name="gravecomb" unicode="&#x300;" horiz-adv-x="208" 
d="M202 1249l-247 409h284l121 -409h-158z" />
    <glyph glyph-name="acutecomb" unicode="&#x301;" horiz-adv-x="208" 
d="M-6 1249l122 409h283l-246 -409h-159z" />
    <glyph glyph-name="uni0302" unicode="&#x302;" horiz-adv-x="762" 
d="M73 1286l184 372h254l187 -372h-208l-105 240l-105 -240h-207z" />
    <glyph glyph-name="tildecomb" unicode="&#x303;" horiz-adv-x="881" 
d="M606 1399q-42 -2 -99 23t-108.5 50.5t-78.5 25.5q-51 0 -51 -83h-146q0 121 39.5 187.5t137.5 70.5q47 2 104.5 -21.5t104.5 -48t67 -25.5q27 -2 38 17.5t11 62.5h139q0 -55 -7 -97.5t-23.5 -80.5t-48.5 -59t-79 -22z" />
    <glyph glyph-name="uni0304" unicode="&#x304;" horiz-adv-x="491" 
d="M25 1510v148h471v-148h-471z" />
    <glyph glyph-name="uni0306" unicode="&#x306;" horiz-adv-x="690" 
d="M339 1368q-150 0 -221.5 78t-71.5 212h141q0 -82 37 -119t115 -37t115 37t37 119h142q0 -134 -71.5 -212t-222.5 -78z" />
    <glyph glyph-name="uni0307" unicode="&#x307;" horiz-adv-x="166" 
d="M-31 1381v277h272v-277h-272z" />
    <glyph glyph-name="uni0308" unicode="&#x308;" horiz-adv-x="847" 
d="M494 1392v266h252v-266h-252zM101 1392v266h251v-266h-251z" />
    <glyph glyph-name="uni030A" unicode="&#x30a;" horiz-adv-x="402" 
d="M198 1334q52 0 81.5 31.5t29.5 82.5t-29.5 82.5t-81.5 31.5t-81.5 -31.5t-29.5 -82.5t29.5 -82.5t81.5 -31.5zM198 1215q-106 0 -171.5 63t-65.5 170t66 169.5t171 62.5q106 0 172.5 -62.5t66.5 -169.5t-66.5 -170t-172.5 -63z" />
    <glyph glyph-name="uni030C" unicode="&#x30c;" horiz-adv-x="278" 
d="M63 1291l-177 367h203l111 -231l112 231h205l-180 -367h-274z" />
    <glyph glyph-name="uni030F" unicode="&#x30f;" horiz-adv-x="725" 
d="M568 1290l-168 385h214l99 -385h-145zM258 1290l-224 385h246l124 -385h-146z" />
    <glyph glyph-name="uni0311" unicode="&#x311;" horiz-adv-x="690" 
d="M68 1368q0 290 271 290q270 0 270 -290h-141q0 84 -28.5 120t-100.5 36q-71 0 -100 -36.5t-29 -119.5h-142z" />
    <glyph glyph-name="uni0326" unicode="&#x326;" horiz-adv-x="353" 
d="M96 -596l-45 117q64 4 96.5 35.5t32.5 102.5h-142v270h272l-2 -244q-1 -138 -48.5 -209t-163.5 -72z" />
    <glyph glyph-name="Pi" unicode="&#x3a0;" horiz-adv-x="1188" 
d="M117 0v1658h954v-1658h-276v1442h-402v-1442h-276z" />
    <glyph glyph-name="pi" unicode="&#x3c0;" horiz-adv-x="1155" 
d="M449 988v-988h-279v988h-132v196h1042v-196h-154v-595q0 -131 26 -169.5t117 -38.5l-14 -205q-120 0 -200 18.5t-126 58.5t-64.5 95t-18.5 136v700h-197z" />
    <glyph glyph-name="uni0400" unicode="&#x400;" 
d="M394 1799l-247 409h284l121 -409h-158zM124 0v1658h694v-213h-392v-476h310v-213h-310v-547h397v-209h-699z" />
    <glyph glyph-name="afii10023" unicode="&#x401;" 
d="M544 1799v266h252v-266h-252zM151 1799v266h251v-266h-251zM124 0v1658h694v-213h-392v-476h310v-213h-310v-547h397v-209h-699z" />
    <glyph glyph-name="afii10051" unicode="&#x402;" horiz-adv-x="1206" 
d="M656 0v193q104 0 145 61.5t41 175.5v212q0 61 -38 108t-110 47q-66 0 -155 -48v-749h-296v1442h-230v216h795v-216h-269v-536q97 77 235 77q66 0 127 -20.5t110.5 -58.5t79.5 -101t30 -141v-233q0 -228 -98 -328.5t-310 -100.5h-57z" />
    <glyph glyph-name="afii10052" unicode="&#x403;" horiz-adv-x="862" 
d="M395 1799l122 409h283l-246 -409h-159zM127 0v1658h695v-223h-393v-1435h-302z" />
    <glyph glyph-name="afii10053" unicode="&#x404;" horiz-adv-x="1080" 
d="M569 -20q-107 0 -189 27t-135.5 75t-87 119t-47 152.5t-13.5 183.5v578q0 108 14 191.5t47 155t86.5 117.5t135 72t189.5 26q124 0 212 -33t139 -97t74 -149.5t23 -199.5v-77h-291v76q0 124 -13 167q-26 84 -127 90h-16q-38 0 -66.5 -9t-46.5 -28.5t-29 -41.5
t-16.5 -57.5t-7 -65.5t-1.5 -76v-235h345v-185h-345v-282q0 -146 36.5 -208t130.5 -62q32 0 56.5 7.5t41 19t28 33t17.5 40t9 51.5t3.5 56t0.5 63v86h291v-74q0 -93 -13 -167t-44.5 -139t-81.5 -108t-128 -67.5t-181 -24.5z" />
    <glyph glyph-name="afii10054" unicode="&#x405;" horiz-adv-x="1010" 
d="M542 -20q-438 0 -460 506l263 55q10 -329 188 -329q69 0 102.5 42t33.5 113q0 69 -25 126.5t-58 94t-94 90.5l-218 189q-96 84 -143 174.5t-47 226.5q0 193 113.5 300t311.5 109q91 1 161 -22.5t115.5 -63t76 -98.5t45.5 -122.5t21 -141.5l-258 -51q-2 50 -6.5 87
t-15.5 75t-28.5 61.5t-47 37.5t-68.5 11q-67 -4 -102.5 -44.5t-35.5 -108.5q0 -80 31.5 -131.5t98.5 -110.5l216 -188q54 -49 94 -95t76.5 -105t55.5 -130t19 -150q0 -181 -114.5 -294t-300.5 -113z" />
    <glyph glyph-name="afii10055" unicode="&#x406;" horiz-adv-x="542" 
d="M126 0v1658h298v-1658h-298z" />
    <glyph glyph-name="afii10056" unicode="&#x407;" horiz-adv-x="542" 
d="M346 1799v266h252v-266h-252zM-47 1799v266h251v-266h-251zM126 0v1658h298v-1658h-298z" />
    <glyph glyph-name="afii10057" unicode="&#x408;" horiz-adv-x="646" 
d="M12 -35v212q132 -1 176 40t44 169v1272h302v-1279q-1 -109 -19 -183.5t-60.5 -128t-116 -78t-182.5 -24.5h-144z" />
    <glyph glyph-name="afii10058" unicode="&#x409;" horiz-adv-x="1764" 
d="M1151 206h26q91 0 142.5 22.5t78.5 85t26 175.5q-1 140 -56 202t-196 62h-21v-547zM23 0v218q88 -5 137 29.5t78 134.5t42 292l61 984h810v-694h31q134 0 228.5 -23.5t162.5 -78.5t100.5 -148t32.5 -229q0 -138 -35 -233.5t-106 -150t-165 -78t-224 -23.5h-327v1432h-240
l-44 -761q-21 -368 -124 -523.5t-333 -148.5z" />
    <glyph glyph-name="afii10059" unicode="&#x40a;" horiz-adv-x="1655" 
d="M1042 206h24q68 0 112.5 12t76.5 43t46 86.5t13 141.5q-1 140 -56 202t-197 62h-19v-547zM1065 0l-325 1v750h-311v-750h-302v1659h302v-686h311v686h302v-696h30q134 0 228 -23.5t162 -78.5t100.5 -148t32.5 -229q0 -138 -35 -233.5t-106 -150t-165 -78t-224 -23.5z" />
    <glyph glyph-name="afii10060" unicode="&#x40b;" horiz-adv-x="1117" 
d="M234 0v1435h-225v223h769v-223h-246v-523q11 7 31 16.5t80.5 26t120.5 16.5q113 0 181 -57.5t68 -149.5v-764h-280v714q0 44 -16 66t-62 21q-14 0 -29 -3t-26 -6.5t-24 -9.5t-20 -9.5t-16 -8.5l-8 -5v-759h-298z" />
    <glyph glyph-name="afii10061" unicode="&#x40c;" horiz-adv-x="1106" 
d="M524 1799l122 409h283l-246 -409h-159zM127 0v1658h302v-698h59l268 698h300l-311 -782l336 -876h-306l-286 772h-60v-772h-302z" />
    <glyph glyph-name="uni040D" unicode="&#x40d;" horiz-adv-x="1161" 
d="M502 1799l-247 409h284l121 -409h-158zM127 0v1658h251v-1036l450 1036h206v-1658h-254v1056l-451 -1056h-202z" />
    <glyph glyph-name="afii10062" unicode="&#x40e;" horiz-adv-x="1015" 
d="M516 1799q-150 0 -221.5 78t-71.5 212h141q0 -82 37 -119t115 -37t115 37t37 119h142q0 -134 -71.5 -212t-222.5 -78zM107 -290v214q193 -15 251 41.5t23 208.5l-342 1484h282l136 -689l72 -489l60 487l118 691h287l-314 -1509q-33 -157 -56.5 -225.5t-83.5 -131
t-159 -76.5t-274 -6z" />
    <glyph glyph-name="afii10145" unicode="&#x40f;" horiz-adv-x="1173" 
d="M479 -329l-14 329h-341v1658h302v-1436h321v1436h302v-1658h-333l-15 -329h-222z" />
    <glyph glyph-name="afii10017" unicode="&#x410;" horiz-adv-x="1065" 
d="M423 582h222l-111 681zM38 0l337 1658h315l336 -1658h-281l-67 385h-287l-68 -385h-285z" />
    <glyph glyph-name="afii10018" unicode="&#x411;" horiz-adv-x="1070" 
d="M429 206h43q68 0 112.5 12t76.5 43t46 86.5t13 141.5q-1 140 -56 202t-196 62h-39v-547zM127 0v1658h767v-224h-465v-470h49q134 0 228.5 -23.5t162.5 -78.5t100.5 -148t32.5 -229q0 -111 -23.5 -194.5t-67 -138.5t-110 -89t-146.5 -48.5t-183 -14.5h-345z" />
    <glyph glyph-name="afii10019" unicode="&#x412;" horiz-adv-x="1138" 
d="M429 982h94q134 0 184 57t50 192q0 70 -16.5 113.5t-55.5 65.5t-86.5 29t-126.5 7h-43v-464zM429 213h111q136 0 187.5 63t51.5 208q0 150 -58.5 217.5t-196.5 67.5h-95v-556zM127 0v1658h406q115 0 201 -20.5t152.5 -68t100 -131.5t32.5 -203q-1 -307 -243 -343
q291 -55 292 -411q1 -236 -118 -358.5t-347 -122.5h-476z" />
    <glyph glyph-name="afii10020" unicode="&#x413;" horiz-adv-x="862" 
d="M127 0v1658h695v-223h-393v-1435h-302z" />
    <glyph glyph-name="afii10021" unicode="&#x414;" horiz-adv-x="1356" 
d="M374 215h476v1225h-208l-15 -353q-6 -138 -17.5 -251t-24 -191t-34.5 -144.5t-37.5 -104t-45 -77t-45.5 -56t-49 -48.5zM28 -329v544h66q54 32 94.5 86t78.5 155t63.5 271t38.5 410l32 521h740v-1443h175v-544h-215l-20 329h-812l-20 -329h-221z" />
    <glyph glyph-name="afii10022" unicode="&#x415;" 
d="M124 0v1658h694v-213h-392v-476h310v-213h-310v-547h397v-209h-699z" />
    <glyph glyph-name="afii10024" unicode="&#x416;" horiz-adv-x="1503" 
d="M6 0l366 840l-340 818h286l295 -790h15v790h246v-790h15l295 790h287l-340 -818l366 -840h-282l-325 818h-16v-818h-246v818h-16l-324 -818h-282z" />
    <glyph glyph-name="afii10025" unicode="&#x417;" horiz-adv-x="1028" 
d="M515 -23q-222 0 -328 123t-106 347v59h284q0 -49 1 -63q3 -118 35 -173.5t116 -55.5q38 0 65.5 12.5t43.5 33.5t24.5 56t11.5 70.5t3 87.5q0 133 -51.5 202.5t-184.5 78.5q-12 1 -71 1v207q54 0 65 1q136 6 189 70t53 194q0 108 -38 164.5t-124 56.5q-156 0 -166 -222
q-1 -12 -1 -71h-285v77q0 210 119.5 327.5t327.5 117.5q211 0 330 -115.5t119 -325.5q0 -141 -61 -237.5t-161 -125.5q222 -77 222 -396q0 -237 -104 -369t-328 -132z" />
    <glyph glyph-name="afii10026" unicode="&#x418;" horiz-adv-x="1161" 
d="M127 0v1658h251v-1036l450 1036h206v-1658h-254v1056l-451 -1056h-202z" />
    <glyph glyph-name="afii10027" unicode="&#x419;" horiz-adv-x="1161" 
d="M580 1799q-150 0 -221.5 78t-71.5 212h141q0 -82 37 -119t115 -37t115 37t37 119h142q0 -134 -71.5 -212t-222.5 -78zM127 0v1658h251v-1036l450 1036h206v-1658h-254v1056l-451 -1056h-202z" />
    <glyph glyph-name="afii10028" unicode="&#x41a;" horiz-adv-x="1106" 
d="M127 0v1658h302v-698h59l268 698h300l-311 -782l336 -876h-306l-286 772h-60v-772h-302z" />
    <glyph glyph-name="afii10029" unicode="&#x41b;" horiz-adv-x="1260" 
d="M4 0v218q50 -1 79.5 3t59.5 24.5t46.5 57t33 105t27 164t19.5 238.5l55 848h809v-1658h-302v1432h-241l-36 -653q-6 -102 -12.5 -174.5t-17 -151t-25 -131t-36 -106.5t-50 -87.5t-67.5 -63.5t-89 -44t-113 -20t-140 -1z" />
    <glyph glyph-name="afii10030" unicode="&#x41c;" horiz-adv-x="1397" 
d="M121 0l27 1658h297l253 -1115l260 1115h290l28 -1658h-225l-16 1076l-255 -1076h-159l-259 1079l-14 -1079h-227z" />
    <glyph glyph-name="afii10031" unicode="&#x41d;" horiz-adv-x="1195" 
d="M127 0v1658h302v-693h337v693h302v-1658h-302v750h-337v-750h-302z" />
    <glyph glyph-name="afii10032" unicode="&#x41e;" horiz-adv-x="1150" 
d="M575 -20q-256 0 -367 139t-111 407v612q0 132 25 229t80.5 168t148.5 106.5t224 35.5q255 0 366.5 -137t111.5 -402v-612q0 -130 -25.5 -228.5t-81 -171t-148.5 -109.5t-223 -37zM575 204q44 0 75 13t49.5 34t29 55t14 68t3.5 81v753q0 60 -6 100t-23.5 75.5t-52.5 53
t-89 17.5t-89.5 -17.5t-52.5 -53t-23 -75.5t-6 -100v-753q0 -47 3.5 -81t14 -68t28.5 -55t49.5 -34t75.5 -13z" />
    <glyph glyph-name="afii10033" unicode="&#x41f;" horiz-adv-x="1206" 
d="M124 0v1658h958v-1658h-299v1443h-360v-1443h-299z" />
    <glyph glyph-name="afii10034" unicode="&#x420;" horiz-adv-x="1059" 
d="M426 953h97q128 0 173 50.5t45 185.5q0 77 -6 119t-28 76.5t-65.5 47.5t-117.5 13h-98v-492zM124 0v1658h477q424 0 424 -471q0 -231 -116 -338.5t-327 -107.5h-156v-741h-302z" />
    <glyph glyph-name="afii10035" unicode="&#x421;" horiz-adv-x="1102" 
d="M569 -20q-107 0 -189 27t-135.5 75t-87 119t-47 152.5t-13.5 183.5v578q0 108 14 191.5t47 155t86.5 117.5t135 72t189.5 26q124 0 212 -33t139 -97t74 -149.5t23 -199.5v-142h-291v141q0 124 -13 167q-26 84 -127 90h-16q-38 0 -66.5 -9t-46.5 -28.5t-29 -41.5
t-16.5 -57.5t-7 -65.5t-1.5 -76v-702q0 -146 36.5 -208t130.5 -62q32 0 56.5 7.5t41 19t28 33t17.5 40t9 51.5t3.5 56t0.5 63v148h291v-136q0 -93 -13 -167t-44.5 -139t-81.5 -108t-128 -67.5t-181 -24.5z" />
    <glyph glyph-name="afii10036" unicode="&#x422;" horiz-adv-x="865" 
d="M286 0v1435h-278v223h849v-223h-269v-1435h-302z" />
    <glyph glyph-name="afii10037" unicode="&#x423;" horiz-adv-x="1015" 
d="M107 -290v214q193 -15 251 41.5t23 208.5l-342 1484h282l136 -689l72 -489l60 487l118 691h287l-314 -1509q-33 -157 -56.5 -225.5t-83.5 -131t-159 -76.5t-274 -6z" />
    <glyph glyph-name="afii10038" unicode="&#x424;" horiz-adv-x="1456" 
d="M895 380q63 -3 101.5 8t59.5 42t28 74t7 115v447q0 71 -7 114t-28 75.5t-60 44.5t-102 10q-2 0 -17 -0.5t-16 -0.5v-928q1 0 17 -0.5t17 -0.5zM561 380q2 0 14.5 0.5t14.5 0.5v928q-2 0 -15 0.5t-15 0.5q-62 3 -100.5 -9t-59.5 -44t-28 -75.5t-7 -114.5v-448
q0 -141 37.5 -193t158.5 -46zM590 -63v261l-53 -2q-209 -18 -325 91t-116 334v444q0 222 115 330t321 94l58 -1v298h271v-298l58 1q209 14 325 -94t116 -331v-443q0 -224 -116 -333.5t-320 -91.5l-63 2v-261h-271z" />
    <glyph glyph-name="afii10039" unicode="&#x425;" horiz-adv-x="1023" 
d="M21 0l333 880l-324 778h283l215 -514l185 514h265l-320 -831l344 -827h-282l-232 556l-204 -556h-263z" />
    <glyph glyph-name="afii10040" unicode="&#x426;" horiz-adv-x="1343" 
d="M1072 -329l-32 329h-913v1658h302v-1449h376v1449h301v-1449h192v-538h-226z" />
    <glyph glyph-name="afii10041" unicode="&#x427;" horiz-adv-x="1169" 
d="M740 0v729q-121 -23 -222 -23q-197 0 -310.5 102t-113.5 292v558h285v-557q0 -52 8.5 -87t30 -63t63.5 -41.5t106 -13.5q68 0 153 17v745h301v-1658h-301z" />
    <glyph glyph-name="afii10042" unicode="&#x428;" horiz-adv-x="1613" 
d="M127 0v1658h293v-1442h246v1442h292v-1442h235v1442h293v-1658h-1359z" />
    <glyph glyph-name="afii10043" unicode="&#x429;" horiz-adv-x="1746" 
d="M1452 -329l-30 329h-1295v1658h293v-1449h246v1449h292v-1449h236v1449h293v-1449h192v-538h-227z" />
    <glyph glyph-name="afii10044" unicode="&#x42a;" horiz-adv-x="1224" 
d="M575 206h58q68 0 112.5 12t76.5 43t46 86.5t13 141.5q-1 140 -56 202t-196 62h-54v-547zM273 0v1441h-278v217h580v-694h64q134 0 228.5 -23.5t162.5 -78.5t100.5 -148t32.5 -229q0 -111 -23.5 -194.5t-67 -138.5t-110 -89t-146.5 -48.5t-183 -14.5h-360z" />
    <glyph glyph-name="afii10045" unicode="&#x42b;" horiz-adv-x="1593" 
d="M1164 0v1658h302v-1658h-302zM429 206h53q68 0 112.5 12t76.5 43t46 86.5t13 141.5q-1 140 -56 202t-196 62h-49v-547zM127 0v1658h302v-694h59q134 0 228 -23.5t162 -78.5t100.5 -148t32.5 -229q0 -138 -35 -233.5t-106 -150t-165 -78t-224 -23.5h-354z" />
    <glyph glyph-name="afii10046" unicode="&#x42c;" horiz-adv-x="1074" 
d="M429 206h52q68 0 112.5 12t76.5 43t46 86.5t13 141.5q-1 140 -56 202t-196 62h-48v-547zM127 0v1658h302v-694h58q134 0 228.5 -23.5t162.5 -78.5t100.5 -148t32.5 -229q0 -138 -35 -233.5t-106.5 -150t-165.5 -78t-224 -23.5h-353z" />
    <glyph glyph-name="afii10047" unicode="&#x42d;" horiz-adv-x="1117" 
d="M548 -3q-124 0 -212 33t-139.5 97t-74.5 149.5t-23 199.5v85h291v-84v-5v-46t1.5 -41.5t4 -40t8 -34t13 -31.5t19.5 -24t27.5 -19.5t36 -11t46.5 -4.5q38 0 66.5 9t46.5 28.5t29.5 41.5t17 57.5t7 65.5t1.5 76v267h-274v173h274v262q0 147 -36.5 208.5t-131.5 61.5
q-37 0 -64 -8.5t-44 -28.5t-27 -40.5t-14.5 -56.5t-5.5 -62.5t-1 -73.5v-88h-291v76q0 117 21.5 205t71 158t139 106.5t217.5 36.5q134 0 227.5 -40.5t146 -117.5t75 -174t22.5 -225v-578q0 -135 -22.5 -234t-75 -175t-146 -114.5t-227.5 -38.5z" />
    <glyph glyph-name="afii10048" unicode="&#x42e;" horiz-adv-x="1577" 
d="M1041 204q41 0 71 13t47.5 34t27.5 55t13 68t3 81v753q0 60 -5.5 100t-22 75.5t-49.5 53t-85 17.5q-51 0 -84.5 -17.5t-49.5 -53t-22 -75.5t-6 -100v-753q0 -47 3 -81t13.5 -68t27.5 -55t47 -34t71 -13zM1041 -20q-123 0 -209 38.5t-135.5 114t-71.5 174t-22 231.5v195
h-185v-733h-291v1658h291v-701h185v169q0 133 22 230.5t71.5 171.5t135.5 111.5t209 37.5q122 0 208.5 -38t136.5 -112t72 -172t22 -229v-588q0 -131 -22 -230t-72 -174.5t-136.5 -114.5t-208.5 -39z" />
    <glyph glyph-name="afii10049" unicode="&#x42f;" horiz-adv-x="1174" 
d="M689 885h56v562h-61q-139 0 -206.5 -64t-67.5 -200q0 -150 64 -224t215 -74zM21 0l335 741q-105 55 -167 168t-62 274q0 242 132.5 358.5t414.5 116.5h373v-1658h-302v671h-90h-36l-266 -671h-332z" />
    <glyph glyph-name="afii10065" unicode="&#x430;" horiz-adv-x="927" 
d="M442 198q32 0 63.5 24t50.5 49v326q-208 -115 -208 -261q0 -64 24.5 -101t69.5 -37zM335 -19q-112 1 -183.5 87.5t-71.5 195.5q0 103 34 180t111.5 132t128.5 80t157 66l45 18v99q0 80 -18.5 117t-75.5 37q-93 0 -95 -130l-4 -74l-268 10q0 6 0.5 22t0.5 21
q13 186 110.5 273t278.5 87q175 0 259.5 -95t84.5 -269v-541q0 -136 22 -297h-253q-23 116 -29 174q-25 -82 -83.5 -137.5t-150.5 -55.5z" />
    <glyph glyph-name="afii10066" unicode="&#x431;" horiz-adv-x="936" 
d="M479 175q58 0 78.5 47.5t20.5 179.5v357q0 98 -18.5 138t-66.5 40q-66 0 -119 -89v-426q0 -147 20 -197t85 -50zM460 -18q-192 1 -276.5 111t-84.5 329v612q0 130 10.5 224.5t28.5 156.5t51.5 103.5t69 63.5t92 40t109.5 29t133 33.5t152 51.5l41 -219
q-71 -33 -142.5 -52t-111.5 -23.5t-76.5 -16.5t-53.5 -37t-26.5 -77t-9.5 -144v-110q100 57 202 57q136 0 209 -99.5t73 -328.5v-256q0 -108 -19 -188t-52 -129.5t-83.5 -79t-106.5 -40.5t-129 -11z" />
    <glyph glyph-name="afii10067" unicode="&#x432;" horiz-adv-x="938" 
d="M383 715h90q62 0 91 35.5t29 116.5q0 75 -34 109t-108 34h-68v-295zM383 182h60q30 0 50 2.5t43 12t37 27.5t23 50.5t9 78.5q0 45 -4.5 77.5t-16 52.5t-23 32t-32.5 17.5t-36.5 6.5t-43.5 1h-66v-358zM108 0v1184h376q106 0 179.5 -21.5t112.5 -63t55.5 -90t17.5 -113.5
q2 -103 -38 -164.5t-129 -86.5q110 -24 153.5 -102t43.5 -199q0 -173 -89.5 -258.5t-307.5 -85.5h-374z" />
    <glyph glyph-name="afii10068" unicode="&#x433;" horiz-adv-x="651" 
d="M107 0v1184h532v-193h-252v-991h-280z" />
    <glyph glyph-name="afii10069" unicode="&#x434;" horiz-adv-x="1122" 
d="M315 185h352v815h-120l-10 -112q-2 -136 -15 -244.5t-32.5 -180.5t-49 -128.5t-58.5 -89t-67 -60.5zM28 -313v491q68 44 117.5 103t89.5 149t61.5 220t24.5 300l14 234h594v-999h159v-498h-202l-21 313h-614l-20 -313h-203z" />
    <glyph glyph-name="afii10070" unicode="&#x435;" horiz-adv-x="915" 
d="M363 718h202v113q0 90 -22.5 129t-79.5 39q-58 0 -79 -44t-21 -160v-77zM466 -19q-203 0 -292 112t-89 331v335q0 219 90 331t290 112q106 0 178.5 -31t113 -94t57.5 -145.5t17 -198.5v-155h-468v-178q0 -37 0.5 -57.5t3.5 -49.5t9.5 -45t17.5 -32.5t29 -23.5t42 -7
q56 0 78 39.5t22 114.5v68h265v-47q0 -184 -91.5 -281.5t-272.5 -97.5z" />
    <glyph glyph-name="afii10072" unicode="&#x436;" horiz-adv-x="1273" 
d="M11 0l265 600l-249 584h255l217 -567h19v567h232v-567h18l222 567h255l-253 -584l270 -600h-245l-248 576h-19v-576h-232v576h-20l-242 -576h-245z" />
    <glyph glyph-name="afii10073" unicode="&#x437;" horiz-adv-x="837" 
d="M420 -21q-191 0 -268.5 101.5t-77.5 300.5h230q0 -108 31 -157.5t92 -49.5q35 0 58 13.5t33 42t13.5 57.5t3.5 75q0 101 -47 132.5t-183 31.5v170q131 0 176 35.5t45 128.5q0 143 -114 143q-63 0 -91.5 -38t-28.5 -139h-229q0 189 87 282.5t275 93.5q89 0 157.5 -26
t109.5 -71.5t61.5 -102.5t20.5 -122q0 -68 -16.5 -119t-45.5 -80.5t-60 -45t-67 -21.5q35 -10 56.5 -18.5t50 -29.5t45 -49t28.5 -77.5t12 -115.5q0 -165 -88.5 -255t-268.5 -90z" />
    <glyph glyph-name="afii10074" unicode="&#x438;" horiz-adv-x="991" 
d="M107 0v1184h228v-707l331 707h218v-1184h-228v710l-326 -710h-223z" />
    <glyph glyph-name="afii10075" unicode="&#x439;" horiz-adv-x="991" 
d="M495 1324q-150 0 -221.5 78t-71.5 212h141q0 -82 37 -119t115 -37t115 37t37 119h142q0 -134 -71.5 -212t-222.5 -78zM107 0v1184h228v-707l331 707h218v-1184h-228v710l-326 -710h-223z" />
    <glyph glyph-name="afii10076" unicode="&#x43a;" horiz-adv-x="944" 
d="M107 0v1184h280v-481h53l196 481h295l-237 -567l241 -617h-295l-200 538h-53v-538h-280z" />
    <glyph glyph-name="afii10077" unicode="&#x43b;" horiz-adv-x="1074" 
d="M33 -7v200q34 -2 59 1.5t45.5 16t34.5 26.5t25 45t17.5 58t12 78t8.5 94t7 116l36 556h688v-1184h-279v983h-169l-23 -370q-7 -130 -18.5 -222t-31.5 -164t-47 -116t-68.5 -72.5t-93 -39t-123.5 -10.5q-47 0 -80 4z" />
    <glyph glyph-name="afii10078" unicode="&#x43c;" horiz-adv-x="1141" 
d="M103 0l9 1184h206l252 -643l252 643h206l9 -1184h-225v650l-200 -505h-83l-200 504v-649h-226z" />
    <glyph glyph-name="afii10079" unicode="&#x43d;" horiz-adv-x="1005" 
d="M107 0v1184h280v-477h231v477h280v-1184h-280v509h-231v-509h-280z" />
    <glyph glyph-name="afii10080" unicode="&#x43e;" horiz-adv-x="929" 
d="M463 -19q-191 0 -284.5 107.5t-93.5 307.5v391q0 200 93.5 307.5t284.5 107.5q192 0 286.5 -107.5t94.5 -307.5v-391q0 -200 -94.5 -307.5t-286.5 -107.5zM464 178q34 0 55.5 15t31 46.5t12.5 61t3 76.5v429q0 37 -1.5 61.5t-7 53.5t-16.5 45.5t-30 28t-47 11.5
q-34 0 -55.5 -15.5t-31 -47t-12.5 -61t-3 -76.5v-429q0 -37 1.5 -61.5t7 -53t16.5 -45t30 -28t47 -11.5z" />
    <glyph glyph-name="afii10081" unicode="&#x43f;" horiz-adv-x="977" 
d="M107 0v1184h762v-1184h-279v983h-203v-983h-280z" />
    <glyph glyph-name="afii10082" unicode="&#x440;" horiz-adv-x="976" 
d="M510 182q31 0 52 17.5t30.5 51t13 69t3.5 85.5v408q0 41 -4.5 73.5t-15.5 62t-33 45t-53 14.5q-55 -1 -116 -47v-742q60 -37 123 -37zM107 -390v1574h280v-91q110 110 239 109q63 -1 111.5 -29t76 -69.5t45 -98t23.5 -105t6 -98.5v-388q0 -90 -15 -165.5t-47 -137
t-87.5 -96t-130.5 -34.5q-110 0 -221 107v-478h-280z" />
    <glyph glyph-name="afii10083" unicode="&#x441;" horiz-adv-x="899" 
d="M462 -19q-201 0 -289 113t-88 327v343q0 214 88 326t289 112q189 0 274.5 -89t85.5 -276v-96h-261v101q0 90 -21.5 125.5t-74.5 35.5q-59 0 -79.5 -42t-20.5 -156v-432q0 -113 22.5 -152.5t77.5 -39.5q56 0 76 38.5t20 116.5v127h261v-112q0 -184 -87.5 -277t-272.5 -93z
" />
    <glyph glyph-name="afii10084" unicode="&#x442;" horiz-adv-x="764" 
d="M240 0v985h-212v199h708v-199h-216v-985h-280z" />
    <glyph glyph-name="afii10085" unicode="&#x443;" horiz-adv-x="881" 
d="M113 -335l-11 214q51 0 83.5 3t59 11.5t39 22t18 37t2 54.5t-14.5 77l-263 1100h249l105 -535l66 -365l57 364l89 536h259l-276 -1190q-19 -85 -45 -141.5t-60 -94.5t-87 -58t-115 -27.5t-155 -7.5z" />
    <glyph glyph-name="afii10086" unicode="&#x444;" horiz-adv-x="1336" 
d="M805 224q188 0 188 252v306q0 221 -186 221h-15v-779h13zM526 224h15v779h-17q-181 0 -181 -221v-306q0 -134 45.5 -193t137.5 -59zM541 -374v416h-22q-58 0 -113 10.5t-115 41t-103.5 78t-72 128.5t-28.5 185v265q0 106 36 189t97.5 132.5t136.5 75t159 25.5h25v486h251
v-486h32q84 0 158.5 -25t135 -75t96 -133t35.5 -189v-265q0 -104 -28 -185t-71.5 -128.5t-102.5 -78t-113 -41t-112 -10.5h-30v-416h-251z" />
    <glyph glyph-name="afii10087" unicode="&#x445;" horiz-adv-x="846" 
d="M18 0l257 634l-250 550h274l149 -327l129 327h243l-253 -588l271 -596h-275l-164 358l-134 -358h-247z" />
    <glyph glyph-name="afii10088" unicode="&#x446;" horiz-adv-x="1082" 
d="M854 -313l-21 313h-726v1184h280v-999h230v999h279v-999h159v-498h-201z" />
    <glyph glyph-name="afii10089" unicode="&#x447;" horiz-adv-x="954" 
d="M567 0v469q-74 -8 -135 -8q-180 0 -267.5 69.5t-87.5 229.5v424h279v-417q0 -66 28 -96.5t110 -31.5q36 0 73 4v541h279v-1184h-279z" />
    <glyph glyph-name="afii10090" unicode="&#x448;" horiz-adv-x="1372" 
d="M107 0v1184h266v-990h176v990h266v-990h184v990h265v-1184h-1157z" />
    <glyph glyph-name="afii10091" unicode="&#x449;" horiz-adv-x="1488" 
d="M1223 -313l-21 313h-1095v1184h267v-999h175v999h266v-999h183v999h267v-999h159v-498h-201z" />
    <glyph glyph-name="afii10092" unicode="&#x44a;" horiz-adv-x="1060" 
d="M514 161h4q138 1 189 37.5t51 149.5q0 108 -48.5 146t-184.5 40h-11v-373zM235 0v987h-235v197h514v-485h19q103 -1 175.5 -10t133 -31.5t96 -62t54.5 -100.5t19 -147q0 -195 -111 -271.5t-380 -76.5h-285z" />
    <glyph glyph-name="afii10093" unicode="&#x44b;" horiz-adv-x="1399" 
d="M1012 0v1184h280v-1184h-280zM387 161h4q138 1 189 37.5t51 149.5q0 108 -49 146t-184 40h-11v-373zM107 0v1184h280v-485h19q103 -1 175.5 -10t132.5 -31.5t95.5 -62t54.5 -100.5t19 -147q0 -195 -111 -271.5t-380 -76.5h-285z" />
    <glyph glyph-name="afii10094" unicode="&#x44c;" horiz-adv-x="925" 
d="M387 161h4q138 1 189 37.5t51 149.5q0 108 -49 146t-184 40h-11v-373zM107 0v1184h280v-485h19q103 -1 175.5 -10t132.5 -31.5t95.5 -62t54.5 -100.5t19 -147q0 -195 -111 -271.5t-380 -76.5h-285z" />
    <glyph glyph-name="afii10095" unicode="&#x44d;" horiz-adv-x="906" 
d="M444 -19q-189 0 -274.5 89t-85.5 276v46h261v-47q0 -90 21.5 -126t74.5 -36q59 0 79.5 42.5t20.5 156.5v138h-273v136h273v151q0 113 -22.5 152.5t-77.5 39.5q-56 0 -76 -38.5t-20 -116.5v-73h-261v62q0 183 87.5 276t272.5 93q202 0 289.5 -112.5t87.5 -327.5v-342
q0 -214 -88 -326.5t-289 -112.5z" />
    <glyph glyph-name="afii10096" unicode="&#x44e;" horiz-adv-x="1299" 
d="M866 185q31 0 51 15t28.5 46t11 60.5t2.5 76.5v417q0 37 -1 61.5t-6.5 53t-15 45t-27.5 28t-43 11.5q-31 0 -50.5 -15.5t-28 -47t-11 -61t-2.5 -75.5v-417q0 -47 2.5 -76t11 -60.5t28 -46.5t50.5 -15zM866 -19q-344 0 -344 415v103h-155v-499h-260v1184h260v-494h155v97
q0 415 344 415q175 0 260.5 -107.5t85.5 -307.5v-391q0 -200 -85.5 -307.5t-260.5 -107.5z" />
    <glyph glyph-name="afii10097" unicode="&#x44f;" horiz-adv-x="968" 
d="M568 608h13v417h-11q-129 0 -185.5 -47t-56.5 -157q0 -109 55 -160.5t185 -52.5zM24 0l205 495q-154 66 -154 325q0 187 108 275t353 89h325v-1184h-280v446q-31 0 -93 2l-164 -448h-300z" />
    <glyph glyph-name="uni0450" unicode="&#x450;" horiz-adv-x="915" 
d="M379 1324l-247 409h284l121 -409h-158zM363 718h202v113q0 90 -22.5 129t-79.5 39q-58 0 -79 -44t-21 -160v-77zM466 -19q-203 0 -292 112t-89 331v335q0 219 90 331t290 112q106 0 178.5 -31t113 -94t57.5 -145.5t17 -198.5v-155h-468v-178q0 -37 0.5 -57.5t3.5 -49.5
t9.5 -45t17.5 -32.5t29 -23.5t42 -7q56 0 78 39.5t22 114.5v68h265v-47q0 -184 -91.5 -281.5t-272.5 -97.5z" />
    <glyph glyph-name="afii10071" unicode="&#x451;" horiz-adv-x="915" 
d="M528 1324v266h252v-266h-252zM135 1324v266h251v-266h-251zM363 718h202v113q0 90 -22.5 129t-79.5 39q-58 0 -79 -44t-21 -160v-77zM466 -19q-203 0 -292 112t-89 331v335q0 219 90 331t290 112q106 0 178.5 -31t113 -94t57.5 -145.5t17 -198.5v-155h-468v-178
q0 -37 0.5 -57.5t3.5 -49.5t9.5 -45t17.5 -32.5t29 -23.5t42 -7q56 0 78 39.5t22 114.5v68h265v-47q0 -184 -91.5 -281.5t-272.5 -97.5z" />
    <glyph glyph-name="afii10099" unicode="&#x452;" horiz-adv-x="994" 
d="M393 -320v162h28q53 0 86.5 9t57 28.5t35 60.5t16.5 95t5 141v527q0 57 -17.5 85.5t-66.5 28.5q-47 0 -135 -40v-777h-279v1240h-143v152h143v266h279v-266h281v-152h-281v-311q4 2 35.5 16t59.5 25.5t73.5 21.5t86.5 10q56 0 99.5 -16t70 -42t43.5 -62t23.5 -72.5
t6.5 -77.5v-522q0 -113 -7.5 -191.5t-28 -140t-51 -98t-83 -60t-117 -32t-158.5 -8.5h-62z" />
    <glyph glyph-name="afii10100" unicode="&#x453;" horiz-adv-x="651" 
d="M294 1324l122 409h283l-246 -409h-159zM107 0v1184h532v-193h-252v-991h-280z" />
    <glyph glyph-name="afii10101" unicode="&#x454;" horiz-adv-x="874" 
d="M463 -19q-201 0 -289 113t-88 327v343q0 214 88 326t289 112q190 0 275 -89t85 -276v-55h-261v57q0 90 -21.5 125.5t-74.5 35.5q-59 0 -79.5 -42t-20.5 -157v-123h282v-152h-282v-150q0 -113 22.5 -152t78.5 -39t75.5 38t19.5 116v80h261v-68q0 -184 -87 -277t-273 -93z
" />
    <glyph glyph-name="afii10102" unicode="&#x455;" horiz-adv-x="812" 
d="M414 -19q-147 0 -241 82t-129 236l212 77q22 -98 62 -148.5t100 -48.5q44 1 72.5 31.5t26.5 74.5q-4 64 -117 161l-159 136q-172 148 -168 309q3 142 96.5 226.5t238.5 84.5q139 0 226 -84t113 -225l-184 -77q-38 184 -142 185q-44 1 -70.5 -27t-26.5 -67q-1 -54 99 -141
l162 -147q41 -36 68 -64.5t56.5 -69.5t44 -88t14.5 -101q0 -150 -99.5 -232.5t-254.5 -82.5z" />
    <glyph glyph-name="afii10103" unicode="&#x456;" horiz-adv-x="493" 
d="M109 1355v236h280v-236h-280zM108 0v1184h280v-1184h-280z" />
    <glyph glyph-name="afii10104" unicode="&#x457;" horiz-adv-x="517" 
d="M333 1324v266h252v-266h-252zM-60 1324v266h251v-266h-251zM123 0v1184h279v-1184h-279z" />
    <glyph glyph-name="afii10105" unicode="&#x458;" horiz-adv-x="494" 
d="M132 1371v236h282v-236h-282zM-32 -307v200q37 -7 59 -7q106 0 106 121v1177h279v-1209q0 -140 -78.5 -221t-220.5 -81q-86 0 -145 20z" />
    <glyph glyph-name="afii10106" unicode="&#x459;" horiz-adv-x="1494" 
d="M970 161h7q118 1 164 40t46 147q0 105 -45 145t-166 41h-6v-373zM37 -7v199q33 -1 58 2.5t45 16t34 27.5t25.5 46.5t18.5 62.5t13.5 86t10 106.5t8.5 133.5l31 511h689v-486h20q120 0 200 -15.5t138.5 -54.5t85 -107.5t26.5 -172.5q0 -190 -106 -267.5t-358 -80.5h-285
v983h-170l-21 -361q-8 -141 -20.5 -240t-35.5 -171.5t-52 -116t-75 -68t-98 -32t-128 -5.5q-2 0 -24 1.5t-30 2.5z" />
    <glyph glyph-name="afii10107" unicode="&#x45a;" horiz-adv-x="1385" 
d="M871 162q7 0 10 1q116 3 161 41t45 144q0 104 -43.5 142.5t-161.5 43.5q-2 0 -5.5 0.5t-5.5 0.5v-373zM107 0v1184h280v-478h204v479h280v-486h21q121 -2 199.5 -18t137 -54.5t84.5 -106t26 -171.5q0 -191 -106.5 -268.5t-361.5 -79.5h-280v495h-204v-496h-280z" />
    <glyph glyph-name="afii10108" unicode="&#x45b;" horiz-adv-x="1000" 
d="M123 0v1240h-143v152h143v266h279v-266h281v-152h-281v-311q4 2 35.5 16t59.5 25.5t73.5 21.5t86.5 10q56 0 99.5 -16t70 -42t43.5 -62t23.5 -72.5t6.5 -77.5v-732h-279v703q0 57 -17.5 85.5t-66.5 28.5q-47 0 -135 -40v-777h-279z" />
    <glyph glyph-name="afii10109" unicode="&#x45c;" horiz-adv-x="944" 
d="M442 1324l122 409h283l-246 -409h-159zM107 0v1184h280v-481h53l196 481h295l-237 -567l241 -617h-295l-200 538h-53v-538h-280z" />
    <glyph glyph-name="uni045d" unicode="&#x45d;" horiz-adv-x="991" 
d="M416 1324l-247 409h284l121 -409h-158zM107 0v1184h228v-707l331 707h218v-1184h-228v710l-326 -710h-223z" />
    <glyph glyph-name="afii10110" unicode="&#x45e;" horiz-adv-x="881" 
d="M438 1324q-150 0 -221.5 78t-71.5 212h141q0 -82 37 -119t115 -37t115 37t37 119h142q0 -134 -71.5 -212t-222.5 -78zM113 -335l-11 214q51 0 83.5 3t59 11.5t39 22t18 37t2 54.5t-14.5 77l-263 1100h249l105 -535l66 -365l57 364l89 536h259l-276 -1190
q-19 -85 -45 -141.5t-60 -94.5t-87 -58t-115 -27.5t-155 -7.5z" />
    <glyph glyph-name="afii10193" unicode="&#x45f;" horiz-adv-x="986" 
d="M404 -313l-21 313h-276v1184h280v-999h212v999h279v-1184h-266l-14 -313h-194z" />
    <glyph glyph-name="afii10050" unicode="&#x490;" horiz-adv-x="846" 
d="M127 0v1658h514l-1 248h182v-471h-393v-1435h-302z" />
    <glyph glyph-name="afii10098" unicode="&#x491;" horiz-adv-x="659" 
d="M107 0v1184h388v222h148v-415h-256v-991h-280z" />
    <glyph glyph-name="uni04AF" unicode="&#x4af;" horiz-adv-x="849" 
d="M306 -358v473l-293 1069h267l153 -691l136 691h267l-283 -1063v-479h-247z" />
    <glyph glyph-name="uni04B0" unicode="&#x4b0;" horiz-adv-x="1009" 
d="M80 598v195h256l-311 865h281l125 -385l80 -254l78 253l119 386h279l-310 -865h265v-195h-291v-598h-289v598h-282z" />
    <glyph glyph-name="uni04B1" unicode="&#x4b1;" horiz-adv-x="857" 
d="M81 -22v173h215l-283 1033h267l153 -691l136 691h267l-275 -1033h211v-173h-219v-336h-247v336h-225z" />
    <glyph glyph-name="uni04C0" unicode="&#x4c0;" horiz-adv-x="562" 
d="M133 0v1658h298v-1658h-298z" />
    <glyph glyph-name="uni04E8" unicode="&#x4e8;" horiz-adv-x="1150" 
d="M404 943h342v265q0 60 -6 100t-23.5 75.5t-52.5 53t-89 17.5t-89.5 -17.5t-52.5 -53t-23 -75.5t-6 -100v-265zM575 204q44 0 75 13t49.5 34t29 55t14 68t3.5 81v293h-342v-293q0 -47 3.5 -81t14 -68t28.5 -55t49.5 -34t75.5 -13zM575 -20q-256 0 -367 139t-111 407v612
q0 132 25 229t80.5 168t148.5 106.5t224 35.5q255 0 366.5 -137t111.5 -402v-612q0 -130 -25.5 -228.5t-81 -171t-148.5 -109.5t-223 -37z" />
    <glyph glyph-name="uni04E9" unicode="&#x4e9;" horiz-adv-x="929" 
d="M362 685h204v121q0 37 -1.5 61.5t-7 53.5t-16.5 45.5t-30 28t-47 11.5q-34 0 -55.5 -15.5t-31 -47t-12.5 -61t-3 -76.5v-121zM464 178q34 0 55.5 15t31 46.5t12.5 61t3 76.5v155h-204v-155q0 -37 1.5 -61.5t7 -53t16.5 -45t30 -28t47 -11.5zM463 -19q-191 0 -284.5 107.5
t-93.5 307.5v391q0 200 93.5 307.5t284.5 107.5q192 0 286.5 -107.5t94.5 -307.5v-391q0 -200 -94.5 -307.5t-286.5 -107.5z" />
    <glyph glyph-name="uni1E02" unicode="&#x1e02;" horiz-adv-x="1137" 
d="M459 1799v277h272v-277h-272zM426 982h94q133 0 183 57t50 192q0 70 -16.5 113.5t-55.5 65.5t-86.5 29t-126.5 7h-42v-464zM426 213h111q135 0 187 63t52 208q0 150 -58.5 217.5t-196.5 67.5h-95v-556zM124 0v1658h406q115 0 200.5 -20.5t152 -68t100.5 -131.5t33 -203
q-1 -307 -244 -343q147 -28 219.5 -128.5t73.5 -282.5q1 -236 -118 -358.5t-347 -122.5h-476z" />
    <glyph glyph-name="uni1E03" unicode="&#x1e03;" horiz-adv-x="978" 
d="M365 1780v277h272v-277h-272zM514 182q31 0 51.5 17t30 51t12.5 69t3 86v408q0 42 -4 74t-15 61.5t-32.5 45t-52.5 14.5q-57 -1 -117 -46v-743q57 -37 124 -37zM611 -19q-111 0 -221 106v-87h-280v1658h280v-564q109 109 239 108q63 -1 111.5 -29t76 -69.5t45 -98
t23.5 -105t6 -98.5v-388q0 -90 -15 -165.5t-47 -137t-87.5 -96t-130.5 -34.5z" />
    <glyph glyph-name="uni1E0A" unicode="&#x1e0a;" horiz-adv-x="1133" 
d="M443 1799v277h272v-277h-272zM124 0v1658h386q150 0 251 -30t162 -95t86.5 -159.5t25.5 -232.5v-598q0 -142 -26 -241t-85.5 -168t-158.5 -101.5t-243 -32.5h-398zM426 212h86q45 0 79 8t57 19t38.5 36t23.5 46t12 63.5t5 72.5t1 89v606q0 59 -2 95t-9.5 72.5t-22 56.5
t-38.5 36.5t-60 23t-87 6.5h-83v-1230z" />
    <glyph glyph-name="uni1E0B" unicode="&#x1e0b;" horiz-adv-x="969" 
d="M339 1780v277h272v-277h-272zM474 181q51 0 108 32v756q-57 36 -109 36q-56 0 -80.5 -51t-24.5 -130v-434q0 -64 7 -106t31.5 -72.5t67.5 -30.5zM376 -19q-145 0 -217 103t-72 327v344q0 95 14.5 172t46 141t88.5 99t136 35q112 0 210 -91v547h280v-1658h-280v81
q-95 -99 -206 -100z" />
    <glyph glyph-name="uni1E1E" unicode="&#x1e1e;" horiz-adv-x="840" 
d="M329 1799v277h272v-277h-272zM124 0v1658h681v-209h-379v-482h303v-213h-303v-754h-302z" />
    <glyph glyph-name="uni1E1F" unicode="&#x1e1f;" horiz-adv-x="624" 
d="M187 1729v277h272v-277h-272zM165 0v985h-128v199h128v63q0 73 6 123t23.5 98t49.5 76.5t85 45.5t128 17q57 0 153 -11v-208q-7 1 -35 5.5t-41 4.5q-50 0 -70 -31.5t-20 -91.5v-91h166v-199h-166v-985h-279z" />
    <glyph glyph-name="uni1E40" unicode="&#x1e40;" horiz-adv-x="1397" 
d="M563 1799v277h272v-277h-272zM121 0l27 1658h310l240 -1165l247 1165h303l28 -1658h-228l-20 1142l-239 -1142h-177l-242 1146l-18 -1146h-231z" />
    <glyph glyph-name="uni1E41" unicode="&#x1e41;" horiz-adv-x="1469" 
d="M602 1327v277h272v-277h-272zM107 0v1184h266v-104q119 125 281 125q148 0 197 -145q125 145 299 145q99 0 159 -72t60 -209v-924h-266v900q0 65 -21.5 92t-63.5 26q-73 -2 -147 -69q0 -4 0.5 -12t0.5 -13v-924h-265v900q0 65 -21.5 92t-64.5 26q-70 -2 -148 -70v-948
h-266z" />
    <glyph glyph-name="uni1E56" unicode="&#x1e56;" horiz-adv-x="1062" 
d="M439 1799v277h272v-277h-272zM426 953h97q128 0 173 50.5t45 185.5q0 77 -6 119t-28 76.5t-65.5 47.5t-117.5 13h-98v-492zM124 0v1658h477q424 0 424 -471q0 -231 -116 -338.5t-327 -107.5h-156v-741h-302z" />
    <glyph glyph-name="uni1E57" unicode="&#x1e57;" horiz-adv-x="976" 
d="M361 1324v277h272v-277h-272zM510 182q31 0 52 17.5t30.5 51t13 69t3.5 85.5v408q0 41 -4.5 73.5t-15.5 62t-33 45t-53 14.5q-55 -1 -116 -47v-742q60 -37 123 -37zM107 -390v1574h280v-91q110 110 239 109q63 -1 111.5 -29t76 -69.5t45 -98t23.5 -105t6 -98.5v-388
q0 -90 -15 -165.5t-47 -137t-87.5 -96t-130.5 -34.5q-110 0 -221 107v-478h-280z" />
    <glyph glyph-name="uni1E60" unicode="&#x1e60;" horiz-adv-x="1010" 
d="M383 1799v277h272v-277h-272zM542 -20q-438 0 -460 506l263 55q10 -329 188 -329q69 0 102.5 42t33.5 113q0 69 -25 126.5t-58 94t-94 90.5l-218 189q-96 84 -143 174.5t-47 226.5q0 193 113.5 300t311.5 109q91 1 161 -22.5t115.5 -63t76 -98.5t45.5 -122.5t21 -141.5
l-258 -51q-2 50 -6.5 87t-15.5 75t-28.5 61.5t-47 37.5t-68.5 11q-67 -4 -102.5 -44.5t-35.5 -108.5q0 -80 31.5 -131.5t98.5 -110.5l216 -188q54 -49 94 -95t76.5 -105t55.5 -130t19 -150q0 -181 -114.5 -294t-300.5 -113z" />
    <glyph glyph-name="uni1E61" unicode="&#x1e61;" horiz-adv-x="812" 
d="M270 1324v277h272v-277h-272zM414 -19q-147 0 -241 82t-129 236l212 77q22 -98 62 -148.5t100 -48.5q44 1 72.5 31.5t26.5 74.5q-4 64 -117 161l-159 136q-172 148 -168 309q3 142 96.5 226.5t238.5 84.5q139 0 226 -84t113 -225l-184 -77q-38 184 -142 185
q-44 1 -70.5 -27t-26.5 -67q-1 -54 99 -141l162 -147q41 -36 68 -64.5t56.5 -69.5t44 -88t14.5 -101q0 -150 -99.5 -232.5t-254.5 -82.5z" />
    <glyph glyph-name="uni1E6A" unicode="&#x1e6a;" horiz-adv-x="865" 
d="M297 1799v277h272v-277h-272zM286 0v1435h-278v223h849v-223h-269v-1435h-302z" />
    <glyph glyph-name="uni1E6B" unicode="&#x1e6b;" horiz-adv-x="680" 
d="M197 1654v277h272v-277h-272zM437 -16q-81 1 -137.5 27t-87 74.5t-44 108.5t-13.5 140v665h-117v185h117v348h281v-348h180v-185h-180v-683q0 -58 25.5 -83.5t81.5 -26.5q39 -1 85 6v-214q-119 -16 -191 -14z" />
    <glyph glyph-name="Wgrave" unicode="&#x1e80;" horiz-adv-x="1470" 
d="M656 1799l-247 409h284l121 -409h-158zM304 0l-237 1658h254l136 -1069l177 1069h203l181 -1070l136 1070h249l-237 -1658h-241l-187 1107l-186 -1107h-248z" />
    <glyph glyph-name="wgrave" unicode="&#x1e81;" horiz-adv-x="1217" 
d="M530 1324l-247 409h284l121 -409h-158zM233 0l-182 1184h231l102 -767l126 767h205l119 -772l110 772h222l-188 -1184h-237l-130 741l-136 -741h-242z" />
    <glyph glyph-name="Wacute" unicode="&#x1e82;" horiz-adv-x="1470" 
d="M656 1799l122 409h283l-246 -409h-159zM304 0l-237 1658h254l136 -1069l177 1069h203l181 -1070l136 1070h249l-237 -1658h-241l-187 1107l-186 -1107h-248z" />
    <glyph glyph-name="wacute" unicode="&#x1e83;" horiz-adv-x="1217" 
d="M529 1324l122 409h283l-246 -409h-159zM233 0l-182 1184h231l102 -767l126 767h205l119 -772l110 772h222l-188 -1184h-237l-130 741l-136 -741h-242z" />
    <glyph glyph-name="Wdieresis" unicode="&#x1e84;" horiz-adv-x="1470" 
d="M806 1799v266h252v-266h-252zM413 1799v266h251v-266h-251zM304 0l-237 1658h254l136 -1069l177 1069h203l181 -1070l136 1070h249l-237 -1658h-241l-187 1107l-186 -1107h-248z" />
    <glyph glyph-name="wdieresis" unicode="&#x1e85;" horiz-adv-x="1217" 
d="M679 1324v266h252v-266h-252zM286 1324v266h251v-266h-251zM233 0l-182 1184h231l102 -767l126 767h205l119 -772l110 772h222l-188 -1184h-237l-130 741l-136 -741h-242z" />
    <glyph glyph-name="Ygrave" unicode="&#x1ef2;" horiz-adv-x="1001" 
d="M421 1799l-247 409h284l121 -409h-158zM357 0v631l-338 1027h282l205 -660l196 660h279l-336 -1027v-631h-288z" />
    <glyph glyph-name="ygrave" unicode="&#x1ef3;" horiz-adv-x="855" 
d="M346 1324l-247 409h284l121 -409h-158zM113 -317v202q128 0 168.5 24.5t26.5 103.5q-13 70 -41 174q-28 118 -128 504t-126 493h274l147 -778l129 778h273l-281 -1246q-31 -140 -134.5 -198t-273.5 -57h-34z" />
    <glyph glyph-name="endash" unicode="&#x2013;" horiz-adv-x="1024" 
d="M1 510v200h1022v-200h-1022z" />
    <glyph glyph-name="emdash" unicode="&#x2014;" horiz-adv-x="2047" 
d="M1 610v196h2045v-196h-2045z" />
    <glyph glyph-name="afii00208" unicode="&#x2015;" horiz-adv-x="4096" 
d="M115 556v194h3867v-194h-3867z" />
    <glyph glyph-name="quoteleft" unicode="&#x2018;" horiz-adv-x="745" 
d="M109 1136q0 193 1 215q3 181 55 268t177 87l32 -96q-68 0 -93 -50.5t-25 -161.5h127v-262h-274z" />
    <glyph glyph-name="quoteright" unicode="&#x2019;" horiz-adv-x="456" 
d="M166 1088l-33 96q68 0 93.5 50.5t25.5 161.5h-127v262h274q0 -171 -2 -215q-3 -180 -55 -267.5t-176 -87.5z" />
    <glyph glyph-name="quotesinglbase" unicode="&#x201a;" horiz-adv-x="572" 
d="M220 -253l-32 96q68 0 93 50.5t25 161.5h-127v262h274q0 -193 -1 -215q-3 -181 -55 -268t-177 -87z" />
    <glyph glyph-name="quotedblleft" unicode="&#x201c;" horiz-adv-x="970" 
d="M550 1136q0 193 1 215q3 181 55 268t177 87l32 -96q-68 0 -93 -50.5t-25 -161.5h127v-262h-274zM109 1136q0 193 1 215q3 181 55 268t177 87l32 -96q-68 0 -93 -50.5t-25 -161.5h127v-262h-274z" />
    <glyph glyph-name="quotedblright" unicode="&#x201d;" horiz-adv-x="970" 
d="M614 1087l-32 96q68 0 93.5 51t25.5 162h-128v261h274q0 -192 -1 -214q-3 -181 -55 -268.5t-177 -87.5zM212 1087l-33 96q68 0 93.5 51t25.5 162h-128v261h274q0 -192 -1 -214q-3 -181 -54.5 -268.5t-176.5 -87.5z" />
    <glyph glyph-name="quotedblbase" unicode="&#x201e;" horiz-adv-x="974" 
d="M655 -251l-32 96q68 0 93 50.5t25 161.5h-127v262h274q0 -193 -1 -215q-3 -181 -55 -268t-177 -87zM214 -251l-32 96q68 0 93 50.5t25 161.5h-127v262h274q0 -193 -1 -215q-3 -181 -55 -268t-177 -87z" />
    <glyph glyph-name="dagger" unicode="&#x2020;" horiz-adv-x="810" 
d="M282 0v1059h-201v192h201v402h249v-402h200v-192h-200v-1059h-249z" />
    <glyph glyph-name="daggerdbl" unicode="&#x2021;" horiz-adv-x="810" 
d="M285 0v505h-217v170h217v335h-217v174h217v470h244v-470h215v-174h-215v-335h215v-170h-215v-505h-244z" />
    <glyph glyph-name="bullet" unicode="&#x2022;" horiz-adv-x="866" 
d="M431 474q-131 0 -214.5 82.5t-83.5 225.5q0 145 83.5 228t214.5 83t215.5 -83.5t84.5 -227.5q0 -143 -84.5 -225.5t-215.5 -82.5z" />
    <glyph glyph-name="ellipsis" unicode="&#x2026;" horiz-adv-x="1238" 
d="M901 0v278h272v-278h-272zM482 0v277h271v-277h-271zM66 0v277h271v-277h-271z" />
    <glyph glyph-name="perthousand" unicode="&#x2030;" horiz-adv-x="2814" 
d="M658 0l468 1658h197l-468 -1658h-197zM2368 -7q-189 0 -275 106t-86 314v88q0 212 83.5 312.5t277.5 100.5t278.5 -97.5t84.5 -306.5v-102q0 -208 -86 -311.5t-277 -103.5zM2368 188q31 0 53.5 12t35 30.5t20 49.5t9.5 61t2 73v90q0 45 -2 73.5t-8.5 58t-19.5 46
t-35.5 26.5t-54.5 10t-54.5 -10.5t-35 -27t-19 -46.5t-8.5 -58t-2 -73v-90q0 -54 4 -90.5t16 -69.5t36.5 -49t62.5 -16zM1537 -7q-189 0 -275 106t-86 314v88q0 212 83.5 312.5t277.5 100.5t278.5 -97.5t84.5 -306.5v-102q0 -208 -86 -311.5t-277 -103.5zM1537 188
q32 0 54 12t35 30.5t20 49.5t9 61t2 73v90q0 45 -2 73.5t-8.5 58t-19 45.5t-35 26.5t-55.5 10.5q-32 0 -54.5 -10.5t-35 -27t-19 -46.5t-8.5 -58t-2 -73v-90q0 -54 4 -90.5t16 -69.5t36.5 -49t62.5 -16zM442 744q-189 0 -275 106t-86 314v88q0 212 83.5 312.5t277.5 100.5
t278.5 -98t84.5 -307v-101q0 -208 -86 -311.5t-277 -103.5zM442 938q31 0 53.5 12t35 30.5t20 49.5t9.5 61.5t2 73.5v90q0 45 -2 73.5t-8.5 57.5t-19.5 45.5t-35.5 26.5t-54.5 10t-54.5 -10.5t-35 -26.5t-19 -46t-8.5 -58t-2 -73v-91q0 -54 4 -90t16 -69.5t36.5 -49.5
t62.5 -16z" />
    <glyph glyph-name="guilsinglleft" unicode="&#x2039;" horiz-adv-x="558" 
d="M482 52l-418 463v143l418 465v-309l-228 -226l228 -229v-307z" />
    <glyph glyph-name="guilsinglright" unicode="&#x203a;" horiz-adv-x="577" 
d="M100 133v307l232 229l-232 226v309l418 -478v-117z" />
    <glyph glyph-name="fraction" unicode="&#x2044;" horiz-adv-x="559" 
d="M13 0l314 1658h219l-313 -1658h-220z" />
    <glyph glyph-name="uni2074" unicode="&#x2074;" horiz-adv-x="806" 
d="M222 946h184v391zM406 516v295h-343v133l353 714h220v-712h123v-135h-123v-295h-230z" />
    <glyph glyph-name="Euro" unicode="&#x20ac;" horiz-adv-x="1077" 
d="M577 -20q-134 0 -227.5 40.5t-146 117.5t-75 174t-22.5 225v91h-111v124h111v159h-111v125h111v79q0 135 22.5 234t75 175t146 114.5t227.5 38.5q124 0 212 -33t139.5 -97t74.5 -149.5t23 -199.5v-94h-291v93v5v46t-1.5 41.5t-4 40t-8 34t-13 31.5t-19.5 24t-27.5 19.5
t-36 11t-46.5 4.5q-38 0 -66.5 -9t-46.5 -28.5t-29.5 -41.5t-17 -57.5t-7 -65.5t-1.5 -76v-140h199v-125h-199v-159h199v-124h-199v-154q0 -147 36.5 -208.5t131.5 -61.5q37 0 64 8.5t44 28.5t27 40.5t14.5 56.5t5.5 62.5t1 73.5v81h291v-69q0 -117 -21.5 -205t-71 -158
t-139 -106.5t-217.5 -36.5z" />
    <glyph glyph-name="afii61289" unicode="&#x2113;" horiz-adv-x="1125" 
d="M654 1057q333 464 240 566q-39 43 -138 15l-10 -3zM402 503l-158 -204l-88 92l287 383l128 860q22 147 134 228q95 69 201 55q107 -14 155 -108q76 -147 -37 -413q-87 -205 -281 -456l-135 -174l-68 -426q-12 -82 -3.5 -133.5t36 -71.5t65 -13.5t83.5 39.5t92 87l81 -100
q-54 -63 -119 -105t-127 -56.5t-119 -3.5t-95 55t-55.5 119t0.5 188z" />
    <glyph glyph-name="afii61352" unicode="&#x2116;" horiz-adv-x="2041" 
d="M1575 -19q-191 0 -284.5 107.5t-93.5 307.5v391q0 200 93.5 307.5t284.5 107.5q192 0 286.5 -107.5t94.5 -307.5v-391q0 -200 -94.5 -307.5t-286.5 -107.5zM1576 178q34 0 55.5 15t31 46.5t12.5 61t3 76.5v429q0 37 -1.5 61.5t-7 53.5t-16.5 45.5t-30 28t-47 11.5
q-34 0 -55.5 -15.5t-31 -47t-12.5 -61t-3 -76.5v-429q0 -37 1.5 -61.5t7 -53t16.5 -45t30 -28t47 -11.5zM124 0v1658h208l406 -939v939h250v-1658h-198l-410 987v-987h-256z" />
    <glyph glyph-name="trademark" unicode="&#x2122;" horiz-adv-x="1633" 
d="M297 710v782h-175v166h538v-166h-167v-782h-196zM751 710v948h195l179 -610l191 610h187v-948h-159v548l-170 -548h-87l-177 549v-549h-159z" />
    <glyph glyph-name="estimated" unicode="&#x212e;" horiz-adv-x="910" 
d="M342 660h260v260q0 49 -4.5 81t-17.5 61t-40 43t-68 14q-81 0 -105.5 -52.5t-24.5 -179.5v-227zM487 -19q-210 0 -306.5 95t-96.5 305v418q0 213 91 308t296 95q108 0 178 -25t110.5 -80.5t56 -131.5t15.5 -192v-195h-489v-294q0 -53 2 -80.5t10.5 -60.5t26 -48t49 -25.5
t79.5 -10.5q44 0 74 10.5t46 25.5t24.5 46.5t10 58.5t1.5 77v156h164v-123q0 -182 -76.5 -255.5t-265.5 -73.5z" />
    <glyph glyph-name="partialdiff" unicode="&#x2202;" horiz-adv-x="1033" 
d="M478 167q35 0 59 7t49 28.5t41 67.5t24 118l53 486q-99 56 -177 56q-68 0 -107.5 -42.5t-46.5 -117.5l-40 -428q-1 -8 -1 -23q0 -69 37 -110.5t109 -41.5zM468 -26q-60 0 -116 12.5t-107 40t-88.5 68t-60 99.5t-22.5 131q0 30 1 46l38 419q12 151 103.5 241.5t232.5 90.5
q85 0 158 -33t120 -75q8 58 8 100q0 178 -111 269t-319 110l57 185q55 0 107 -6t114 -23.5t115 -45.5t104 -76.5t86.5 -111.5t57.5 -155.5t22 -204.5l-44 -540q-9 -105 -28.5 -188.5t-44 -139.5t-60 -96.5t-69.5 -62.5t-80.5 -34.5t-84 -16t-89.5 -3.5z" />
    <glyph glyph-name="product" unicode="&#x220f;" horiz-adv-x="1188" 
d="M117 -390v2048h954v-2048h-276v1832h-402v-1832h-276z" />
    <glyph glyph-name="summation" unicode="&#x2211;" horiz-adv-x="857" 
d="M52 -390l297 1044l-297 1004h722v-213h-394l253 -789l-260 -837h406v-209h-727z" />
    <glyph glyph-name="minus" unicode="&#x2212;" horiz-adv-x="880" 
d="M116 726v173h648v-173h-648z" />
    <glyph glyph-name="uni2215" unicode="&#x2215;" horiz-adv-x="811" 
d="M73 0l469 1658h195l-469 -1658h-195z" />
    <glyph glyph-name="uni2219" unicode="&#x2219;" horiz-adv-x="400" 
d="M65 636v269h271v-269h-271z" />
    <glyph glyph-name="radical" unicode="&#x221a;" horiz-adv-x="1116" 
d="M461 0l-205 1015l-238 -2v171h466l69 -375l62 -416l60 416l139 849h277l-325 -1658h-305z" />
    <glyph glyph-name="infinity" unicode="&#x221e;" horiz-adv-x="1318" 
d="M975 446q39 0 68.5 28.5t29.5 85.5q0 56 -29.5 84.5t-68.5 28.5q-74 2 -183 -113q59 -62 102 -88.5t81 -25.5zM353 431q86 5 202 129q-116 123 -202 128q-47 3 -79.5 -32t-32.5 -96q0 -62 32.5 -96.5t79.5 -32.5zM356 203q-100 0 -171 50t-103.5 129t-32.5 178
q0 152 79.5 254t227.5 102q96 0 171 -46.5t144 -125.5q143 157 294 153q141 -3 222.5 -96.5t81.5 -240.5t-81.5 -241t-222.5 -97q-151 -4 -294 153q-69 -79 -144 -125.5t-171 -46.5z" />
    <glyph glyph-name="integral" unicode="&#x222b;" horiz-adv-x="690" 
d="M181 -389q-65 0 -151 10v208q60 -9 75 -9q50 0 70 31.5t20 91.5v1386q0 71 6 120.5t24.5 96t50.5 74t85 44t128 16.5q56 0 152 -11v-208q-73 10 -75 10q-50 0 -70.5 -31t-20.5 -92v-1386q0 -59 -4 -102.5t-15.5 -85.5t-32 -70t-52.5 -50t-79.5 -32.5t-110.5 -10.5z" />
    <glyph glyph-name="approxequal" unicode="&#x2248;" horiz-adv-x="959" 
d="M642 875q-47 0 -110 30t-122 60t-94 30q-27 0 -69.5 -25t-77.5 -62l-94 125q48 62 121 116.5t128 54.5q46 0 109 -29.5t121 -59t93 -29.5q45 0 144 89l99 -113q-43 -69 -115.5 -128t-132.5 -59zM642 463q-47 0 -110 30t-122 60t-94 30q-27 0 -69.5 -25t-77.5 -62l-94 126
q48 62 121 116t128 54q46 0 109 -29.5t121 -59t93 -29.5q44 0 144 90l99 -114q-43 -69 -115.5 -128t-132.5 -59z" />
    <glyph glyph-name="notequal" unicode="&#x2260;" horiz-adv-x="887" 
d="M116 0l152 542h-141v189h195l53 187h-248v190h302l156 550h195l-156 -550h144v-190h-198l-53 -187h251v-189h-305l-153 -542h-194z" />
    <glyph glyph-name="lessequal" unicode="&#x2264;" horiz-adv-x="814" 
d="M65 0v172h649v-172h-649zM698 265l-609 426v248l609 427v-261l-405 -289l405 -291v-260z" />
    <glyph glyph-name="greaterequal" unicode="&#x2265;" horiz-adv-x="830" 
d="M108 6v172h649v-172h-649zM115 273v261l406 291l-406 288v262l612 -428v-248z" />
    <glyph glyph-name="lozenge" unicode="&#x25ca;" horiz-adv-x="985" 
d="M493 184l234 409l-240 393l-230 -393zM438 0l-366 593l357 592h112l372 -592l-363 -593h-112z" />
    <glyph glyph-name="uniFB00" unicode="&#xfb00;" horiz-adv-x="1129" 
d="M689 0v985h-128v199h128v63q0 73 6 123t23.5 98t49.5 76.5t85 45.5t128 17q57 0 153 -11v-208q-7 1 -35 5.5t-41 4.5q-50 0 -70 -31.5t-20 -91.5v-91h166v-199h-166v-985h-279zM165 0v985h-128v199h128v63q0 73 6 123t23.5 98t49.5 76.5t85 45.5t128 17q57 0 153 -11
v-208q-7 1 -35 5.5t-41 4.5q-50 0 -70 -31.5t-20 -91.5v-91h166v-199h-166v-985h-279z" />
    <glyph glyph-name="uniFB01" unicode="&#xfb01;" horiz-adv-x="1072" 
d="M703 1371v236h257v-236h-257zM163 0v985h-128v199h128v63q0 183 67.5 271t235.5 88q62 0 131 -10v-200q-36 6 -63 6q-51 0 -71.5 -28t-20.5 -97v-93h517v-1184h-278v985h-239v-985h-279z" />
    <glyph glyph-name="uniFB02" unicode="&#xfb02;" horiz-adv-x="1102" 
d="M439 981v-981h-279v981h-128v203h128v63q0 47 2 79t11 78t25 76.5t47.5 64.5t75.5 54t111.5 33.5t152.5 13.5q171 0 412 -50v-1596h-280v1442q-53 7 -99 7q-51 0 -85.5 -10.5t-53 -25.5t-28 -44.5t-11 -53t-1.5 -66.5v-65h155v-203h-155z" />
    <glyph glyph-name="uniFB03" unicode="&#xfb03;" horiz-adv-x="1578" 
d="M160 0v986h-128v198h128v63q0 73 5.5 123t23.5 98t49.5 76.5t85 45.5t128.5 17q47 0 143 -11v-208q-8 1 -34 5t-38 4q-48 0 -66 -30.5t-18 -91.5v-91h236v63q0 73 6 123t23.5 98t49.5 76.5t85 45.5t128 17q51 0 145 -11v-208q-7 1 -33.5 5t-39.5 4q-48 0 -66.5 -30.5
t-18.5 -91.5v-91h515v-1184h-279v986h-236v-986h-279v986h-236v-986h-279zM1202 1371v236h268v-236h-268z" />
    <glyph glyph-name="uniFB04" unicode="&#xfb04;" horiz-adv-x="1589" 
d="M165 0v985h-128v199h128v63q0 73 6 123t23.5 98t49.5 76.5t85 45.5t128 17q57 0 153 -11v-208q-7 1 -35 5.5t-41 4.5q-50 0 -70 -31.5t-20 -91.5v-91h166v-199h-166v-985h-279zM650 0v985h-128v199h128v63q0 73 6 123t23.5 98t49.5 76.5t85 45.5t128 17q57 0 153 -11
v-208q-7 1 -35 5.5t-41 4.5q-50 0 -70 -31.5t-20 -91.5v-91h166v-199h-166v-985h-279zM1160 1371v236h281v-236h-281zM1160 0v1184h280v-1184h-280z" />
    <glyph glyph-name="foundryicon" horiz-adv-x="1449" 
d="M298 254l154 497l-420 317l524 3l164 497l172 -497h525l-423 -320l156 -497l-430 300z" />
    <glyph glyph-name="uni04AE" horiz-adv-x="999" 
d="M356 0v721l-337 937h281l125 -385l80 -254l78 253l119 386h279l-336 -937v-721h-289z" />
    </font>
</defs>
</svg>
